<?xml version="1.0" encoding="utf-8"?>
<!-- Generator: Adobe Illustrator 16.0.0, SVG Export Plug-In . SVG Version: 6.00 Build 0)  -->
<!DOCTYPE svg PUBLIC "-//W3C//DTD SVG 1.1//EN" "http://www.w3.org/Graphics/SVG/1.1/DTD/svg11.dtd">
<svg version="1.1" id="Layer_1" xmlns="http://www.w3.org/2000/svg" xmlns:xlink="http://www.w3.org/1999/xlink" x="0px" y="0px"
	 width="116.86px" height="66px" viewBox="0 0 116.86 66" enable-background="new 0 0 116.86 66" xml:space="preserve">
<g>
	<polygon fill-rule="evenodd" clip-rule="evenodd" fill="#EEAE1A" points="51.6,0 57.09,6.09 65.11,5.13 97.21,48 50.75,23.13 
		49.87,15.11 42.6,11.19 50.13,7.95 	"/>
	<polygon fill-rule="evenodd" clip-rule="evenodd" fill="#FFE026" points="51.6,0 57.09,6.09 65.11,5.13 61.09,12.04 64.56,19.29 
		56.66,17.6 50.75,23.13 49.87,15.11 42.6,11.19 50.13,7.95 	"/>
	<polygon fill-rule="evenodd" clip-rule="evenodd" fill="#FFE026" points="107.25,2.57 111.15,6.78 116.86,6.12 114,10.9 
		116.47,15.91 110.85,14.74 106.65,18.57 106.02,13.02 100.86,10.31 106.21,8.07 	"/>
	<polygon fill-rule="evenodd" clip-rule="evenodd" fill="#EEAE1A" points="9.43,36.7 18.54,42.98 22.45,42.48 50.21,66 7.19,59.24 
		6.82,51.33 0,47.07 7.51,44.37 	"/>
	<polygon fill-rule="evenodd" clip-rule="evenodd" fill="#FFE026" points="9.43,36.7 14.45,42.95 22.45,42.48 18.04,49.04 
		21.06,56.41 13.32,54.22 7.19,59.24 6.82,51.33 0,47.07 7.51,44.37 	"/>
	<polygon fill-rule="evenodd" clip-rule="evenodd" fill="#FFE026" points="48.06,37.57 50,39.67 52.86,39.34 51.43,41.73 
		52.66,44.24 49.85,43.65 47.75,45.57 47.44,42.79 44.86,41.44 47.53,40.32 	"/>
	<polygon fill-rule="evenodd" clip-rule="evenodd" fill="#FFE026" points="10.06,3.57 7.13,6.72 2.86,6.23 5,9.81 3.15,13.57 
		7.36,12.7 10.51,15.57 10.98,11.4 14.86,9.37 10.84,7.69 	"/>
</g>
</svg>
