<?xml version="1.0" encoding="utf-8"?>
<!-- Generator: Adobe Illustrator 16.0.0, SVG Export Plug-In . SVG Version: 6.00 Build 0)  -->
<!DOCTYPE svg PUBLIC "-//W3C//DTD SVG 1.1//EN" "http://www.w3.org/Graphics/SVG/1.1/DTD/svg11.dtd">
<svg version="1.1" id="Layer_1" xmlns="http://www.w3.org/2000/svg" xmlns:xlink="http://www.w3.org/1999/xlink" x="0px" y="0px"
	 width="116.86px" height="66px" viewBox="0 0 116.86 66" enable-background="new 0 0 116.86 66" xml:space="preserve">
<g>
	<g>
		<polygon fill-rule="evenodd" clip-rule="evenodd" fill="#EEAE1A" points="65.26,0 59.77,6.09 51.75,5.13 19.65,48 66.11,23.13 
			66.99,15.11 74.26,11.19 66.73,7.95 		"/>
		<polygon fill-rule="evenodd" clip-rule="evenodd" fill="#FFE026" points="65.26,0 59.77,6.09 51.75,5.13 55.77,12.04 52.29,19.29 
			60.2,17.6 66.11,23.13 66.99,15.11 74.26,11.19 66.73,7.95 		"/>
		<polygon fill-rule="evenodd" clip-rule="evenodd" fill="#FFE026" points="9.6,2.57 5.7,6.78 0,6.12 2.86,10.9 0.39,15.91 
			6.01,14.74 10.21,18.57 10.84,13.02 16,10.31 10.65,8.07 		"/>
		<polygon fill-rule="evenodd" clip-rule="evenodd" fill="#EEAE1A" points="107.43,36.7 98.32,42.98 94.41,42.48 66.65,66 
			109.67,59.24 110.04,51.33 116.86,47.07 109.35,44.37 		"/>
		<polygon fill-rule="evenodd" clip-rule="evenodd" fill="#FFE026" points="107.43,36.7 102.41,42.95 94.41,42.48 98.82,49.04 
			95.8,56.41 103.53,54.22 109.67,59.24 110.04,51.33 116.86,47.07 109.35,44.37 		"/>
		<polygon fill-rule="evenodd" clip-rule="evenodd" fill="#FFE026" points="68.8,37.57 66.85,39.67 64,39.34 65.43,41.73 
			64.2,44.24 67.01,43.65 69.11,45.57 69.42,42.79 72,41.44 69.33,40.32 		"/>
		<polygon fill-rule="evenodd" clip-rule="evenodd" fill="#FFE026" points="106.8,3.57 109.73,6.72 114,6.23 111.86,9.81 
			113.71,13.57 109.5,12.7 106.35,15.57 105.88,11.4 102,9.37 106.02,7.69 		"/>
	</g>
</g>
</svg>
