<?xml version="1.0" encoding="utf-8"?>
<!-- Generator: Adobe Illustrator 25.2.0, SVG Export Plug-In . SVG Version: 6.00 Build 0)  -->
<svg version="1.1" xmlns="http://www.w3.org/2000/svg" xmlns:xlink="http://www.w3.org/1999/xlink" x="0px" y="0px"
	 viewBox="0 0 599.5 187.4" style="enable-background:new 0 0 599.5 187.4;" xml:space="preserve">
<style type="text/css">
	.st0{fill:#FBFBFB;}
	.st1{fill:url(#SVGID_1_);}
	.st2{fill:none;}
	.st3{display:none;}
</style>
<g id="bg">
</g>
<g id="logo">
	<g id="_x35_R6vfV_1_">
	</g>
	<g>
		<g>
			<path class="st0" d="M39.6,63.3C31.8,70.8,28,80.1,28,91.4s3.8,20.6,11.6,28c7.8,7.3,17.6,11,29.5,11c9.5,0,17.2-2.2,23.1-6.8
				v-21c-5.7,5.3-12.8,7.9-21.3,7.9c-12.2,0-21-8.1-21-19.2c0-5.7,1.9-10.3,5.9-13.9c4-3.7,9.1-5.4,15.1-5.4
				c8.4,0,15.6,2.6,21.3,8.1V58.9c-6-4.6-13.8-6.8-23.1-6.8C57.2,52.2,47.3,55.8,39.6,63.3z"/>
			<path class="st0" d="M123.1,64.6V54.5h-21.9v74h21.9V92.4c0-12.2,7.3-19.2,19.8-19.2c2.6,0,5.1,0.3,7.3,0.7V53.3
				c-2.3-0.3-4.3-0.4-5.7-0.4C134.4,52.9,126.5,57.2,123.1,64.6z"/>
			<path class="st0" d="M209.4,64.2c-2.2-6.5-10.9-11-22-11c-10.4,0-19.2,3.7-26.3,11.2c-6.9,7.3-10.4,16.4-10.4,27.2
				c0,10.7,3.5,19.8,10.4,27.3c7,7.3,15.9,11,26.3,11c11.2,0,19.8-4.5,22-11v9.7h21.9v-74h-21.9V64.2z M205,104.7
				c-3.7,3.5-8.2,5.3-13.7,5.3c-5.3,0-9.7-1.8-13.4-5.3c-3.7-3.7-5.4-8.1-5.4-13.2c0-5.1,1.8-9.5,5.4-13.1c3.7-3.7,8.1-5.4,13.4-5.4
				c5.4,0,10,1.8,13.7,5.4c3.8,3.5,5.7,7.9,5.7,13.1C210.7,96.7,208.8,101.1,205,104.7z"/>
			<path class="st0" d="M319.8,26.2h-21.3v28.3h-26.9v-3.4c0-6.3,3.1-8.8,10.1-8.8c3.1,0,5.3,0.3,6.6,0.7V24.9
				c-2.9-0.4-5.9-0.7-8.8-0.7c-9.2,0-16.1,1.8-20.4,5.4c-5.7,4.6-8.7,12.2-8.7,22.9v2.1h-12.2v19.8h12.2v54.2h21.1V74.3h26.9v54.2
				h21.3V74.3h16.3V54.5h-16.3V26.2z"/>
			<rect x="342" y="26.2" class="st0" width="21.9" height="102.3"/>
			<polygon class="st0" points="430.7,54.5 410.7,103.9 391,54.5 368.3,54.5 399.2,129.8 387.4,157 409.8,157 453.4,54.5 			"/>
			<path class="st0" d="M461.3,109.6c-4.7-4.7-12-4.7-16.9,0c-4.7,4.7-4.7,12,0,16.7c4.8,4.7,12.2,4.7,16.9,0
				C466.2,121.6,466.2,114.3,461.3,109.6z"/>
		</g>
		<linearGradient id="SVGID_1_" gradientUnits="userSpaceOnUse" x1="483.386" y1="143.6042" x2="595.6052" y2="31.3851">
			<stop  offset="0.1112" style="stop-color:#FAE6FA"/>
			<stop  offset="0.3075" style="stop-color:#D0A1EA"/>
			<stop  offset="0.4953" style="stop-color:#A2B1ED"/>
			<stop  offset="0.7044" style="stop-color:#A2C3F9"/>
			<stop  offset="0.8618" style="stop-color:#87DDE8"/>
			<stop  offset="1" style="stop-color:#3CDDED"/>
		</linearGradient>
		<path class="st1" d="M527.4,64.2v-9.7h21.9v74h-21.9v-9.7c-2.2,6.5-10.9,11-22,11c-10.4,0-19.2-3.7-26.3-11
			c-6.9-7.5-10.4-16.6-10.4-27.3c0-10.7,3.5-19.8,10.4-27.2c7-7.5,15.9-11.2,26.3-11.2C516.6,53.2,525.2,57.7,527.4,64.2z
			 M523,104.7c3.8-3.7,5.7-8.1,5.7-13.2c0-5.1-1.9-9.5-5.7-13.1c-3.7-3.7-8.2-5.4-13.7-5.4c-5.3,0-9.7,1.8-13.4,5.4
			c-3.7,3.5-5.4,7.9-5.4,13.1c0,5.1,1.8,9.5,5.4,13.2c3.7,3.5,8.1,5.3,13.4,5.3C514.8,110,519.3,108.3,523,104.7z M571,23.4
			c6.9,0,12.5,5.4,12.5,12.5c0,6.9-5.6,12.3-12.5,12.3s-12.5-5.4-12.5-12.3C558.5,28.8,564.1,23.4,571,23.4z M560.1,128.5v-74H582
			v74H560.1z"/>
	</g>
	<line class="st2" x1="850.1" y1="162" x2="835.1" y2="254.4"/>
	<line class="st2" x1="882.4" y1="227.6" x2="882.4" y2="226.5"/>
	<g id="rsJ58C.tif" class="st3">
		
			<image style="display:inline;overflow:visible;" width="2000" height="1125" id="Layer_0" xlink:href="643178248FF6839.png"  transform="matrix(0.5 0 0 0.5 -200 -213.8977)">
		</image>
	</g>
</g>
</svg>
