<?xml version="1.0" encoding="utf-8"?>
<!-- Generator: Adobe Illustrator 16.0.0, SVG Export Plug-In . SVG Version: 6.00 Build 0)  -->
<!DOCTYPE svg PUBLIC "-//W3C//DTD SVG 1.1//EN" "http://www.w3.org/Graphics/SVG/1.1/DTD/svg11.dtd">
<svg version="1.1" id="Layer_1" xmlns="http://www.w3.org/2000/svg" xmlns:xlink="http://www.w3.org/1999/xlink" x="0px" y="0px"
	 width="105.42px" height="24.93px" viewBox="0 0 105.42 24.93" enable-background="new 0 0 105.42 24.93" xml:space="preserve">
<g>
	<path fill-rule="evenodd" clip-rule="evenodd" fill="#FFFFFF" d="M2.55,3.08C0.85,4.74,0,6.99,0,9.83c0,2.84,0.85,5.09,2.55,6.74
		c1.7,1.67,3.91,2.5,6.59,2.5c2.22,0,4.11-0.61,5.67-1.83c1.57-1.22,2.52-2.88,2.86-4.94l-3.89-0.34c-0.25,1.25-0.78,2.18-1.61,2.84
		c-0.84,0.66-1.89,0.97-3.14,0.97c-1.54,0-2.81-0.52-3.79-1.55c-0.99-1.03-1.47-2.48-1.47-4.39c0-1.78,0.47-3.23,1.42-4.33
		C6.14,4.42,7.41,3.88,9,3.88c1.27,0,2.31,0.34,3.14,1.01c0.83,0.68,1.38,1.63,1.64,2.86l3.86-0.33c-0.31-2.09-1.26-3.75-2.86-5
		c-1.56-1.21-3.45-1.84-5.65-1.84C6.44,0.58,4.25,1.42,2.55,3.08z"/>
	<path fill-rule="evenodd" clip-rule="evenodd" fill="#FFFFFF" d="M23.94,7.82V6.39h-3.38V18.8h3.5v-6.28c0-0.86,0.3-1.55,0.9-2.08
		c0.59-0.52,1.39-0.78,2.39-0.78V6.27C25.72,6.27,24.58,6.78,23.94,7.82z"/>
	<path fill-rule="evenodd" clip-rule="evenodd" fill="#FFFFFF" d="M35.46,15.82c-0.41,0.35-0.96,0.53-1.63,0.53
		c-0.97,0-1.44-0.38-1.44-1.13c0-0.81,0.6-1.23,1.8-1.3l1.87-0.1v0.51C36.06,14.96,35.86,15.46,35.46,15.82z M30.66,7.52
		c-0.97,0.9-1.44,1.92-1.44,3.08l3.5,0.14c0-0.47,0.14-0.86,0.45-1.17c0.32-0.32,0.74-0.47,1.29-0.47c1.06,0,1.6,0.64,1.6,1.92v0.48
		l-2.2,0.13c-3.31,0.15-4.97,1.4-4.97,3.76c0,1.19,0.36,2.11,1.08,2.74c0.72,0.62,1.74,0.94,3.03,0.94c1.3,0,2.36-0.43,3.19-1.29
		v1.02h3.37v-7.66c0-1.62-0.45-2.87-1.32-3.72c-0.88-0.84-2.16-1.26-3.83-1.26C32.89,6.16,31.64,6.61,30.66,7.52z"/>
	<path fill-rule="evenodd" clip-rule="evenodd" fill="#FFFFFF" d="M44.6,1.39c-0.94,0.94-1.39,2.18-1.39,3.72v1.28h-2.25v3.02h2.25
		v9.39h3.48V9.41h2.87V6.39h-2.87V5.02c0-0.58,0.19-1.05,0.58-1.42c0.39-0.36,0.89-0.55,1.5-0.55c0.15,0,0.44,0.02,0.83,0.05V0.08
		C49.22,0.03,48.8,0,48.36,0C46.77,0,45.52,0.47,44.6,1.39z"/>
	<path fill-rule="evenodd" clip-rule="evenodd" fill="#FFFFFF" d="M58.78,6.39h-2.9l0.03-4.11h-3.52l-0.01,4.11H50.1v3.02h2.25
		l-0.02,5.45c-0.03,1.38,0.36,2.41,1.16,3.11c0.78,0.72,1.9,1.06,3.36,1.06c0.61,0,1.25-0.04,1.93-0.14v-3.12
		c-0.51,0.09-0.87,0.12-1.07,0.12c-0.57,0-1.02-0.15-1.36-0.47c-0.35-0.31-0.52-0.78-0.52-1.4l0.03-4.61h2.92V6.39z"/>
	<rect x="61.56" y="0.16" fill-rule="evenodd" clip-rule="evenodd" fill="#FFFFFF" width="3.5" height="18.64"/>
	<polygon fill-rule="evenodd" clip-rule="evenodd" fill="#FFFFFF" points="76.55,6.39 73.72,13.78 70.86,6.39 67,6.39 71.85,17.69 
		68.67,24.93 72.49,24.93 80.44,6.39 	"/>
</g>
<g>
	<path fill-rule="evenodd" clip-rule="evenodd" fill="#FFFFFF" d="M81.74,16.96c0,0.59,0.2,1.09,0.61,1.5c0.4,0.4,0.9,0.61,1.5,0.61
		c0.59,0,1.09-0.21,1.51-0.61c0.41-0.41,0.63-0.91,0.63-1.5c0-0.6-0.22-1.1-0.63-1.52c-0.42-0.41-0.92-0.62-1.51-0.62
		c-0.6,0-1.1,0.21-1.5,0.62C81.94,15.86,81.74,16.36,81.74,16.96z"/>
	<path fill-rule="evenodd" clip-rule="evenodd" fill="#FFFFFF" d="M94.46,15.82c-0.41,0.35-0.96,0.53-1.63,0.53
		c-0.97,0-1.44-0.38-1.44-1.13c0-0.81,0.6-1.23,1.8-1.3l1.87-0.1v0.51C95.06,14.96,94.86,15.46,94.46,15.82z M89.66,7.52
		c-0.97,0.9-1.44,1.92-1.44,3.08l3.5,0.14c0-0.47,0.14-0.86,0.45-1.17c0.32-0.32,0.74-0.47,1.29-0.47c1.06,0,1.6,0.64,1.6,1.92v0.48
		l-2.2,0.13c-3.31,0.15-4.97,1.4-4.97,3.76c0,1.19,0.36,2.11,1.08,2.74c0.72,0.62,1.74,0.94,3.03,0.94c1.3,0,2.36-0.43,3.19-1.29
		v1.02h3.37v-7.66c0-1.62-0.45-2.87-1.32-3.72c-0.88-0.84-2.16-1.26-3.83-1.26C91.89,6.16,90.64,6.61,89.66,7.52z"/>
	<path fill-rule="evenodd" clip-rule="evenodd" fill="#FFFFFF" d="M101.56,6.39V18.8h3.5V6.39H101.56z M102.16,0.6
		c-0.36,0.25-0.63,0.56-0.78,0.93c-0.16,0.38-0.21,0.79-0.14,1.22c0.06,0.44,0.26,0.8,0.57,1.08c0.41,0.41,0.91,0.59,1.5,0.59
		c0.6,0,1.08-0.18,1.49-0.59c0.41-0.41,0.62-0.91,0.62-1.5c0-0.59-0.2-1.09-0.61-1.5c-0.4-0.41-0.9-0.61-1.5-0.61
		C102.89,0.22,102.5,0.35,102.16,0.6z"/>
</g>
</svg>
