<?xml version="1.0" encoding="utf-8"?>
<!-- Generator: Adobe Illustrator 16.0.0, SVG Export Plug-In . SVG Version: 6.00 Build 0)  -->
<!DOCTYPE svg PUBLIC "-//W3C//DTD SVG 1.1//EN" "http://www.w3.org/Graphics/SVG/1.1/DTD/svg11.dtd">
<svg version="1.1" id="Layer_1" xmlns="http://www.w3.org/2000/svg" xmlns:xlink="http://www.w3.org/1999/xlink" x="0px" y="0px"
	 width="100px" height="209px" viewBox="0 0 100 209" enable-background="new 0 0 100 209" xml:space="preserve">
<g>
	<g>
		<path fill-rule="evenodd" clip-rule="evenodd" fill="#FFFFFF" d="M0,2.05C0,0.92,0.92,0,2.06,0c1.13,0,2.05,0.92,2.05,2.05
			c0,1.14-0.92,2.06-2.05,2.06C0.92,4.11,0,3.19,0,2.05z"/>
		<path fill-rule="evenodd" clip-rule="evenodd" fill="#FFFFFF" d="M0,14.75c0-1.13,0.92-2.06,2.06-2.06c1.13,0,2.05,0.93,2.05,2.06
			S3.19,16.8,2.06,16.8C0.92,16.8,0,15.88,0,14.75z"/>
		<path fill-rule="evenodd" clip-rule="evenodd" fill="#FFFFFF" d="M0,29.45c0-1.14,0.92-2.06,2.06-2.06c1.13,0,2.05,0.92,2.05,2.06
			c0,1.13-0.92,2.05-2.05,2.05C0.92,31.5,0,30.58,0,29.45z"/>
		<path fill-rule="evenodd" clip-rule="evenodd" fill="#FFFFFF" d="M0,43.15c0-1.14,0.92-2.06,2.06-2.06c1.13,0,2.05,0.92,2.05,2.06
			c0,1.13-0.92,2.05-2.05,2.05C0.92,45.2,0,44.28,0,43.15z"/>
		<path fill-rule="evenodd" clip-rule="evenodd" fill="#FFFFFF" d="M0,56.85c0-1.14,0.92-2.06,2.06-2.06c1.13,0,2.05,0.92,2.05,2.06
			c0,1.13-0.92,2.05-2.05,2.05C0.92,58.9,0,57.98,0,56.85z"/>
		<path fill-rule="evenodd" clip-rule="evenodd" fill="#FFFFFF" d="M0,70.54c0-1.13,0.92-2.05,2.06-2.05c1.13,0,2.05,0.92,2.05,2.05
			c0,1.14-0.92,2.06-2.05,2.06C0.92,72.6,0,71.68,0,70.54z"/>
		<path fill-rule="evenodd" clip-rule="evenodd" fill="#FFFFFF" d="M0,84.24c0-1.13,0.92-2.05,2.06-2.05c1.13,0,2.05,0.92,2.05,2.05
			c0,1.14-0.92,2.06-2.05,2.06C0.92,86.3,0,85.38,0,84.24z"/>
		<path fill-rule="evenodd" clip-rule="evenodd" fill="#FFFFFF" d="M0,97.94c0-1.13,0.92-2.05,2.06-2.05c1.13,0,2.05,0.92,2.05,2.05
			c0,1.14-0.92,2.06-2.05,2.06C0.92,100,0,99.08,0,97.94z"/>
		<path fill-rule="evenodd" clip-rule="evenodd" fill="#FFFFFF" d="M68.49,2.05c0-1.13,0.92-2.05,2.06-2.05
			c1.13,0,2.05,0.92,2.05,2.05c0,1.14-0.92,2.06-2.05,2.06C69.41,4.11,68.49,3.19,68.49,2.05z"/>
		<path fill-rule="evenodd" clip-rule="evenodd" fill="#FFFFFF" d="M68.49,14.75c0-1.13,0.92-2.06,2.06-2.06
			c1.13,0,2.05,0.93,2.05,2.06s-0.92,2.05-2.05,2.05C69.41,16.8,68.49,15.88,68.49,14.75z"/>
		<path fill-rule="evenodd" clip-rule="evenodd" fill="#FFFFFF" d="M68.49,29.45c0-1.14,0.92-2.06,2.06-2.06
			c1.13,0,2.05,0.92,2.05,2.06c0,1.13-0.92,2.05-2.05,2.05C69.41,31.5,68.49,30.58,68.49,29.45z"/>
		<path fill-rule="evenodd" clip-rule="evenodd" fill="#FFFFFF" d="M68.49,43.15c0-1.14,0.92-2.06,2.06-2.06
			c1.13,0,2.05,0.92,2.05,2.06c0,1.13-0.92,2.05-2.05,2.05C69.41,45.2,68.49,44.28,68.49,43.15z"/>
		<path fill-rule="evenodd" clip-rule="evenodd" fill="#FFFFFF" d="M68.49,56.85c0-1.14,0.92-2.06,2.06-2.06
			c1.13,0,2.05,0.92,2.05,2.06c0,1.13-0.92,2.05-2.05,2.05C69.41,58.9,68.49,57.98,68.49,56.85z"/>
		<path fill-rule="evenodd" clip-rule="evenodd" fill="#FFFFFF" d="M68.49,70.54c0-1.13,0.92-2.05,2.06-2.05
			c1.13,0,2.05,0.92,2.05,2.05c0,1.14-0.92,2.06-2.05,2.06C69.41,72.6,68.49,71.68,68.49,70.54z"/>
		<path fill-rule="evenodd" clip-rule="evenodd" fill="#FFFFFF" d="M68.49,84.24c0-1.13,0.92-2.05,2.06-2.05
			c1.13,0,2.05,0.92,2.05,2.05c0,1.14-0.92,2.06-2.05,2.06C69.41,86.3,68.49,85.38,68.49,84.24z"/>
		<path fill-rule="evenodd" clip-rule="evenodd" fill="#FFFFFF" d="M68.49,97.94c0-1.13,0.92-2.05,2.06-2.05
			c1.13,0,2.05,0.92,2.05,2.05c0,1.14-0.92,2.06-2.05,2.06C69.41,100,68.49,99.08,68.49,97.94z"/>
		<path fill-rule="evenodd" clip-rule="evenodd" fill="#FFFFFF" d="M13.7,2.05C13.7,0.92,14.62,0,15.75,0
			c1.14,0,2.06,0.92,2.06,2.05c0,1.14-0.92,2.06-2.06,2.06C14.62,4.11,13.7,3.19,13.7,2.05z"/>
		<path fill-rule="evenodd" clip-rule="evenodd" fill="#FFFFFF" d="M13.7,14.75c0-1.13,0.92-2.06,2.05-2.06
			c1.14,0,2.06,0.93,2.06,2.06s-0.92,2.05-2.06,2.05C14.62,16.8,13.7,15.88,13.7,14.75z"/>
		<path fill-rule="evenodd" clip-rule="evenodd" fill="#FFFFFF" d="M13.7,29.45c0-1.14,0.92-2.06,2.05-2.06
			c1.14,0,2.06,0.92,2.06,2.06c0,1.13-0.92,2.05-2.06,2.05C14.62,31.5,13.7,30.58,13.7,29.45z"/>
		<path fill-rule="evenodd" clip-rule="evenodd" fill="#FFFFFF" d="M13.7,43.15c0-1.14,0.92-2.06,2.05-2.06
			c1.14,0,2.06,0.92,2.06,2.06c0,1.13-0.92,2.05-2.06,2.05C14.62,45.2,13.7,44.28,13.7,43.15z"/>
		<path fill-rule="evenodd" clip-rule="evenodd" fill="#FFFFFF" d="M13.7,56.85c0-1.14,0.92-2.06,2.05-2.06
			c1.14,0,2.06,0.92,2.06,2.06c0,1.13-0.92,2.05-2.06,2.05C14.62,58.9,13.7,57.98,13.7,56.85z"/>
		<path fill-rule="evenodd" clip-rule="evenodd" fill="#FFFFFF" d="M13.7,70.54c0-1.13,0.92-2.05,2.05-2.05
			c1.14,0,2.06,0.92,2.06,2.05c0,1.14-0.92,2.06-2.06,2.06C14.62,72.6,13.7,71.68,13.7,70.54z"/>
		<path fill-rule="evenodd" clip-rule="evenodd" fill="#FFFFFF" d="M13.7,84.24c0-1.13,0.92-2.05,2.05-2.05
			c1.14,0,2.06,0.92,2.06,2.05c0,1.14-0.92,2.06-2.06,2.06C14.62,86.3,13.7,85.38,13.7,84.24z"/>
		<path fill-rule="evenodd" clip-rule="evenodd" fill="#FFFFFF" d="M13.7,97.94c0-1.13,0.92-2.05,2.05-2.05
			c1.14,0,2.06,0.92,2.06,2.05c0,1.14-0.92,2.06-2.06,2.06C14.62,100,13.7,99.08,13.7,97.94z"/>
		<path fill-rule="evenodd" clip-rule="evenodd" fill="#FFFFFF" d="M82.19,2.05c0-1.13,0.92-2.05,2.06-2.05
			c1.13,0,2.05,0.92,2.05,2.05c0,1.14-0.92,2.06-2.05,2.06C83.11,4.11,82.19,3.19,82.19,2.05z"/>
		<path fill-rule="evenodd" clip-rule="evenodd" fill="#FFFFFF" d="M82.19,14.75c0-1.13,0.92-2.06,2.06-2.06
			c1.13,0,2.05,0.93,2.05,2.06s-0.92,2.05-2.05,2.05C83.11,16.8,82.19,15.88,82.19,14.75z"/>
		<path fill-rule="evenodd" clip-rule="evenodd" fill="#FFFFFF" d="M82.19,29.45c0-1.14,0.92-2.06,2.06-2.06
			c1.13,0,2.05,0.92,2.05,2.06c0,1.13-0.92,2.05-2.05,2.05C83.11,31.5,82.19,30.58,82.19,29.45z"/>
		<path fill-rule="evenodd" clip-rule="evenodd" fill="#FFFFFF" d="M82.19,43.15c0-1.14,0.92-2.06,2.06-2.06
			c1.13,0,2.05,0.92,2.05,2.06c0,1.13-0.92,2.05-2.05,2.05C83.11,45.2,82.19,44.28,82.19,43.15z"/>
		<path fill-rule="evenodd" clip-rule="evenodd" fill="#FFFFFF" d="M82.19,56.85c0-1.14,0.92-2.06,2.06-2.06
			c1.13,0,2.05,0.92,2.05,2.06c0,1.13-0.92,2.05-2.05,2.05C83.11,58.9,82.19,57.98,82.19,56.85z"/>
		<path fill-rule="evenodd" clip-rule="evenodd" fill="#FFFFFF" d="M82.19,70.54c0-1.13,0.92-2.05,2.06-2.05
			c1.13,0,2.05,0.92,2.05,2.05c0,1.14-0.92,2.06-2.05,2.06C83.11,72.6,82.19,71.68,82.19,70.54z"/>
		<path fill-rule="evenodd" clip-rule="evenodd" fill="#FFFFFF" d="M82.19,84.24c0-1.13,0.92-2.05,2.06-2.05
			c1.13,0,2.05,0.92,2.05,2.05c0,1.14-0.92,2.06-2.05,2.06C83.11,86.3,82.19,85.38,82.19,84.24z"/>
		<path fill-rule="evenodd" clip-rule="evenodd" fill="#FFFFFF" d="M82.19,97.94c0-1.13,0.92-2.05,2.06-2.05
			c1.13,0,2.05,0.92,2.05,2.05c0,1.14-0.92,2.06-2.05,2.06C83.11,100,82.19,99.08,82.19,97.94z"/>
		<path fill-rule="evenodd" clip-rule="evenodd" fill="#FFFFFF" d="M27.4,2.05C27.4,0.92,28.32,0,29.45,0
			c1.14,0,2.06,0.92,2.06,2.05c0,1.14-0.92,2.06-2.06,2.06C28.32,4.11,27.4,3.19,27.4,2.05z"/>
		<path fill-rule="evenodd" clip-rule="evenodd" fill="#FFFFFF" d="M27.4,14.75c0-1.13,0.92-2.06,2.05-2.06
			c1.14,0,2.06,0.93,2.06,2.06s-0.92,2.05-2.06,2.05C28.32,16.8,27.4,15.88,27.4,14.75z"/>
		<path fill-rule="evenodd" clip-rule="evenodd" fill="#FFFFFF" d="M27.4,29.45c0-1.14,0.92-2.06,2.05-2.06
			c1.14,0,2.06,0.92,2.06,2.06c0,1.13-0.92,2.05-2.06,2.05C28.32,31.5,27.4,30.58,27.4,29.45z"/>
		<path fill-rule="evenodd" clip-rule="evenodd" fill="#FFFFFF" d="M27.4,43.15c0-1.14,0.92-2.06,2.05-2.06
			c1.14,0,2.06,0.92,2.06,2.06c0,1.13-0.92,2.05-2.06,2.05C28.32,45.2,27.4,44.28,27.4,43.15z"/>
		<path fill-rule="evenodd" clip-rule="evenodd" fill="#FFFFFF" d="M27.4,56.85c0-1.14,0.92-2.06,2.05-2.06
			c1.14,0,2.06,0.92,2.06,2.06c0,1.13-0.92,2.05-2.06,2.05C28.32,58.9,27.4,57.98,27.4,56.85z"/>
		<path fill-rule="evenodd" clip-rule="evenodd" fill="#FFFFFF" d="M27.4,70.54c0-1.13,0.92-2.05,2.05-2.05
			c1.14,0,2.06,0.92,2.06,2.05c0,1.14-0.92,2.06-2.06,2.06C28.32,72.6,27.4,71.68,27.4,70.54z"/>
		<path fill-rule="evenodd" clip-rule="evenodd" fill="#FFFFFF" d="M27.4,84.24c0-1.13,0.92-2.05,2.05-2.05
			c1.14,0,2.06,0.92,2.06,2.05c0,1.14-0.92,2.06-2.06,2.06C28.32,86.3,27.4,85.38,27.4,84.24z"/>
		<path fill-rule="evenodd" clip-rule="evenodd" fill="#FFFFFF" d="M27.4,97.94c0-1.13,0.92-2.05,2.05-2.05
			c1.14,0,2.06,0.92,2.06,2.05c0,1.14-0.92,2.06-2.06,2.06C28.32,100,27.4,99.08,27.4,97.94z"/>
		<path fill-rule="evenodd" clip-rule="evenodd" fill="#FFFFFF" d="M95.89,2.05c0-1.13,0.92-2.05,2.06-2.05
			C99.08,0,100,0.92,100,2.05c0,1.14-0.92,2.06-2.05,2.06C96.81,4.11,95.89,3.19,95.89,2.05z"/>
		<path fill-rule="evenodd" clip-rule="evenodd" fill="#FFFFFF" d="M95.89,14.75c0-1.13,0.92-2.06,2.06-2.06
			c1.13,0,2.05,0.93,2.05,2.06s-0.92,2.05-2.05,2.05C96.81,16.8,95.89,15.88,95.89,14.75z"/>
		<path fill-rule="evenodd" clip-rule="evenodd" fill="#FFFFFF" d="M95.89,29.45c0-1.14,0.92-2.06,2.06-2.06
			c1.13,0,2.05,0.92,2.05,2.06c0,1.13-0.92,2.05-2.05,2.05C96.81,31.5,95.89,30.58,95.89,29.45z"/>
		<path fill-rule="evenodd" clip-rule="evenodd" fill="#FFFFFF" d="M95.89,43.15c0-1.14,0.92-2.06,2.06-2.06
			c1.13,0,2.05,0.92,2.05,2.06c0,1.13-0.92,2.05-2.05,2.05C96.81,45.2,95.89,44.28,95.89,43.15z"/>
		<path fill-rule="evenodd" clip-rule="evenodd" fill="#FFFFFF" d="M95.89,56.85c0-1.14,0.92-2.06,2.06-2.06
			c1.13,0,2.05,0.92,2.05,2.06c0,1.13-0.92,2.05-2.05,2.05C96.81,58.9,95.89,57.98,95.89,56.85z"/>
		<path fill-rule="evenodd" clip-rule="evenodd" fill="#FFFFFF" d="M95.89,70.54c0-1.13,0.92-2.05,2.06-2.05
			c1.13,0,2.05,0.92,2.05,2.05c0,1.14-0.92,2.06-2.05,2.06C96.81,72.6,95.89,71.68,95.89,70.54z"/>
		<path fill-rule="evenodd" clip-rule="evenodd" fill="#FFFFFF" d="M95.89,84.24c0-1.13,0.92-2.05,2.06-2.05
			c1.13,0,2.05,0.92,2.05,2.05c0,1.14-0.92,2.06-2.05,2.06C96.81,86.3,95.89,85.38,95.89,84.24z"/>
		<path fill-rule="evenodd" clip-rule="evenodd" fill="#FFFFFF" d="M95.89,97.94c0-1.13,0.92-2.05,2.06-2.05
			c1.13,0,2.05,0.92,2.05,2.05c0,1.14-0.92,2.06-2.05,2.06C96.81,100,95.89,99.08,95.89,97.94z"/>
		<path fill-rule="evenodd" clip-rule="evenodd" fill="#FFFFFF" d="M41.1,2.05C41.1,0.92,42.02,0,43.15,0
			c1.14,0,2.06,0.92,2.06,2.05c0,1.14-0.92,2.06-2.06,2.06C42.02,4.11,41.1,3.19,41.1,2.05z"/>
		<path fill-rule="evenodd" clip-rule="evenodd" fill="#FFFFFF" d="M41.1,14.75c0-1.13,0.92-2.06,2.05-2.06
			c1.14,0,2.06,0.93,2.06,2.06s-0.92,2.05-2.06,2.05C42.02,16.8,41.1,15.88,41.1,14.75z"/>
		<path fill-rule="evenodd" clip-rule="evenodd" fill="#FFFFFF" d="M41.1,29.45c0-1.14,0.92-2.06,2.05-2.06
			c1.14,0,2.06,0.92,2.06,2.06c0,1.13-0.92,2.05-2.06,2.05C42.02,31.5,41.1,30.58,41.1,29.45z"/>
		<path fill-rule="evenodd" clip-rule="evenodd" fill="#FFFFFF" d="M41.1,43.15c0-1.14,0.92-2.06,2.05-2.06
			c1.14,0,2.06,0.92,2.06,2.06c0,1.13-0.92,2.05-2.06,2.05C42.02,45.2,41.1,44.28,41.1,43.15z"/>
		<path fill-rule="evenodd" clip-rule="evenodd" fill="#FFFFFF" d="M41.1,56.85c0-1.14,0.92-2.06,2.05-2.06
			c1.14,0,2.06,0.92,2.06,2.06c0,1.13-0.92,2.05-2.06,2.05C42.02,58.9,41.1,57.98,41.1,56.85z"/>
		<path fill-rule="evenodd" clip-rule="evenodd" fill="#FFFFFF" d="M41.1,70.54c0-1.13,0.92-2.05,2.05-2.05
			c1.14,0,2.06,0.92,2.06,2.05c0,1.14-0.92,2.06-2.06,2.06C42.02,72.6,41.1,71.68,41.1,70.54z"/>
		<path fill-rule="evenodd" clip-rule="evenodd" fill="#FFFFFF" d="M41.1,84.24c0-1.13,0.92-2.05,2.05-2.05
			c1.14,0,2.06,0.92,2.06,2.05c0,1.14-0.92,2.06-2.06,2.06C42.02,86.3,41.1,85.38,41.1,84.24z"/>
		<path fill-rule="evenodd" clip-rule="evenodd" fill="#FFFFFF" d="M41.1,97.94c0-1.13,0.92-2.05,2.05-2.05
			c1.14,0,2.06,0.92,2.06,2.05c0,1.14-0.92,2.06-2.06,2.06C42.02,100,41.1,99.08,41.1,97.94z"/>
		<path fill-rule="evenodd" clip-rule="evenodd" fill="#FFFFFF" d="M54.8,2.05C54.8,0.92,55.71,0,56.85,0
			c1.13,0,2.05,0.92,2.05,2.05c0,1.14-0.92,2.06-2.05,2.06C55.71,4.11,54.8,3.19,54.8,2.05z"/>
		<path fill-rule="evenodd" clip-rule="evenodd" fill="#FFFFFF" d="M54.8,14.75c0-1.13,0.91-2.06,2.05-2.06
			c1.13,0,2.05,0.93,2.05,2.06s-0.92,2.05-2.05,2.05C55.71,16.8,54.8,15.88,54.8,14.75z"/>
		<path fill-rule="evenodd" clip-rule="evenodd" fill="#FFFFFF" d="M54.8,29.45c0-1.14,0.91-2.06,2.05-2.06
			c1.13,0,2.05,0.92,2.05,2.06c0,1.13-0.92,2.05-2.05,2.05C55.71,31.5,54.8,30.58,54.8,29.45z"/>
		<path fill-rule="evenodd" clip-rule="evenodd" fill="#FFFFFF" d="M54.8,43.15c0-1.14,0.91-2.06,2.05-2.06
			c1.13,0,2.05,0.92,2.05,2.06c0,1.13-0.92,2.05-2.05,2.05C55.71,45.2,54.8,44.28,54.8,43.15z"/>
		<path fill-rule="evenodd" clip-rule="evenodd" fill="#FFFFFF" d="M54.8,56.85c0-1.14,0.91-2.06,2.05-2.06
			c1.13,0,2.05,0.92,2.05,2.06c0,1.13-0.92,2.05-2.05,2.05C55.71,58.9,54.8,57.98,54.8,56.85z"/>
		<path fill-rule="evenodd" clip-rule="evenodd" fill="#FFFFFF" d="M54.8,70.54c0-1.13,0.91-2.05,2.05-2.05
			c1.13,0,2.05,0.92,2.05,2.05c0,1.14-0.92,2.06-2.05,2.06C55.71,72.6,54.8,71.68,54.8,70.54z"/>
		<path fill-rule="evenodd" clip-rule="evenodd" fill="#FFFFFF" d="M54.8,84.24c0-1.13,0.91-2.05,2.05-2.05
			c1.13,0,2.05,0.92,2.05,2.05c0,1.14-0.92,2.06-2.05,2.06C55.71,86.3,54.8,85.38,54.8,84.24z"/>
		<path fill-rule="evenodd" clip-rule="evenodd" fill="#FFFFFF" d="M54.8,97.94c0-1.13,0.91-2.05,2.05-2.05
			c1.13,0,2.05,0.92,2.05,2.05c0,1.14-0.92,2.06-2.05,2.06C55.71,100,54.8,99.08,54.8,97.94z"/>
	</g>
	<g>
		<path fill-rule="evenodd" clip-rule="evenodd" fill="#FFFFFF" d="M0,111.05c0-1.13,0.92-2.05,2.06-2.05
			c1.13,0,2.05,0.92,2.05,2.05c0,1.14-0.92,2.06-2.05,2.06C0.92,113.11,0,112.19,0,111.05z"/>
		<path fill-rule="evenodd" clip-rule="evenodd" fill="#FFFFFF" d="M0,123.75c0-1.13,0.92-2.06,2.06-2.06
			c1.13,0,2.05,0.93,2.05,2.06s-0.92,2.05-2.05,2.05C0.92,125.8,0,124.88,0,123.75z"/>
		<path fill-rule="evenodd" clip-rule="evenodd" fill="#FFFFFF" d="M0,138.45c0-1.14,0.92-2.06,2.06-2.06
			c1.13,0,2.05,0.92,2.05,2.06c0,1.13-0.92,2.05-2.05,2.05C0.92,140.5,0,139.58,0,138.45z"/>
		<path fill-rule="evenodd" clip-rule="evenodd" fill="#FFFFFF" d="M0,152.15c0-1.14,0.92-2.06,2.06-2.06
			c1.13,0,2.05,0.92,2.05,2.06c0,1.13-0.92,2.05-2.05,2.05C0.92,154.2,0,153.28,0,152.15z"/>
		<path fill-rule="evenodd" clip-rule="evenodd" fill="#FFFFFF" d="M0,165.85c0-1.14,0.92-2.06,2.06-2.06
			c1.13,0,2.05,0.92,2.05,2.06c0,1.13-0.92,2.05-2.05,2.05C0.92,167.9,0,166.98,0,165.85z"/>
		<path fill-rule="evenodd" clip-rule="evenodd" fill="#FFFFFF" d="M0,179.54c0-1.13,0.92-2.05,2.06-2.05
			c1.13,0,2.05,0.92,2.05,2.05c0,1.14-0.92,2.06-2.05,2.06C0.92,181.6,0,180.68,0,179.54z"/>
		<path fill-rule="evenodd" clip-rule="evenodd" fill="#FFFFFF" d="M0,193.24c0-1.13,0.92-2.05,2.06-2.05
			c1.13,0,2.05,0.92,2.05,2.05c0,1.14-0.92,2.06-2.05,2.06C0.92,195.3,0,194.38,0,193.24z"/>
		<path fill-rule="evenodd" clip-rule="evenodd" fill="#FFFFFF" d="M0,206.94c0-1.13,0.92-2.05,2.06-2.05
			c1.13,0,2.05,0.92,2.05,2.05c0,1.14-0.92,2.06-2.05,2.06C0.92,209,0,208.08,0,206.94z"/>
		<path fill-rule="evenodd" clip-rule="evenodd" fill="#FFFFFF" d="M68.49,111.05c0-1.13,0.92-2.05,2.06-2.05
			c1.13,0,2.05,0.92,2.05,2.05c0,1.14-0.92,2.06-2.05,2.06C69.41,113.11,68.49,112.19,68.49,111.05z"/>
		<path fill-rule="evenodd" clip-rule="evenodd" fill="#FFFFFF" d="M68.49,123.75c0-1.13,0.92-2.06,2.06-2.06
			c1.13,0,2.05,0.93,2.05,2.06s-0.92,2.05-2.05,2.05C69.41,125.8,68.49,124.88,68.49,123.75z"/>
		<path fill-rule="evenodd" clip-rule="evenodd" fill="#FFFFFF" d="M68.49,138.45c0-1.14,0.92-2.06,2.06-2.06
			c1.13,0,2.05,0.92,2.05,2.06c0,1.13-0.92,2.05-2.05,2.05C69.41,140.5,68.49,139.58,68.49,138.45z"/>
		<path fill-rule="evenodd" clip-rule="evenodd" fill="#FFFFFF" d="M68.49,152.15c0-1.14,0.92-2.06,2.06-2.06
			c1.13,0,2.05,0.92,2.05,2.06c0,1.13-0.92,2.05-2.05,2.05C69.41,154.2,68.49,153.28,68.49,152.15z"/>
		<path fill-rule="evenodd" clip-rule="evenodd" fill="#FFFFFF" d="M68.49,165.85c0-1.14,0.92-2.06,2.06-2.06
			c1.13,0,2.05,0.92,2.05,2.06c0,1.13-0.92,2.05-2.05,2.05C69.41,167.9,68.49,166.98,68.49,165.85z"/>
		<path fill-rule="evenodd" clip-rule="evenodd" fill="#FFFFFF" d="M68.49,179.54c0-1.13,0.92-2.05,2.06-2.05
			c1.13,0,2.05,0.92,2.05,2.05c0,1.14-0.92,2.06-2.05,2.06C69.41,181.6,68.49,180.68,68.49,179.54z"/>
		<path fill-rule="evenodd" clip-rule="evenodd" fill="#FFFFFF" d="M68.49,193.24c0-1.13,0.92-2.05,2.06-2.05
			c1.13,0,2.05,0.92,2.05,2.05c0,1.14-0.92,2.06-2.05,2.06C69.41,195.3,68.49,194.38,68.49,193.24z"/>
		<path fill-rule="evenodd" clip-rule="evenodd" fill="#FFFFFF" d="M68.49,206.94c0-1.13,0.92-2.05,2.06-2.05
			c1.13,0,2.05,0.92,2.05,2.05c0,1.14-0.92,2.06-2.05,2.06C69.41,209,68.49,208.08,68.49,206.94z"/>
		<path fill-rule="evenodd" clip-rule="evenodd" fill="#FFFFFF" d="M13.7,111.05c0-1.13,0.92-2.05,2.05-2.05
			c1.14,0,2.06,0.92,2.06,2.05c0,1.14-0.92,2.06-2.06,2.06C14.62,113.11,13.7,112.19,13.7,111.05z"/>
		<path fill-rule="evenodd" clip-rule="evenodd" fill="#FFFFFF" d="M13.7,123.75c0-1.13,0.92-2.06,2.05-2.06
			c1.14,0,2.06,0.93,2.06,2.06s-0.92,2.05-2.06,2.05C14.62,125.8,13.7,124.88,13.7,123.75z"/>
		<path fill-rule="evenodd" clip-rule="evenodd" fill="#FFFFFF" d="M13.7,138.45c0-1.14,0.92-2.06,2.05-2.06
			c1.14,0,2.06,0.92,2.06,2.06c0,1.13-0.92,2.05-2.06,2.05C14.62,140.5,13.7,139.58,13.7,138.45z"/>
		<path fill-rule="evenodd" clip-rule="evenodd" fill="#FFFFFF" d="M13.7,152.15c0-1.14,0.92-2.06,2.05-2.06
			c1.14,0,2.06,0.92,2.06,2.06c0,1.13-0.92,2.05-2.06,2.05C14.62,154.2,13.7,153.28,13.7,152.15z"/>
		<path fill-rule="evenodd" clip-rule="evenodd" fill="#FFFFFF" d="M13.7,165.85c0-1.14,0.92-2.06,2.05-2.06
			c1.14,0,2.06,0.92,2.06,2.06c0,1.13-0.92,2.05-2.06,2.05C14.62,167.9,13.7,166.98,13.7,165.85z"/>
		<path fill-rule="evenodd" clip-rule="evenodd" fill="#FFFFFF" d="M13.7,179.54c0-1.13,0.92-2.05,2.05-2.05
			c1.14,0,2.06,0.92,2.06,2.05c0,1.14-0.92,2.06-2.06,2.06C14.62,181.6,13.7,180.68,13.7,179.54z"/>
		<path fill-rule="evenodd" clip-rule="evenodd" fill="#FFFFFF" d="M13.7,193.24c0-1.13,0.92-2.05,2.05-2.05
			c1.14,0,2.06,0.92,2.06,2.05c0,1.14-0.92,2.06-2.06,2.06C14.62,195.3,13.7,194.38,13.7,193.24z"/>
		<path fill-rule="evenodd" clip-rule="evenodd" fill="#FFFFFF" d="M13.7,206.94c0-1.13,0.92-2.05,2.05-2.05
			c1.14,0,2.06,0.92,2.06,2.05c0,1.14-0.92,2.06-2.06,2.06C14.62,209,13.7,208.08,13.7,206.94z"/>
		<path fill-rule="evenodd" clip-rule="evenodd" fill="#FFFFFF" d="M82.19,111.05c0-1.13,0.92-2.05,2.06-2.05
			c1.13,0,2.05,0.92,2.05,2.05c0,1.14-0.92,2.06-2.05,2.06C83.11,113.11,82.19,112.19,82.19,111.05z"/>
		<path fill-rule="evenodd" clip-rule="evenodd" fill="#FFFFFF" d="M82.19,123.75c0-1.13,0.92-2.06,2.06-2.06
			c1.13,0,2.05,0.93,2.05,2.06s-0.92,2.05-2.05,2.05C83.11,125.8,82.19,124.88,82.19,123.75z"/>
		<path fill-rule="evenodd" clip-rule="evenodd" fill="#FFFFFF" d="M82.19,138.45c0-1.14,0.92-2.06,2.06-2.06
			c1.13,0,2.05,0.92,2.05,2.06c0,1.13-0.92,2.05-2.05,2.05C83.11,140.5,82.19,139.58,82.19,138.45z"/>
		<path fill-rule="evenodd" clip-rule="evenodd" fill="#FFFFFF" d="M82.19,152.15c0-1.14,0.92-2.06,2.06-2.06
			c1.13,0,2.05,0.92,2.05,2.06c0,1.13-0.92,2.05-2.05,2.05C83.11,154.2,82.19,153.28,82.19,152.15z"/>
		<path fill-rule="evenodd" clip-rule="evenodd" fill="#FFFFFF" d="M82.19,165.85c0-1.14,0.92-2.06,2.06-2.06
			c1.13,0,2.05,0.92,2.05,2.06c0,1.13-0.92,2.05-2.05,2.05C83.11,167.9,82.19,166.98,82.19,165.85z"/>
		<path fill-rule="evenodd" clip-rule="evenodd" fill="#FFFFFF" d="M82.19,179.54c0-1.13,0.92-2.05,2.06-2.05
			c1.13,0,2.05,0.92,2.05,2.05c0,1.14-0.92,2.06-2.05,2.06C83.11,181.6,82.19,180.68,82.19,179.54z"/>
		<path fill-rule="evenodd" clip-rule="evenodd" fill="#FFFFFF" d="M82.19,193.24c0-1.13,0.92-2.05,2.06-2.05
			c1.13,0,2.05,0.92,2.05,2.05c0,1.14-0.92,2.06-2.05,2.06C83.11,195.3,82.19,194.38,82.19,193.24z"/>
		<path fill-rule="evenodd" clip-rule="evenodd" fill="#FFFFFF" d="M82.19,206.94c0-1.13,0.92-2.05,2.06-2.05
			c1.13,0,2.05,0.92,2.05,2.05c0,1.14-0.92,2.06-2.05,2.06C83.11,209,82.19,208.08,82.19,206.94z"/>
		<path fill-rule="evenodd" clip-rule="evenodd" fill="#FFFFFF" d="M27.4,111.05c0-1.13,0.92-2.05,2.05-2.05
			c1.14,0,2.06,0.92,2.06,2.05c0,1.14-0.92,2.06-2.06,2.06C28.32,113.11,27.4,112.19,27.4,111.05z"/>
		<path fill-rule="evenodd" clip-rule="evenodd" fill="#FFFFFF" d="M27.4,123.75c0-1.13,0.92-2.06,2.05-2.06
			c1.14,0,2.06,0.93,2.06,2.06s-0.92,2.05-2.06,2.05C28.32,125.8,27.4,124.88,27.4,123.75z"/>
		<path fill-rule="evenodd" clip-rule="evenodd" fill="#FFFFFF" d="M27.4,138.45c0-1.14,0.92-2.06,2.05-2.06
			c1.14,0,2.06,0.92,2.06,2.06c0,1.13-0.92,2.05-2.06,2.05C28.32,140.5,27.4,139.58,27.4,138.45z"/>
		<path fill-rule="evenodd" clip-rule="evenodd" fill="#FFFFFF" d="M27.4,152.15c0-1.14,0.92-2.06,2.05-2.06
			c1.14,0,2.06,0.92,2.06,2.06c0,1.13-0.92,2.05-2.06,2.05C28.32,154.2,27.4,153.28,27.4,152.15z"/>
		<path fill-rule="evenodd" clip-rule="evenodd" fill="#FFFFFF" d="M27.4,165.85c0-1.14,0.92-2.06,2.05-2.06
			c1.14,0,2.06,0.92,2.06,2.06c0,1.13-0.92,2.05-2.06,2.05C28.32,167.9,27.4,166.98,27.4,165.85z"/>
		<path fill-rule="evenodd" clip-rule="evenodd" fill="#FFFFFF" d="M27.4,179.54c0-1.13,0.92-2.05,2.05-2.05
			c1.14,0,2.06,0.92,2.06,2.05c0,1.14-0.92,2.06-2.06,2.06C28.32,181.6,27.4,180.68,27.4,179.54z"/>
		<path fill-rule="evenodd" clip-rule="evenodd" fill="#FFFFFF" d="M27.4,193.24c0-1.13,0.92-2.05,2.05-2.05
			c1.14,0,2.06,0.92,2.06,2.05c0,1.14-0.92,2.06-2.06,2.06C28.32,195.3,27.4,194.38,27.4,193.24z"/>
		<path fill-rule="evenodd" clip-rule="evenodd" fill="#FFFFFF" d="M27.4,206.94c0-1.13,0.92-2.05,2.05-2.05
			c1.14,0,2.06,0.92,2.06,2.05c0,1.14-0.92,2.06-2.06,2.06C28.32,209,27.4,208.08,27.4,206.94z"/>
		<path fill-rule="evenodd" clip-rule="evenodd" fill="#FFFFFF" d="M95.89,111.05c0-1.13,0.92-2.05,2.06-2.05
			c1.13,0,2.05,0.92,2.05,2.05c0,1.14-0.92,2.06-2.05,2.06C96.81,113.11,95.89,112.19,95.89,111.05z"/>
		<path fill-rule="evenodd" clip-rule="evenodd" fill="#FFFFFF" d="M95.89,123.75c0-1.13,0.92-2.06,2.06-2.06
			c1.13,0,2.05,0.93,2.05,2.06s-0.92,2.05-2.05,2.05C96.81,125.8,95.89,124.88,95.89,123.75z"/>
		<path fill-rule="evenodd" clip-rule="evenodd" fill="#FFFFFF" d="M95.89,138.45c0-1.14,0.92-2.06,2.06-2.06
			c1.13,0,2.05,0.92,2.05,2.06c0,1.13-0.92,2.05-2.05,2.05C96.81,140.5,95.89,139.58,95.89,138.45z"/>
		<path fill-rule="evenodd" clip-rule="evenodd" fill="#FFFFFF" d="M95.89,152.15c0-1.14,0.92-2.06,2.06-2.06
			c1.13,0,2.05,0.92,2.05,2.06c0,1.13-0.92,2.05-2.05,2.05C96.81,154.2,95.89,153.28,95.89,152.15z"/>
		<path fill-rule="evenodd" clip-rule="evenodd" fill="#FFFFFF" d="M95.89,165.85c0-1.14,0.92-2.06,2.06-2.06
			c1.13,0,2.05,0.92,2.05,2.06c0,1.13-0.92,2.05-2.05,2.05C96.81,167.9,95.89,166.98,95.89,165.85z"/>
		<path fill-rule="evenodd" clip-rule="evenodd" fill="#FFFFFF" d="M95.89,179.54c0-1.13,0.92-2.05,2.06-2.05
			c1.13,0,2.05,0.92,2.05,2.05c0,1.14-0.92,2.06-2.05,2.06C96.81,181.6,95.89,180.68,95.89,179.54z"/>
		<path fill-rule="evenodd" clip-rule="evenodd" fill="#FFFFFF" d="M95.89,193.24c0-1.13,0.92-2.05,2.06-2.05
			c1.13,0,2.05,0.92,2.05,2.05c0,1.14-0.92,2.06-2.05,2.06C96.81,195.3,95.89,194.38,95.89,193.24z"/>
		<path fill-rule="evenodd" clip-rule="evenodd" fill="#FFFFFF" d="M95.89,206.94c0-1.13,0.92-2.05,2.06-2.05
			c1.13,0,2.05,0.92,2.05,2.05c0,1.14-0.92,2.06-2.05,2.06C96.81,209,95.89,208.08,95.89,206.94z"/>
		<path fill-rule="evenodd" clip-rule="evenodd" fill="#FFFFFF" d="M41.1,111.05c0-1.13,0.92-2.05,2.05-2.05
			c1.14,0,2.06,0.92,2.06,2.05c0,1.14-0.92,2.06-2.06,2.06C42.02,113.11,41.1,112.19,41.1,111.05z"/>
		<path fill-rule="evenodd" clip-rule="evenodd" fill="#FFFFFF" d="M41.1,123.75c0-1.13,0.92-2.06,2.05-2.06
			c1.14,0,2.06,0.93,2.06,2.06s-0.92,2.05-2.06,2.05C42.02,125.8,41.1,124.88,41.1,123.75z"/>
		<path fill-rule="evenodd" clip-rule="evenodd" fill="#FFFFFF" d="M41.1,138.45c0-1.14,0.92-2.06,2.05-2.06
			c1.14,0,2.06,0.92,2.06,2.06c0,1.13-0.92,2.05-2.06,2.05C42.02,140.5,41.1,139.58,41.1,138.45z"/>
		<path fill-rule="evenodd" clip-rule="evenodd" fill="#FFFFFF" d="M41.1,152.15c0-1.14,0.92-2.06,2.05-2.06
			c1.14,0,2.06,0.92,2.06,2.06c0,1.13-0.92,2.05-2.06,2.05C42.02,154.2,41.1,153.28,41.1,152.15z"/>
		<path fill-rule="evenodd" clip-rule="evenodd" fill="#FFFFFF" d="M41.1,165.85c0-1.14,0.92-2.06,2.05-2.06
			c1.14,0,2.06,0.92,2.06,2.06c0,1.13-0.92,2.05-2.06,2.05C42.02,167.9,41.1,166.98,41.1,165.85z"/>
		<path fill-rule="evenodd" clip-rule="evenodd" fill="#FFFFFF" d="M41.1,179.54c0-1.13,0.92-2.05,2.05-2.05
			c1.14,0,2.06,0.92,2.06,2.05c0,1.14-0.92,2.06-2.06,2.06C42.02,181.6,41.1,180.68,41.1,179.54z"/>
		<path fill-rule="evenodd" clip-rule="evenodd" fill="#FFFFFF" d="M41.1,193.24c0-1.13,0.92-2.05,2.05-2.05
			c1.14,0,2.06,0.92,2.06,2.05c0,1.14-0.92,2.06-2.06,2.06C42.02,195.3,41.1,194.38,41.1,193.24z"/>
		<path fill-rule="evenodd" clip-rule="evenodd" fill="#FFFFFF" d="M41.1,206.94c0-1.13,0.92-2.05,2.05-2.05
			c1.14,0,2.06,0.92,2.06,2.05c0,1.14-0.92,2.06-2.06,2.06C42.02,209,41.1,208.08,41.1,206.94z"/>
		<path fill-rule="evenodd" clip-rule="evenodd" fill="#FFFFFF" d="M54.8,111.05c0-1.13,0.91-2.05,2.05-2.05
			c1.13,0,2.05,0.92,2.05,2.05c0,1.14-0.92,2.06-2.05,2.06C55.71,113.11,54.8,112.19,54.8,111.05z"/>
		<path fill-rule="evenodd" clip-rule="evenodd" fill="#FFFFFF" d="M54.8,123.75c0-1.13,0.91-2.06,2.05-2.06
			c1.13,0,2.05,0.93,2.05,2.06s-0.92,2.05-2.05,2.05C55.71,125.8,54.8,124.88,54.8,123.75z"/>
		<path fill-rule="evenodd" clip-rule="evenodd" fill="#FFFFFF" d="M54.8,138.45c0-1.14,0.91-2.06,2.05-2.06
			c1.13,0,2.05,0.92,2.05,2.06c0,1.13-0.92,2.05-2.05,2.05C55.71,140.5,54.8,139.58,54.8,138.45z"/>
		<path fill-rule="evenodd" clip-rule="evenodd" fill="#FFFFFF" d="M54.8,152.15c0-1.14,0.91-2.06,2.05-2.06
			c1.13,0,2.05,0.92,2.05,2.06c0,1.13-0.92,2.05-2.05,2.05C55.71,154.2,54.8,153.28,54.8,152.15z"/>
		<path fill-rule="evenodd" clip-rule="evenodd" fill="#FFFFFF" d="M54.8,165.85c0-1.14,0.91-2.06,2.05-2.06
			c1.13,0,2.05,0.92,2.05,2.06c0,1.13-0.92,2.05-2.05,2.05C55.71,167.9,54.8,166.98,54.8,165.85z"/>
		<path fill-rule="evenodd" clip-rule="evenodd" fill="#FFFFFF" d="M54.8,179.54c0-1.13,0.91-2.05,2.05-2.05
			c1.13,0,2.05,0.92,2.05,2.05c0,1.14-0.92,2.06-2.05,2.06C55.71,181.6,54.8,180.68,54.8,179.54z"/>
		<path fill-rule="evenodd" clip-rule="evenodd" fill="#FFFFFF" d="M54.8,193.24c0-1.13,0.91-2.05,2.05-2.05
			c1.13,0,2.05,0.92,2.05,2.05c0,1.14-0.92,2.06-2.05,2.06C55.71,195.3,54.8,194.38,54.8,193.24z"/>
		<path fill-rule="evenodd" clip-rule="evenodd" fill="#FFFFFF" d="M54.8,206.94c0-1.13,0.91-2.05,2.05-2.05
			c1.13,0,2.05,0.92,2.05,2.05c0,1.14-0.92,2.06-2.05,2.06C55.71,209,54.8,208.08,54.8,206.94z"/>
	</g>
</g>
</svg>
