<?xml version="1.0" encoding="utf-8"?>
<!-- Generator: Adobe Illustrator 16.0.0, SVG Export Plug-In . SVG Version: 6.00 Build 0)  -->
<!DOCTYPE svg PUBLIC "-//W3C//DTD SVG 1.1//EN" "http://www.w3.org/Graphics/SVG/1.1/DTD/svg11.dtd">
<svg version="1.1" id="Layer_1" xmlns="http://www.w3.org/2000/svg" xmlns:xlink="http://www.w3.org/1999/xlink" x="0px" y="0px"
	 width="100px" height="100px" viewBox="0 0 100 100" enable-background="new 0 0 100 100" xml:space="preserve">
<g>
	<g>
		<path fill-rule="evenodd" clip-rule="evenodd" fill="#F81F9F" d="M0,29.45c0-1.14,0.92-2.06,2.06-2.06c1.13,0,2.05,0.92,2.05,2.06
			c0,1.13-0.92,2.05-2.05,2.05C0.92,31.5,0,30.58,0,29.45z"/>
		<path fill-rule="evenodd" clip-rule="evenodd" fill="#F81F9F" d="M0,43.15c0-1.14,0.92-2.06,2.06-2.06c1.13,0,2.05,0.92,2.05,2.06
			c0,1.13-0.92,2.05-2.05,2.05C0.92,45.2,0,44.28,0,43.15z"/>
		<path fill-rule="evenodd" clip-rule="evenodd" fill="#F81F9F" d="M0,56.85c0-1.14,0.92-2.06,2.06-2.06c1.13,0,2.05,0.92,2.05,2.06
			c0,1.13-0.92,2.05-2.05,2.05C0.92,58.9,0,57.98,0,56.85z"/>
		<path fill-rule="evenodd" clip-rule="evenodd" fill="#F81F9F" d="M0,70.54c0-1.13,0.92-2.05,2.06-2.05c1.13,0,2.05,0.92,2.05,2.05
			c0,1.14-0.92,2.06-2.05,2.06C0.92,72.6,0,71.68,0,70.54z"/>
		<path fill-rule="evenodd" clip-rule="evenodd" fill="#F81F9F" d="M0,84.24c0-1.13,0.92-2.05,2.06-2.05c1.13,0,2.05,0.92,2.05,2.05
			c0,1.14-0.92,2.06-2.05,2.06C0.92,86.3,0,85.38,0,84.24z"/>
		<path fill-rule="evenodd" clip-rule="evenodd" fill="#F81F9F" d="M0,97.94c0-1.13,0.92-2.05,2.06-2.05c1.13,0,2.05,0.92,2.05,2.05
			c0,1.14-0.92,2.06-2.05,2.06C0.92,100,0,99.08,0,97.94z"/>
		<path fill-rule="evenodd" clip-rule="evenodd" fill="#F81F9F" d="M68.49,2.05c0-1.13,0.92-2.05,2.06-2.05
			c1.13,0,2.05,0.92,2.05,2.05c0,1.14-0.92,2.06-2.05,2.06C69.41,4.11,68.49,3.19,68.49,2.05z"/>
		<path fill-rule="evenodd" clip-rule="evenodd" fill="#F81F9F" d="M68.49,14.75c0-1.13,0.92-2.06,2.06-2.06
			c1.13,0,2.05,0.93,2.05,2.06s-0.92,2.05-2.05,2.05C69.41,16.8,68.49,15.88,68.49,14.75z"/>
		<path fill-rule="evenodd" clip-rule="evenodd" fill="#F81F9F" d="M68.49,29.45c0-1.14,0.92-2.06,2.06-2.06
			c1.13,0,2.05,0.92,2.05,2.06c0,1.13-0.92,2.05-2.05,2.05C69.41,31.5,68.49,30.58,68.49,29.45z"/>
		<path fill-rule="evenodd" clip-rule="evenodd" fill="#F81F9F" d="M68.49,43.15c0-1.14,0.92-2.06,2.06-2.06
			c1.13,0,2.05,0.92,2.05,2.06c0,1.13-0.92,2.05-2.05,2.05C69.41,45.2,68.49,44.28,68.49,43.15z"/>
		<path fill-rule="evenodd" clip-rule="evenodd" fill="#F81F9F" d="M68.49,56.85c0-1.14,0.92-2.06,2.06-2.06
			c1.13,0,2.05,0.92,2.05,2.06c0,1.13-0.92,2.05-2.05,2.05C69.41,58.9,68.49,57.98,68.49,56.85z"/>
		<path fill-rule="evenodd" clip-rule="evenodd" fill="#F81F9F" d="M68.49,70.54c0-1.13,0.92-2.05,2.06-2.05
			c1.13,0,2.05,0.92,2.05,2.05c0,1.14-0.92,2.06-2.05,2.06C69.41,72.6,68.49,71.68,68.49,70.54z"/>
		<path fill-rule="evenodd" clip-rule="evenodd" fill="#F81F9F" d="M68.49,84.24c0-1.13,0.92-2.05,2.06-2.05
			c1.13,0,2.05,0.92,2.05,2.05c0,1.14-0.92,2.06-2.05,2.06C69.41,86.3,68.49,85.38,68.49,84.24z"/>
		<path fill-rule="evenodd" clip-rule="evenodd" fill="#F81F9F" d="M68.49,97.94c0-1.13,0.92-2.05,2.06-2.05
			c1.13,0,2.05,0.92,2.05,2.05c0,1.14-0.92,2.06-2.05,2.06C69.41,100,68.49,99.08,68.49,97.94z"/>
		<path fill-rule="evenodd" clip-rule="evenodd" fill="#F81F9F" d="M13.7,2.05C13.7,0.92,14.62,0,15.75,0
			c1.14,0,2.06,0.92,2.06,2.05c0,1.14-0.92,2.06-2.06,2.06C14.62,4.11,13.7,3.19,13.7,2.05z"/>
		<path fill-rule="evenodd" clip-rule="evenodd" fill="#F81F9F" d="M13.7,14.75c0-1.13,0.92-2.06,2.05-2.06
			c1.14,0,2.06,0.93,2.06,2.06s-0.92,2.05-2.06,2.05C14.62,16.8,13.7,15.88,13.7,14.75z"/>
		<path fill-rule="evenodd" clip-rule="evenodd" fill="#F81F9F" d="M13.7,29.45c0-1.14,0.92-2.06,2.05-2.06
			c1.14,0,2.06,0.92,2.06,2.06c0,1.13-0.92,2.05-2.06,2.05C14.62,31.5,13.7,30.58,13.7,29.45z"/>
		<path fill-rule="evenodd" clip-rule="evenodd" fill="#F81F9F" d="M13.7,43.15c0-1.14,0.92-2.06,2.05-2.06
			c1.14,0,2.06,0.92,2.06,2.06c0,1.13-0.92,2.05-2.06,2.05C14.62,45.2,13.7,44.28,13.7,43.15z"/>
		<path fill-rule="evenodd" clip-rule="evenodd" fill="#F81F9F" d="M13.7,56.85c0-1.14,0.92-2.06,2.05-2.06
			c1.14,0,2.06,0.92,2.06,2.06c0,1.13-0.92,2.05-2.06,2.05C14.62,58.9,13.7,57.98,13.7,56.85z"/>
		<path fill-rule="evenodd" clip-rule="evenodd" fill="#F81F9F" d="M13.7,70.54c0-1.13,0.92-2.05,2.05-2.05
			c1.14,0,2.06,0.92,2.06,2.05c0,1.14-0.92,2.06-2.06,2.06C14.62,72.6,13.7,71.68,13.7,70.54z"/>
		<path fill-rule="evenodd" clip-rule="evenodd" fill="#F81F9F" d="M13.7,84.24c0-1.13,0.92-2.05,2.05-2.05
			c1.14,0,2.06,0.92,2.06,2.05c0,1.14-0.92,2.06-2.06,2.06C14.62,86.3,13.7,85.38,13.7,84.24z"/>
		<path fill-rule="evenodd" clip-rule="evenodd" fill="#F81F9F" d="M13.7,97.94c0-1.13,0.92-2.05,2.05-2.05
			c1.14,0,2.06,0.92,2.06,2.05c0,1.14-0.92,2.06-2.06,2.06C14.62,100,13.7,99.08,13.7,97.94z"/>
		<path fill-rule="evenodd" clip-rule="evenodd" fill="#F81F9F" d="M82.19,2.05c0-1.13,0.92-2.05,2.06-2.05
			c1.13,0,2.05,0.92,2.05,2.05c0,1.14-0.92,2.06-2.05,2.06C83.11,4.11,82.19,3.19,82.19,2.05z"/>
		<path fill-rule="evenodd" clip-rule="evenodd" fill="#F81F9F" d="M82.19,14.75c0-1.13,0.92-2.06,2.06-2.06
			c1.13,0,2.05,0.93,2.05,2.06s-0.92,2.05-2.05,2.05C83.11,16.8,82.19,15.88,82.19,14.75z"/>
		<path fill-rule="evenodd" clip-rule="evenodd" fill="#F81F9F" d="M82.19,29.45c0-1.14,0.92-2.06,2.06-2.06
			c1.13,0,2.05,0.92,2.05,2.06c0,1.13-0.92,2.05-2.05,2.05C83.11,31.5,82.19,30.58,82.19,29.45z"/>
		<path fill-rule="evenodd" clip-rule="evenodd" fill="#F81F9F" d="M82.19,43.15c0-1.14,0.92-2.06,2.06-2.06
			c1.13,0,2.05,0.92,2.05,2.06c0,1.13-0.92,2.05-2.05,2.05C83.11,45.2,82.19,44.28,82.19,43.15z"/>
		<path fill-rule="evenodd" clip-rule="evenodd" fill="#F81F9F" d="M82.19,56.85c0-1.14,0.92-2.06,2.06-2.06
			c1.13,0,2.05,0.92,2.05,2.06c0,1.13-0.92,2.05-2.05,2.05C83.11,58.9,82.19,57.98,82.19,56.85z"/>
		<path fill-rule="evenodd" clip-rule="evenodd" fill="#F81F9F" d="M82.19,70.54c0-1.13,0.92-2.05,2.06-2.05
			c1.13,0,2.05,0.92,2.05,2.05c0,1.14-0.92,2.06-2.05,2.06C83.11,72.6,82.19,71.68,82.19,70.54z"/>
		<path fill-rule="evenodd" clip-rule="evenodd" fill="#F81F9F" d="M82.19,84.24c0-1.13,0.92-2.05,2.06-2.05
			c1.13,0,2.05,0.92,2.05,2.05c0,1.14-0.92,2.06-2.05,2.06C83.11,86.3,82.19,85.38,82.19,84.24z"/>
		<path fill-rule="evenodd" clip-rule="evenodd" fill="#F81F9F" d="M27.4,2.05C27.4,0.92,28.32,0,29.45,0
			c1.14,0,2.06,0.92,2.06,2.05c0,1.14-0.92,2.06-2.06,2.06C28.32,4.11,27.4,3.19,27.4,2.05z"/>
		<path fill-rule="evenodd" clip-rule="evenodd" fill="#F81F9F" d="M27.4,14.75c0-1.13,0.92-2.06,2.05-2.06
			c1.14,0,2.06,0.93,2.06,2.06s-0.92,2.05-2.06,2.05C28.32,16.8,27.4,15.88,27.4,14.75z"/>
		<path fill-rule="evenodd" clip-rule="evenodd" fill="#F81F9F" d="M27.4,29.45c0-1.14,0.92-2.06,2.05-2.06
			c1.14,0,2.06,0.92,2.06,2.06c0,1.13-0.92,2.05-2.06,2.05C28.32,31.5,27.4,30.58,27.4,29.45z"/>
		<path fill-rule="evenodd" clip-rule="evenodd" fill="#F81F9F" d="M27.4,43.15c0-1.14,0.92-2.06,2.05-2.06
			c1.14,0,2.06,0.92,2.06,2.06c0,1.13-0.92,2.05-2.06,2.05C28.32,45.2,27.4,44.28,27.4,43.15z"/>
		<path fill-rule="evenodd" clip-rule="evenodd" fill="#F81F9F" d="M27.4,56.85c0-1.14,0.92-2.06,2.05-2.06
			c1.14,0,2.06,0.92,2.06,2.06c0,1.13-0.92,2.05-2.06,2.05C28.32,58.9,27.4,57.98,27.4,56.85z"/>
		<path fill-rule="evenodd" clip-rule="evenodd" fill="#F81F9F" d="M27.4,70.54c0-1.13,0.92-2.05,2.05-2.05
			c1.14,0,2.06,0.92,2.06,2.05c0,1.14-0.92,2.06-2.06,2.06C28.32,72.6,27.4,71.68,27.4,70.54z"/>
		<path fill-rule="evenodd" clip-rule="evenodd" fill="#F81F9F" d="M27.4,84.24c0-1.13,0.92-2.05,2.05-2.05
			c1.14,0,2.06,0.92,2.06,2.05c0,1.14-0.92,2.06-2.06,2.06C28.32,86.3,27.4,85.38,27.4,84.24z"/>
		<path fill-rule="evenodd" clip-rule="evenodd" fill="#F81F9F" d="M27.4,97.94c0-1.13,0.92-2.05,2.05-2.05
			c1.14,0,2.06,0.92,2.06,2.05c0,1.14-0.92,2.06-2.06,2.06C28.32,100,27.4,99.08,27.4,97.94z"/>
		<path fill-rule="evenodd" clip-rule="evenodd" fill="#F81F9F" d="M95.89,2.05c0-1.13,0.92-2.05,2.06-2.05
			C99.08,0,100,0.92,100,2.05c0,1.14-0.92,2.06-2.05,2.06C96.81,4.11,95.89,3.19,95.89,2.05z"/>
		<path fill-rule="evenodd" clip-rule="evenodd" fill="#F81F9F" d="M95.89,14.75c0-1.13,0.92-2.06,2.06-2.06
			c1.13,0,2.05,0.93,2.05,2.06s-0.92,2.05-2.05,2.05C96.81,16.8,95.89,15.88,95.89,14.75z"/>
		<path fill-rule="evenodd" clip-rule="evenodd" fill="#F81F9F" d="M95.89,29.45c0-1.14,0.92-2.06,2.06-2.06
			c1.13,0,2.05,0.92,2.05,2.06c0,1.13-0.92,2.05-2.05,2.05C96.81,31.5,95.89,30.58,95.89,29.45z"/>
		<path fill-rule="evenodd" clip-rule="evenodd" fill="#F81F9F" d="M95.89,43.15c0-1.14,0.92-2.06,2.06-2.06
			c1.13,0,2.05,0.92,2.05,2.06c0,1.13-0.92,2.05-2.05,2.05C96.81,45.2,95.89,44.28,95.89,43.15z"/>
		<path fill-rule="evenodd" clip-rule="evenodd" fill="#F81F9F" d="M95.89,56.85c0-1.14,0.92-2.06,2.06-2.06
			c1.13,0,2.05,0.92,2.05,2.06c0,1.13-0.92,2.05-2.05,2.05C96.81,58.9,95.89,57.98,95.89,56.85z"/>
		<path fill-rule="evenodd" clip-rule="evenodd" fill="#F81F9F" d="M95.89,70.54c0-1.13,0.92-2.05,2.06-2.05
			c1.13,0,2.05,0.92,2.05,2.05c0,1.14-0.92,2.06-2.05,2.06C96.81,72.6,95.89,71.68,95.89,70.54z"/>
		<path fill-rule="evenodd" clip-rule="evenodd" fill="#F81F9F" d="M95.89,84.24c0-1.13,0.92-2.05,2.06-2.05
			c1.13,0,2.05,0.92,2.05,2.05c0,1.14-0.92,2.06-2.05,2.06C96.81,86.3,95.89,85.38,95.89,84.24z"/>
		<path fill-rule="evenodd" clip-rule="evenodd" fill="#F81F9F" d="M41.1,2.05C41.1,0.92,42.02,0,43.15,0
			c1.14,0,2.06,0.92,2.06,2.05c0,1.14-0.92,2.06-2.06,2.06C42.02,4.11,41.1,3.19,41.1,2.05z"/>
		<path fill-rule="evenodd" clip-rule="evenodd" fill="#F81F9F" d="M41.1,14.75c0-1.13,0.92-2.06,2.05-2.06
			c1.14,0,2.06,0.93,2.06,2.06s-0.92,2.05-2.06,2.05C42.02,16.8,41.1,15.88,41.1,14.75z"/>
		<path fill-rule="evenodd" clip-rule="evenodd" fill="#F81F9F" d="M41.1,29.45c0-1.14,0.92-2.06,2.05-2.06
			c1.14,0,2.06,0.92,2.06,2.06c0,1.13-0.92,2.05-2.06,2.05C42.02,31.5,41.1,30.58,41.1,29.45z"/>
		<path fill-rule="evenodd" clip-rule="evenodd" fill="#F81F9F" d="M41.1,43.15c0-1.14,0.92-2.06,2.05-2.06
			c1.14,0,2.06,0.92,2.06,2.06c0,1.13-0.92,2.05-2.06,2.05C42.02,45.2,41.1,44.28,41.1,43.15z"/>
		<path fill-rule="evenodd" clip-rule="evenodd" fill="#F81F9F" d="M41.1,56.85c0-1.14,0.92-2.06,2.05-2.06
			c1.14,0,2.06,0.92,2.06,2.06c0,1.13-0.92,2.05-2.06,2.05C42.02,58.9,41.1,57.98,41.1,56.85z"/>
		<path fill-rule="evenodd" clip-rule="evenodd" fill="#F81F9F" d="M41.1,70.54c0-1.13,0.92-2.05,2.05-2.05
			c1.14,0,2.06,0.92,2.06,2.05c0,1.14-0.92,2.06-2.06,2.06C42.02,72.6,41.1,71.68,41.1,70.54z"/>
		<path fill-rule="evenodd" clip-rule="evenodd" fill="#F81F9F" d="M41.1,84.24c0-1.13,0.92-2.05,2.05-2.05
			c1.14,0,2.06,0.92,2.06,2.05c0,1.14-0.92,2.06-2.06,2.06C42.02,86.3,41.1,85.38,41.1,84.24z"/>
		<path fill-rule="evenodd" clip-rule="evenodd" fill="#F81F9F" d="M41.1,97.94c0-1.13,0.92-2.05,2.05-2.05
			c1.14,0,2.06,0.92,2.06,2.05c0,1.14-0.92,2.06-2.06,2.06C42.02,100,41.1,99.08,41.1,97.94z"/>
		<path fill-rule="evenodd" clip-rule="evenodd" fill="#F81F9F" d="M54.8,2.05C54.8,0.92,55.71,0,56.85,0
			c1.13,0,2.05,0.92,2.05,2.05c0,1.14-0.92,2.06-2.05,2.06C55.71,4.11,54.8,3.19,54.8,2.05z"/>
		<path fill-rule="evenodd" clip-rule="evenodd" fill="#F81F9F" d="M54.8,14.75c0-1.13,0.91-2.06,2.05-2.06
			c1.13,0,2.05,0.93,2.05,2.06s-0.92,2.05-2.05,2.05C55.71,16.8,54.8,15.88,54.8,14.75z"/>
		<path fill-rule="evenodd" clip-rule="evenodd" fill="#F81F9F" d="M54.8,29.45c0-1.14,0.91-2.06,2.05-2.06
			c1.13,0,2.05,0.92,2.05,2.06c0,1.13-0.92,2.05-2.05,2.05C55.71,31.5,54.8,30.58,54.8,29.45z"/>
		<path fill-rule="evenodd" clip-rule="evenodd" fill="#F81F9F" d="M54.8,43.15c0-1.14,0.91-2.06,2.05-2.06
			c1.13,0,2.05,0.92,2.05,2.06c0,1.13-0.92,2.05-2.05,2.05C55.71,45.2,54.8,44.28,54.8,43.15z"/>
		<path fill-rule="evenodd" clip-rule="evenodd" fill="#F81F9F" d="M54.8,56.85c0-1.14,0.91-2.06,2.05-2.06
			c1.13,0,2.05,0.92,2.05,2.06c0,1.13-0.92,2.05-2.05,2.05C55.71,58.9,54.8,57.98,54.8,56.85z"/>
		<path fill-rule="evenodd" clip-rule="evenodd" fill="#F81F9F" d="M54.8,70.54c0-1.13,0.91-2.05,2.05-2.05
			c1.13,0,2.05,0.92,2.05,2.05c0,1.14-0.92,2.06-2.05,2.06C55.71,72.6,54.8,71.68,54.8,70.54z"/>
		<path fill-rule="evenodd" clip-rule="evenodd" fill="#F81F9F" d="M54.8,84.24c0-1.13,0.91-2.05,2.05-2.05
			c1.13,0,2.05,0.92,2.05,2.05c0,1.14-0.92,2.06-2.05,2.06C55.71,86.3,54.8,85.38,54.8,84.24z"/>
		<path fill-rule="evenodd" clip-rule="evenodd" fill="#F81F9F" d="M54.8,97.94c0-1.13,0.91-2.05,2.05-2.05
			c1.13,0,2.05,0.92,2.05,2.05c0,1.14-0.92,2.06-2.05,2.06C55.71,100,54.8,99.08,54.8,97.94z"/>
	</g>
</g>
</svg>
