<?xml version="1.0" encoding="utf-8"?>
<!-- Generator: Adobe Illustrator 25.0.0, SVG Export Plug-In . SVG Version: 6.00 Build 0)  -->
<svg version="1.1" id="Layer_1" xmlns="http://www.w3.org/2000/svg" xmlns:xlink="http://www.w3.org/1999/xlink" x="0px" y="0px"
	 width="426px" height="142px" viewBox="0 0 426 142" style="enable-background:new 0 0 426 142;" xml:space="preserve">
<style type="text/css">
	.st0{fill-rule:evenodd;clip-rule:evenodd;fill:#FFFFFF;}
</style>
<g>
	<g>
		<g>
			<path class="st0" d="M218,44c0-1.1,0.9-2,2.1-2c1.1,0,2.1,0.9,2.1,2c0,1.1-0.9,2.1-2.1,2.1C218.9,46.1,218,45.2,218,44z"/>
			<path class="st0" d="M218,2c0-1.1,0.9-2,2.1-2c1.1,0,2.1,0.9,2.1,2c0,1.1-0.9,2.1-2.1,2.1C218.9,4.1,218,3.2,218,2z"/>
			<path class="st0" d="M218,57.8c0-1.1,0.9-2.1,2.1-2.1c1.1,0,2.1,0.9,2.1,2.1s-0.9,2-2.1,2C218.9,59.8,218,58.9,218,57.8z"/>
			<path class="st0" d="M218,15.8c0-1.1,0.9-2.1,2.1-2.1c1.1,0,2.1,0.9,2.1,2.1s-0.9,2-2.1,2C218.9,17.8,218,16.9,218,15.8z"/>
			<path class="st0" d="M218,71.4c0-1.1,0.9-2.1,2.1-2.1c1.1,0,2.1,0.9,2.1,2.1c0,1.1-0.9,2.1-2.1,2.1C218.9,73.5,218,72.6,218,71.4
				z"/>
			<path class="st0" d="M218,29.5c0-1.1,0.9-2.1,2.1-2.1c1.1,0,2.1,0.9,2.1,2.1c0,1.1-0.9,2-2.1,2C218.9,31.5,218,30.6,218,29.5z"/>
			<path class="st0" d="M218,85.2c0-1.1,0.9-2.1,2.1-2.1c1.1,0,2.1,0.9,2.1,2.1c0,1.1-0.9,2-2.1,2C218.9,87.2,218,86.3,218,85.2z"/>
			<path class="st0" d="M218,98.8c0-1.1,0.9-2.1,2.1-2.1c1.1,0,2.1,0.9,2.1,2.1c0,1.1-0.9,2.1-2.1,2.1C218.9,100.9,218,100,218,98.8
				z"/>
			<path class="st0" d="M218,112.5c0-1.1,0.9-2.1,2.1-2.1c1.1,0,2.1,0.9,2.1,2.1c0,1.1-0.9,2.1-2.1,2.1
				C218.9,114.6,218,113.7,218,112.5z"/>
			<path class="st0" d="M218,126.2c0-1.1,0.9-2,2.1-2c1.1,0,2.1,0.9,2.1,2c0,1.1-0.9,2.1-2.1,2.1C218.9,128.3,218,127.4,218,126.2z"
				/>
			<path class="st0" d="M218,139.9c0-1.1,0.9-2.1,2.1-2.1c1.1,0,2.1,0.9,2.1,2.1c0,1.1-0.9,2.1-2.1,2.1
				C218.9,142,218,141.1,218,139.9z"/>
			<path class="st0" d="M285.5,44c0-1.1,0.9-2,2.1-2c1.1,0,2.1,0.9,2.1,2c0,1.1-0.9,2.1-2.1,2.1C286.4,46.1,285.5,45.2,285.5,44z"/>
			<path class="st0" d="M285.5,2c0-1.1,0.9-2,2.1-2c1.1,0,2.1,0.9,2.1,2c0,1.1-0.9,2.1-2.1,2.1C286.4,4.1,285.5,3.2,285.5,2z"/>
			<path class="st0" d="M285.5,57.8c0-1.1,0.9-2.1,2.1-2.1c1.1,0,2.1,0.9,2.1,2.1s-0.9,2-2.1,2C286.4,59.8,285.5,58.9,285.5,57.8z"
				/>
			<path class="st0" d="M285.5,15.8c0-1.1,0.9-2.1,2.1-2.1c1.1,0,2.1,0.9,2.1,2.1s-0.9,2-2.1,2C286.4,17.8,285.5,16.9,285.5,15.8z"
				/>
			<path class="st0" d="M285.5,71.4c0-1.1,0.9-2.1,2.1-2.1c1.1,0,2.1,0.9,2.1,2.1c0,1.1-0.9,2.1-2.1,2.1
				C286.4,73.5,285.5,72.6,285.5,71.4z"/>
			<path class="st0" d="M285.5,29.5c0-1.1,0.9-2.1,2.1-2.1c1.1,0,2.1,0.9,2.1,2.1c0,1.1-0.9,2-2.1,2
				C286.4,31.5,285.5,30.6,285.5,29.5z"/>
			<path class="st0" d="M285.5,85.2c0-1.1,0.9-2.1,2.1-2.1c1.1,0,2.1,0.9,2.1,2.1c0,1.1-0.9,2-2.1,2
				C286.4,87.2,285.5,86.3,285.5,85.2z"/>
			<path class="st0" d="M285.5,98.8c0-1.1,0.9-2.1,2.1-2.1c1.1,0,2.1,0.9,2.1,2.1c0,1.1-0.9,2.1-2.1,2.1
				C286.4,100.9,285.5,100,285.5,98.8z"/>
			<path class="st0" d="M285.5,112.5c0-1.1,0.9-2.1,2.1-2.1c1.1,0,2.1,0.9,2.1,2.1c0,1.1-0.9,2.1-2.1,2.1
				C286.4,114.6,285.5,113.7,285.5,112.5z"/>
			<path class="st0" d="M285.5,126.2c0-1.1,0.9-2,2.1-2c1.1,0,2.1,0.9,2.1,2c0,1.1-0.9,2.1-2.1,2.1
				C286.4,128.3,285.5,127.4,285.5,126.2z"/>
			<path class="st0" d="M285.5,139.9c0-1.1,0.9-2.1,2.1-2.1c1.1,0,2.1,0.9,2.1,2.1c0,1.1-0.9,2.1-2.1,2.1
				C286.4,142,285.5,141.1,285.5,139.9z"/>
			<path class="st0" d="M231.7,44c0-1.1,0.9-2,2.1-2c1.1,0,2.1,0.9,2.1,2c0,1.1-0.9,2.1-2.1,2.1C232.6,46.1,231.7,45.2,231.7,44z"/>
			<path class="st0" d="M231.7,2c0-1.1,0.9-2,2.1-2c1.1,0,2.1,0.9,2.1,2c0,1.1-0.9,2.1-2.1,2.1C232.6,4.1,231.7,3.2,231.7,2z"/>
			<path class="st0" d="M231.7,57.8c0-1.1,0.9-2.1,2.1-2.1c1.1,0,2.1,0.9,2.1,2.1s-0.9,2-2.1,2C232.6,59.8,231.7,58.9,231.7,57.8z"
				/>
			<path class="st0" d="M231.7,15.8c0-1.1,0.9-2.1,2.1-2.1c1.1,0,2.1,0.9,2.1,2.1s-0.9,2-2.1,2C232.6,17.8,231.7,16.9,231.7,15.8z"
				/>
			<path class="st0" d="M231.7,71.4c0-1.1,0.9-2.1,2.1-2.1c1.1,0,2.1,0.9,2.1,2.1c0,1.1-0.9,2.1-2.1,2.1
				C232.6,73.5,231.7,72.6,231.7,71.4z"/>
			<path class="st0" d="M231.7,29.5c0-1.1,0.9-2.1,2.1-2.1c1.1,0,2.1,0.9,2.1,2.1c0,1.1-0.9,2-2.1,2
				C232.6,31.5,231.7,30.6,231.7,29.5z"/>
			<path class="st0" d="M231.7,85.2c0-1.1,0.9-2.1,2.1-2.1c1.1,0,2.1,0.9,2.1,2.1c0,1.1-0.9,2-2.1,2
				C232.6,87.2,231.7,86.3,231.7,85.2z"/>
			<path class="st0" d="M231.7,98.8c0-1.1,0.9-2.1,2.1-2.1c1.1,0,2.1,0.9,2.1,2.1c0,1.1-0.9,2.1-2.1,2.1
				C232.6,100.9,231.7,100,231.7,98.8z"/>
			<path class="st0" d="M231.7,112.5c0-1.1,0.9-2.1,2.1-2.1c1.1,0,2.1,0.9,2.1,2.1c0,1.1-0.9,2.1-2.1,2.1
				C232.6,114.6,231.7,113.7,231.7,112.5z"/>
			<path class="st0" d="M231.7,126.2c0-1.1,0.9-2,2.1-2c1.1,0,2.1,0.9,2.1,2c0,1.1-0.9,2.1-2.1,2.1
				C232.6,128.3,231.7,127.4,231.7,126.2z"/>
			<path class="st0" d="M231.7,139.9c0-1.1,0.9-2.1,2.1-2.1c1.1,0,2.1,0.9,2.1,2.1c0,1.1-0.9,2.1-2.1,2.1
				C232.6,142,231.7,141.1,231.7,139.9z"/>
			<path class="st0" d="M300.2,44c0-1.1,0.9-2,2.1-2c1.1,0,2,0.9,2,2c0,1.1-0.9,2.1-2,2.1C301.1,46.1,300.2,45.2,300.2,44z"/>
			<path class="st0" d="M300.2,2c0-1.1,0.9-2,2.1-2c1.1,0,2,0.9,2,2c0,1.1-0.9,2.1-2,2.1C301.1,4.1,300.2,3.2,300.2,2z"/>
			<path class="st0" d="M300.2,57.8c0-1.1,0.9-2.1,2.1-2.1c1.1,0,2,0.9,2,2.1s-0.9,2-2,2C301.1,59.8,300.2,58.9,300.2,57.8z"/>
			<path class="st0" d="M300.2,15.8c0-1.1,0.9-2.1,2.1-2.1c1.1,0,2,0.9,2,2.1s-0.9,2-2,2C301.1,17.8,300.2,16.9,300.2,15.8z"/>
			<path class="st0" d="M300.2,71.4c0-1.1,0.9-2.1,2.1-2.1c1.1,0,2,0.9,2,2.1c0,1.1-0.9,2.1-2,2.1C301.1,73.5,300.2,72.6,300.2,71.4
				z"/>
			<path class="st0" d="M300.2,29.5c0-1.1,0.9-2.1,2.1-2.1c1.1,0,2,0.9,2,2.1c0,1.1-0.9,2-2,2C301.1,31.5,300.2,30.6,300.2,29.5z"/>
			<path class="st0" d="M300.2,85.2c0-1.1,0.9-2.1,2.1-2.1c1.1,0,2,0.9,2,2.1c0,1.1-0.9,2-2,2C301.1,87.2,300.2,86.3,300.2,85.2z"/>
			<path class="st0" d="M300.2,98.8c0-1.1,0.9-2.1,2.1-2.1c1.1,0,2,0.9,2,2.1c0,1.1-0.9,2.1-2,2.1C301.1,100.9,300.2,100,300.2,98.8
				z"/>
			<path class="st0" d="M300.2,112.5c0-1.1,0.9-2.1,2.1-2.1c1.1,0,2,0.9,2,2.1c0,1.1-0.9,2.1-2,2.1
				C301.1,114.6,300.2,113.7,300.2,112.5z"/>
			<path class="st0" d="M300.2,126.2c0-1.1,0.9-2,2.1-2c1.1,0,2,0.9,2,2c0,1.1-0.9,2.1-2,2.1C301.1,128.3,300.2,127.4,300.2,126.2z"
				/>
			<path class="st0" d="M300.2,139.9c0-1.1,0.9-2.1,2.1-2.1c1.1,0,2,0.9,2,2.1c0,1.1-0.9,2.1-2,2.1
				C301.1,142,300.2,141.1,300.2,139.9z"/>
			<path class="st0" d="M244.4,44c0-1.1,0.9-2,2.1-2c1.1,0,2.1,0.9,2.1,2c0,1.1-0.9,2.1-2.1,2.1C245.3,46.1,244.4,45.2,244.4,44z"/>
			<path class="st0" d="M244.4,2c0-1.1,0.9-2,2.1-2c1.1,0,2.1,0.9,2.1,2c0,1.1-0.9,2.1-2.1,2.1C245.3,4.1,244.4,3.2,244.4,2z"/>
			<path class="st0" d="M244.4,57.8c0-1.1,0.9-2.1,2.1-2.1c1.1,0,2.1,0.9,2.1,2.1s-0.9,2-2.1,2C245.3,59.8,244.4,58.9,244.4,57.8z"
				/>
			<path class="st0" d="M244.4,15.8c0-1.1,0.9-2.1,2.1-2.1c1.1,0,2.1,0.9,2.1,2.1s-0.9,2-2.1,2C245.3,17.8,244.4,16.9,244.4,15.8z"
				/>
			<path class="st0" d="M244.4,71.4c0-1.1,0.9-2.1,2.1-2.1c1.1,0,2.1,0.9,2.1,2.1c0,1.1-0.9,2.1-2.1,2.1
				C245.3,73.5,244.4,72.6,244.4,71.4z"/>
			<path class="st0" d="M244.4,29.5c0-1.1,0.9-2.1,2.1-2.1c1.1,0,2.1,0.9,2.1,2.1c0,1.1-0.9,2-2.1,2
				C245.3,31.5,244.4,30.6,244.4,29.5z"/>
			<path class="st0" d="M244.4,85.2c0-1.1,0.9-2.1,2.1-2.1c1.1,0,2.1,0.9,2.1,2.1c0,1.1-0.9,2-2.1,2
				C245.3,87.2,244.4,86.3,244.4,85.2z"/>
			<path class="st0" d="M244.4,98.8c0-1.1,0.9-2.1,2.1-2.1c1.1,0,2.1,0.9,2.1,2.1c0,1.1-0.9,2.1-2.1,2.1
				C245.3,100.9,244.4,100,244.4,98.8z"/>
			<path class="st0" d="M244.4,112.5c0-1.1,0.9-2.1,2.1-2.1c1.1,0,2.1,0.9,2.1,2.1c0,1.1-0.9,2.1-2.1,2.1
				C245.3,114.6,244.4,113.7,244.4,112.5z"/>
			<path class="st0" d="M244.4,126.2c0-1.1,0.9-2,2.1-2c1.1,0,2.1,0.9,2.1,2c0,1.1-0.9,2.1-2.1,2.1
				C245.3,128.3,244.4,127.4,244.4,126.2z"/>
			<path class="st0" d="M244.4,139.9c0-1.1,0.9-2.1,2.1-2.1c1.1,0,2.1,0.9,2.1,2.1c0,1.1-0.9,2.1-2.1,2.1
				C245.3,142,244.4,141.1,244.4,139.9z"/>
			<path class="st0" d="M312.9,44c0-1.1,0.9-2,2.1-2c1.1,0,2,0.9,2,2c0,1.1-0.9,2.1-2,2.1C313.8,46.1,312.9,45.2,312.9,44z"/>
			<path class="st0" d="M312.9,2c0-1.1,0.9-2,2.1-2c1.1,0,2,0.9,2,2c0,1.1-0.9,2.1-2,2.1C313.8,4.1,312.9,3.2,312.9,2z"/>
			<path class="st0" d="M312.9,57.8c0-1.1,0.9-2.1,2.1-2.1c1.1,0,2,0.9,2,2.1s-0.9,2-2,2C313.8,59.8,312.9,58.9,312.9,57.8z"/>
			<path class="st0" d="M312.9,15.8c0-1.1,0.9-2.1,2.1-2.1c1.1,0,2,0.9,2,2.1s-0.9,2-2,2C313.8,17.8,312.9,16.9,312.9,15.8z"/>
			<path class="st0" d="M312.9,71.4c0-1.1,0.9-2.1,2.1-2.1c1.1,0,2,0.9,2,2.1c0,1.1-0.9,2.1-2,2.1C313.8,73.5,312.9,72.6,312.9,71.4
				z"/>
			<path class="st0" d="M312.9,29.5c0-1.1,0.9-2.1,2.1-2.1c1.1,0,2,0.9,2,2.1c0,1.1-0.9,2-2,2C313.8,31.5,312.9,30.6,312.9,29.5z"/>
			<path class="st0" d="M312.9,85.2c0-1.1,0.9-2.1,2.1-2.1c1.1,0,2,0.9,2,2.1c0,1.1-0.9,2-2,2C313.8,87.2,312.9,86.3,312.9,85.2z"/>
			<path class="st0" d="M312.9,98.8c0-1.1,0.9-2.1,2.1-2.1c1.1,0,2,0.9,2,2.1c0,1.1-0.9,2.1-2,2.1C313.8,100.9,312.9,100,312.9,98.8
				z"/>
			<path class="st0" d="M312.9,112.5c0-1.1,0.9-2.1,2.1-2.1c1.1,0,2,0.9,2,2.1c0,1.1-0.9,2.1-2,2.1
				C313.8,114.6,312.9,113.7,312.9,112.5z"/>
			<path class="st0" d="M312.9,126.2c0-1.1,0.9-2,2.1-2c1.1,0,2,0.9,2,2c0,1.1-0.9,2.1-2,2.1C313.8,128.3,312.9,127.4,312.9,126.2z"
				/>
			<path class="st0" d="M312.9,139.9c0-1.1,0.9-2.1,2.1-2.1c1.1,0,2,0.9,2,2.1c0,1.1-0.9,2.1-2,2.1
				C313.8,142,312.9,141.1,312.9,139.9z"/>
			<path class="st0" d="M259.1,44c0-1.1,0.9-2,2-2c1.1,0,2.1,0.9,2.1,2c0,1.1-0.9,2.1-2.1,2.1C260,46.1,259.1,45.2,259.1,44z"/>
			<path class="st0" d="M259.1,2c0-1.1,0.9-2,2-2c1.1,0,2.1,0.9,2.1,2c0,1.1-0.9,2.1-2.1,2.1C260,4.1,259.1,3.2,259.1,2z"/>
			<path class="st0" d="M259.1,57.8c0-1.1,0.9-2.1,2-2.1c1.1,0,2.1,0.9,2.1,2.1s-0.9,2-2.1,2C260,59.8,259.1,58.9,259.1,57.8z"/>
			<path class="st0" d="M259.1,15.8c0-1.1,0.9-2.1,2-2.1c1.1,0,2.1,0.9,2.1,2.1s-0.9,2-2.1,2C260,17.8,259.1,16.9,259.1,15.8z"/>
			<path class="st0" d="M259.1,71.4c0-1.1,0.9-2.1,2-2.1c1.1,0,2.1,0.9,2.1,2.1c0,1.1-0.9,2.1-2.1,2.1
				C260,73.5,259.1,72.6,259.1,71.4z"/>
			<path class="st0" d="M259.1,29.5c0-1.1,0.9-2.1,2-2.1c1.1,0,2.1,0.9,2.1,2.1c0,1.1-0.9,2-2.1,2C260,31.5,259.1,30.6,259.1,29.5z"
				/>
			<path class="st0" d="M259.1,85.2c0-1.1,0.9-2.1,2-2.1c1.1,0,2.1,0.9,2.1,2.1c0,1.1-0.9,2-2.1,2C260,87.2,259.1,86.3,259.1,85.2z"
				/>
			<path class="st0" d="M259.1,98.8c0-1.1,0.9-2.1,2-2.1c1.1,0,2.1,0.9,2.1,2.1c0,1.1-0.9,2.1-2.1,2.1
				C260,100.9,259.1,100,259.1,98.8z"/>
			<path class="st0" d="M259.1,112.5c0-1.1,0.9-2.1,2-2.1c1.1,0,2.1,0.9,2.1,2.1c0,1.1-0.9,2.1-2.1,2.1
				C260,114.6,259.1,113.7,259.1,112.5z"/>
			<path class="st0" d="M259.1,126.2c0-1.1,0.9-2,2-2c1.1,0,2.1,0.9,2.1,2c0,1.1-0.9,2.1-2.1,2.1C260,128.3,259.1,127.4,259.1,126.2
				z"/>
			<path class="st0" d="M259.1,139.9c0-1.1,0.9-2.1,2-2.1c1.1,0,2.1,0.9,2.1,2.1c0,1.1-0.9,2.1-2.1,2.1
				C260,142,259.1,141.1,259.1,139.9z"/>
			<path class="st0" d="M272.8,44c0-1.1,0.9-2,2.1-2c1.1,0,2,0.9,2,2c0,1.1-0.9,2.1-2,2.1C273.7,46.1,272.8,45.2,272.8,44z"/>
			<path class="st0" d="M272.8,2c0-1.1,0.9-2,2.1-2c1.1,0,2,0.9,2,2c0,1.1-0.9,2.1-2,2.1C273.7,4.1,272.8,3.2,272.8,2z"/>
			<path class="st0" d="M272.8,57.8c0-1.1,0.9-2.1,2.1-2.1c1.1,0,2,0.9,2,2.1s-0.9,2-2,2C273.7,59.8,272.8,58.9,272.8,57.8z"/>
			<path class="st0" d="M272.8,15.8c0-1.1,0.9-2.1,2.1-2.1c1.1,0,2,0.9,2,2.1s-0.9,2-2,2C273.7,17.8,272.8,16.9,272.8,15.8z"/>
			<path class="st0" d="M272.8,71.4c0-1.1,0.9-2.1,2.1-2.1c1.1,0,2,0.9,2,2.1c0,1.1-0.9,2.1-2,2.1C273.7,73.5,272.8,72.6,272.8,71.4
				z"/>
			<path class="st0" d="M272.8,29.5c0-1.1,0.9-2.1,2.1-2.1c1.1,0,2,0.9,2,2.1c0,1.1-0.9,2-2,2C273.7,31.5,272.8,30.6,272.8,29.5z"/>
			<path class="st0" d="M272.8,85.2c0-1.1,0.9-2.1,2.1-2.1c1.1,0,2,0.9,2,2.1c0,1.1-0.9,2-2,2C273.7,87.2,272.8,86.3,272.8,85.2z"/>
			<path class="st0" d="M272.8,98.8c0-1.1,0.9-2.1,2.1-2.1c1.1,0,2,0.9,2,2.1c0,1.1-0.9,2.1-2,2.1C273.7,100.9,272.8,100,272.8,98.8
				z"/>
			<path class="st0" d="M272.8,112.5c0-1.1,0.9-2.1,2.1-2.1c1.1,0,2,0.9,2,2.1c0,1.1-0.9,2.1-2,2.1
				C273.7,114.6,272.8,113.7,272.8,112.5z"/>
			<path class="st0" d="M272.8,126.2c0-1.1,0.9-2,2.1-2c1.1,0,2,0.9,2,2c0,1.1-0.9,2.1-2,2.1C273.7,128.3,272.8,127.4,272.8,126.2z"
				/>
			<path class="st0" d="M272.8,139.9c0-1.1,0.9-2.1,2.1-2.1c1.1,0,2,0.9,2,2.1c0,1.1-0.9,2.1-2,2.1
				C273.7,142,272.8,141.1,272.8,139.9z"/>
		</g>
		<g>
			<path class="st0" d="M327,44c0-1.1,0.9-2,2.1-2c1.1,0,2,0.9,2,2c0,1.1-0.9,2.1-2,2.1C327.9,46.1,327,45.2,327,44z"/>
			<path class="st0" d="M327,2c0-1.1,0.9-2,2.1-2c1.1,0,2,0.9,2,2c0,1.1-0.9,2.1-2,2.1C327.9,4.1,327,3.2,327,2z"/>
			<path class="st0" d="M327,57.8c0-1.1,0.9-2.1,2.1-2.1c1.1,0,2,0.9,2,2.1s-0.9,2-2,2C327.9,59.8,327,58.9,327,57.8z"/>
			<path class="st0" d="M327,15.8c0-1.1,0.9-2.1,2.1-2.1c1.1,0,2,0.9,2,2.1s-0.9,2-2,2C327.9,17.8,327,16.9,327,15.8z"/>
			<path class="st0" d="M327,71.4c0-1.1,0.9-2.1,2.1-2.1c1.1,0,2,0.9,2,2.1c0,1.1-0.9,2.1-2,2.1C327.9,73.5,327,72.6,327,71.4z"/>
			<path class="st0" d="M327,29.5c0-1.1,0.9-2.1,2.1-2.1c1.1,0,2,0.9,2,2.1c0,1.1-0.9,2-2,2C327.9,31.5,327,30.6,327,29.5z"/>
			<path class="st0" d="M327,85.2c0-1.1,0.9-2.1,2.1-2.1c1.1,0,2,0.9,2,2.1c0,1.1-0.9,2-2,2C327.9,87.2,327,86.3,327,85.2z"/>
			<path class="st0" d="M327,98.8c0-1.1,0.9-2.1,2.1-2.1c1.1,0,2,0.9,2,2.1c0,1.1-0.9,2.1-2,2.1C327.9,100.9,327,100,327,98.8z"/>
			<path class="st0" d="M327,112.5c0-1.1,0.9-2.1,2.1-2.1c1.1,0,2,0.9,2,2.1c0,1.1-0.9,2.1-2,2.1C327.9,114.6,327,113.7,327,112.5z"
				/>
			<path class="st0" d="M327,126.2c0-1.1,0.9-2,2.1-2c1.1,0,2,0.9,2,2c0,1.1-0.9,2.1-2,2.1C327.9,128.3,327,127.4,327,126.2z"/>
			<path class="st0" d="M327,139.9c0-1.1,0.9-2.1,2.1-2.1c1.1,0,2,0.9,2,2.1c0,1.1-0.9,2.1-2,2.1C327.9,142,327,141.1,327,139.9z"/>
			<path class="st0" d="M394.5,44c0-1.1,0.9-2,2.1-2c1.1,0,2.1,0.9,2.1,2c0,1.1-0.9,2.1-2.1,2.1C395.4,46.1,394.5,45.2,394.5,44z"/>
			<path class="st0" d="M394.5,2c0-1.1,0.9-2,2.1-2c1.1,0,2.1,0.9,2.1,2c0,1.1-0.9,2.1-2.1,2.1C395.4,4.1,394.5,3.2,394.5,2z"/>
			<path class="st0" d="M394.5,57.8c0-1.1,0.9-2.1,2.1-2.1c1.1,0,2.1,0.9,2.1,2.1s-0.9,2-2.1,2C395.4,59.8,394.5,58.9,394.5,57.8z"
				/>
			<path class="st0" d="M394.5,15.8c0-1.1,0.9-2.1,2.1-2.1c1.1,0,2.1,0.9,2.1,2.1s-0.9,2-2.1,2C395.4,17.8,394.5,16.9,394.5,15.8z"
				/>
			<path class="st0" d="M394.5,71.4c0-1.1,0.9-2.1,2.1-2.1c1.1,0,2.1,0.9,2.1,2.1c0,1.1-0.9,2.1-2.1,2.1
				C395.4,73.5,394.5,72.6,394.5,71.4z"/>
			<path class="st0" d="M394.5,29.5c0-1.1,0.9-2.1,2.1-2.1c1.1,0,2.1,0.9,2.1,2.1c0,1.1-0.9,2-2.1,2
				C395.4,31.5,394.5,30.6,394.5,29.5z"/>
			<path class="st0" d="M394.5,85.2c0-1.1,0.9-2.1,2.1-2.1c1.1,0,2.1,0.9,2.1,2.1c0,1.1-0.9,2-2.1,2
				C395.4,87.2,394.5,86.3,394.5,85.2z"/>
			<path class="st0" d="M394.5,98.8c0-1.1,0.9-2.1,2.1-2.1c1.1,0,2.1,0.9,2.1,2.1c0,1.1-0.9,2.1-2.1,2.1
				C395.4,100.9,394.5,100,394.5,98.8z"/>
			<path class="st0" d="M394.5,112.5c0-1.1,0.9-2.1,2.1-2.1c1.1,0,2.1,0.9,2.1,2.1c0,1.1-0.9,2.1-2.1,2.1
				C395.4,114.6,394.5,113.7,394.5,112.5z"/>
			<path class="st0" d="M394.5,126.2c0-1.1,0.9-2,2.1-2c1.1,0,2.1,0.9,2.1,2c0,1.1-0.9,2.1-2.1,2.1
				C395.4,128.3,394.5,127.4,394.5,126.2z"/>
			<path class="st0" d="M394.5,139.9c0-1.1,0.9-2.1,2.1-2.1c1.1,0,2.1,0.9,2.1,2.1c0,1.1-0.9,2.1-2.1,2.1
				C395.4,142,394.5,141.1,394.5,139.9z"/>
			<path class="st0" d="M340.7,44c0-1.1,0.9-2,2-2c1.1,0,2.1,0.9,2.1,2c0,1.1-0.9,2.1-2.1,2.1C341.6,46.1,340.7,45.2,340.7,44z"/>
			<path class="st0" d="M340.7,2c0-1.1,0.9-2,2-2c1.1,0,2.1,0.9,2.1,2c0,1.1-0.9,2.1-2.1,2.1C341.6,4.1,340.7,3.2,340.7,2z"/>
			<path class="st0" d="M340.7,57.8c0-1.1,0.9-2.1,2-2.1c1.1,0,2.1,0.9,2.1,2.1s-0.9,2-2.1,2C341.6,59.8,340.7,58.9,340.7,57.8z"/>
			<path class="st0" d="M340.7,15.8c0-1.1,0.9-2.1,2-2.1c1.1,0,2.1,0.9,2.1,2.1s-0.9,2-2.1,2C341.6,17.8,340.7,16.9,340.7,15.8z"/>
			<path class="st0" d="M340.7,71.4c0-1.1,0.9-2.1,2-2.1c1.1,0,2.1,0.9,2.1,2.1c0,1.1-0.9,2.1-2.1,2.1
				C341.6,73.5,340.7,72.6,340.7,71.4z"/>
			<path class="st0" d="M340.7,29.5c0-1.1,0.9-2.1,2-2.1c1.1,0,2.1,0.9,2.1,2.1c0,1.1-0.9,2-2.1,2C341.6,31.5,340.7,30.6,340.7,29.5
				z"/>
			<path class="st0" d="M340.7,85.2c0-1.1,0.9-2.1,2-2.1c1.1,0,2.1,0.9,2.1,2.1c0,1.1-0.9,2-2.1,2C341.6,87.2,340.7,86.3,340.7,85.2
				z"/>
			<path class="st0" d="M340.7,98.8c0-1.1,0.9-2.1,2-2.1c1.1,0,2.1,0.9,2.1,2.1c0,1.1-0.9,2.1-2.1,2.1
				C341.6,100.9,340.7,100,340.7,98.8z"/>
			<path class="st0" d="M340.7,112.5c0-1.1,0.9-2.1,2-2.1c1.1,0,2.1,0.9,2.1,2.1c0,1.1-0.9,2.1-2.1,2.1
				C341.6,114.6,340.7,113.7,340.7,112.5z"/>
			<path class="st0" d="M340.7,126.2c0-1.1,0.9-2,2-2c1.1,0,2.1,0.9,2.1,2c0,1.1-0.9,2.1-2.1,2.1
				C341.6,128.3,340.7,127.4,340.7,126.2z"/>
			<path class="st0" d="M340.7,139.9c0-1.1,0.9-2.1,2-2.1c1.1,0,2.1,0.9,2.1,2.1c0,1.1-0.9,2.1-2.1,2.1
				C341.6,142,340.7,141.1,340.7,139.9z"/>
			<path class="st0" d="M409.2,44c0-1.1,0.9-2,2.1-2c1.1,0,2,0.9,2,2c0,1.1-0.9,2.1-2,2.1C410.1,46.1,409.2,45.2,409.2,44z"/>
			<path class="st0" d="M409.2,2c0-1.1,0.9-2,2.1-2c1.1,0,2,0.9,2,2c0,1.1-0.9,2.1-2,2.1C410.1,4.1,409.2,3.2,409.2,2z"/>
			<path class="st0" d="M409.2,57.8c0-1.1,0.9-2.1,2.1-2.1c1.1,0,2,0.9,2,2.1s-0.9,2-2,2C410.1,59.8,409.2,58.9,409.2,57.8z"/>
			<path class="st0" d="M409.2,15.8c0-1.1,0.9-2.1,2.1-2.1c1.1,0,2,0.9,2,2.1s-0.9,2-2,2C410.1,17.8,409.2,16.9,409.2,15.8z"/>
			<path class="st0" d="M409.2,71.4c0-1.1,0.9-2.1,2.1-2.1c1.1,0,2,0.9,2,2.1c0,1.1-0.9,2.1-2,2.1C410.1,73.5,409.2,72.6,409.2,71.4
				z"/>
			<path class="st0" d="M409.2,29.5c0-1.1,0.9-2.1,2.1-2.1c1.1,0,2,0.9,2,2.1c0,1.1-0.9,2-2,2C410.1,31.5,409.2,30.6,409.2,29.5z"/>
			<path class="st0" d="M409.2,85.2c0-1.1,0.9-2.1,2.1-2.1c1.1,0,2,0.9,2,2.1c0,1.1-0.9,2-2,2C410.1,87.2,409.2,86.3,409.2,85.2z"/>
			<path class="st0" d="M409.2,98.8c0-1.1,0.9-2.1,2.1-2.1c1.1,0,2,0.9,2,2.1c0,1.1-0.9,2.1-2,2.1C410.1,100.9,409.2,100,409.2,98.8
				z"/>
			<path class="st0" d="M409.2,112.5c0-1.1,0.9-2.1,2.1-2.1c1.1,0,2,0.9,2,2.1c0,1.1-0.9,2.1-2,2.1
				C410.1,114.6,409.2,113.7,409.2,112.5z"/>
			<path class="st0" d="M409.2,126.2c0-1.1,0.9-2,2.1-2c1.1,0,2,0.9,2,2c0,1.1-0.9,2.1-2,2.1C410.1,128.3,409.2,127.4,409.2,126.2z"
				/>
			<path class="st0" d="M409.2,139.9c0-1.1,0.9-2.1,2.1-2.1c1.1,0,2,0.9,2,2.1c0,1.1-0.9,2.1-2,2.1
				C410.1,142,409.2,141.1,409.2,139.9z"/>
			<path class="st0" d="M353.4,44c0-1.1,0.9-2,2.1-2c1.1,0,2.1,0.9,2.1,2c0,1.1-0.9,2.1-2.1,2.1C354.3,46.1,353.4,45.2,353.4,44z"/>
			<path class="st0" d="M353.4,2c0-1.1,0.9-2,2.1-2c1.1,0,2.1,0.9,2.1,2c0,1.1-0.9,2.1-2.1,2.1C354.3,4.1,353.4,3.2,353.4,2z"/>
			<path class="st0" d="M353.4,57.8c0-1.1,0.9-2.1,2.1-2.1c1.1,0,2.1,0.9,2.1,2.1s-0.9,2-2.1,2C354.3,59.8,353.4,58.9,353.4,57.8z"
				/>
			<path class="st0" d="M353.4,15.8c0-1.1,0.9-2.1,2.1-2.1c1.1,0,2.1,0.9,2.1,2.1s-0.9,2-2.1,2C354.3,17.8,353.4,16.9,353.4,15.8z"
				/>
			<path class="st0" d="M353.4,71.4c0-1.1,0.9-2.1,2.1-2.1c1.1,0,2.1,0.9,2.1,2.1c0,1.1-0.9,2.1-2.1,2.1
				C354.3,73.5,353.4,72.6,353.4,71.4z"/>
			<path class="st0" d="M353.4,29.5c0-1.1,0.9-2.1,2.1-2.1c1.1,0,2.1,0.9,2.1,2.1c0,1.1-0.9,2-2.1,2
				C354.3,31.5,353.4,30.6,353.4,29.5z"/>
			<path class="st0" d="M353.4,85.2c0-1.1,0.9-2.1,2.1-2.1c1.1,0,2.1,0.9,2.1,2.1c0,1.1-0.9,2-2.1,2
				C354.3,87.2,353.4,86.3,353.4,85.2z"/>
			<path class="st0" d="M353.4,98.8c0-1.1,0.9-2.1,2.1-2.1c1.1,0,2.1,0.9,2.1,2.1c0,1.1-0.9,2.1-2.1,2.1
				C354.3,100.9,353.4,100,353.4,98.8z"/>
			<path class="st0" d="M353.4,112.5c0-1.1,0.9-2.1,2.1-2.1c1.1,0,2.1,0.9,2.1,2.1c0,1.1-0.9,2.1-2.1,2.1
				C354.3,114.6,353.4,113.7,353.4,112.5z"/>
			<path class="st0" d="M353.4,126.2c0-1.1,0.9-2,2.1-2c1.1,0,2.1,0.9,2.1,2c0,1.1-0.9,2.1-2.1,2.1
				C354.3,128.3,353.4,127.4,353.4,126.2z"/>
			<path class="st0" d="M353.4,139.9c0-1.1,0.9-2.1,2.1-2.1c1.1,0,2.1,0.9,2.1,2.1c0,1.1-0.9,2.1-2.1,2.1
				C354.3,142,353.4,141.1,353.4,139.9z"/>
			<path class="st0" d="M421.9,44c0-1.1,0.9-2,2.1-2c1.1,0,2,0.9,2,2c0,1.1-0.9,2.1-2,2.1C422.8,46.1,421.9,45.2,421.9,44z"/>
			<path class="st0" d="M421.9,2c0-1.1,0.9-2,2.1-2c1.1,0,2,0.9,2,2c0,1.1-0.9,2.1-2,2.1C422.8,4.1,421.9,3.2,421.9,2z"/>
			<path class="st0" d="M421.9,57.8c0-1.1,0.9-2.1,2.1-2.1c1.1,0,2,0.9,2,2.1s-0.9,2-2,2C422.8,59.8,421.9,58.9,421.9,57.8z"/>
			<path class="st0" d="M421.9,15.8c0-1.1,0.9-2.1,2.1-2.1c1.1,0,2,0.9,2,2.1s-0.9,2-2,2C422.8,17.8,421.9,16.9,421.9,15.8z"/>
			<path class="st0" d="M421.9,71.4c0-1.1,0.9-2.1,2.1-2.1c1.1,0,2,0.9,2,2.1c0,1.1-0.9,2.1-2,2.1C422.8,73.5,421.9,72.6,421.9,71.4
				z"/>
			<path class="st0" d="M421.9,29.5c0-1.1,0.9-2.1,2.1-2.1c1.1,0,2,0.9,2,2.1c0,1.1-0.9,2-2,2C422.8,31.5,421.9,30.6,421.9,29.5z"/>
			<path class="st0" d="M421.9,85.2c0-1.1,0.9-2.1,2.1-2.1c1.1,0,2,0.9,2,2.1c0,1.1-0.9,2-2,2C422.8,87.2,421.9,86.3,421.9,85.2z"/>
			<path class="st0" d="M421.9,98.8c0-1.1,0.9-2.1,2.1-2.1c1.1,0,2,0.9,2,2.1c0,1.1-0.9,2.1-2,2.1C422.8,100.9,421.9,100,421.9,98.8
				z"/>
			<path class="st0" d="M421.9,112.5c0-1.1,0.9-2.1,2.1-2.1c1.1,0,2,0.9,2,2.1c0,1.1-0.9,2.1-2,2.1
				C422.8,114.6,421.9,113.7,421.9,112.5z"/>
			<path class="st0" d="M421.9,126.2c0-1.1,0.9-2,2.1-2c1.1,0,2,0.9,2,2c0,1.1-0.9,2.1-2,2.1C422.8,128.3,421.9,127.4,421.9,126.2z"
				/>
			<path class="st0" d="M421.9,139.9c0-1.1,0.9-2.1,2.1-2.1c1.1,0,2,0.9,2,2.1c0,1.1-0.9,2.1-2,2.1
				C422.8,142,421.9,141.1,421.9,139.9z"/>
			<path class="st0" d="M368.1,44c0-1.1,0.9-2,2-2c1.1,0,2.1,0.9,2.1,2c0,1.1-0.9,2.1-2.1,2.1C369,46.1,368.1,45.2,368.1,44z"/>
			<path class="st0" d="M368.1,2c0-1.1,0.9-2,2-2c1.1,0,2.1,0.9,2.1,2c0,1.1-0.9,2.1-2.1,2.1C369,4.1,368.1,3.2,368.1,2z"/>
			<path class="st0" d="M368.1,57.8c0-1.1,0.9-2.1,2-2.1c1.1,0,2.1,0.9,2.1,2.1s-0.9,2-2.1,2C369,59.8,368.1,58.9,368.1,57.8z"/>
			<path class="st0" d="M368.1,15.8c0-1.1,0.9-2.1,2-2.1c1.1,0,2.1,0.9,2.1,2.1s-0.9,2-2.1,2C369,17.8,368.1,16.9,368.1,15.8z"/>
			<path class="st0" d="M368.1,71.4c0-1.1,0.9-2.1,2-2.1c1.1,0,2.1,0.9,2.1,2.1c0,1.1-0.9,2.1-2.1,2.1
				C369,73.5,368.1,72.6,368.1,71.4z"/>
			<path class="st0" d="M368.1,29.5c0-1.1,0.9-2.1,2-2.1c1.1,0,2.1,0.9,2.1,2.1c0,1.1-0.9,2-2.1,2C369,31.5,368.1,30.6,368.1,29.5z"
				/>
			<path class="st0" d="M368.1,85.2c0-1.1,0.9-2.1,2-2.1c1.1,0,2.1,0.9,2.1,2.1c0,1.1-0.9,2-2.1,2C369,87.2,368.1,86.3,368.1,85.2z"
				/>
			<path class="st0" d="M368.1,98.8c0-1.1,0.9-2.1,2-2.1c1.1,0,2.1,0.9,2.1,2.1c0,1.1-0.9,2.1-2.1,2.1
				C369,100.9,368.1,100,368.1,98.8z"/>
			<path class="st0" d="M368.1,112.5c0-1.1,0.9-2.1,2-2.1c1.1,0,2.1,0.9,2.1,2.1c0,1.1-0.9,2.1-2.1,2.1
				C369,114.6,368.1,113.7,368.1,112.5z"/>
			<path class="st0" d="M368.1,126.2c0-1.1,0.9-2,2-2c1.1,0,2.1,0.9,2.1,2c0,1.1-0.9,2.1-2.1,2.1C369,128.3,368.1,127.4,368.1,126.2
				z"/>
			<path class="st0" d="M368.1,139.9c0-1.1,0.9-2.1,2-2.1c1.1,0,2.1,0.9,2.1,2.1c0,1.1-0.9,2.1-2.1,2.1
				C369,142,368.1,141.1,368.1,139.9z"/>
			<path class="st0" d="M381.8,44c0-1.1,0.9-2,2.1-2c1.1,0,2,0.9,2,2c0,1.1-0.9,2.1-2,2.1C382.7,46.1,381.8,45.2,381.8,44z"/>
			<path class="st0" d="M381.8,2c0-1.1,0.9-2,2.1-2c1.1,0,2,0.9,2,2c0,1.1-0.9,2.1-2,2.1C382.7,4.1,381.8,3.2,381.8,2z"/>
			<path class="st0" d="M381.8,57.8c0-1.1,0.9-2.1,2.1-2.1c1.1,0,2,0.9,2,2.1s-0.9,2-2,2C382.7,59.8,381.8,58.9,381.8,57.8z"/>
			<path class="st0" d="M381.8,15.8c0-1.1,0.9-2.1,2.1-2.1c1.1,0,2,0.9,2,2.1s-0.9,2-2,2C382.7,17.8,381.8,16.9,381.8,15.8z"/>
			<path class="st0" d="M381.8,71.4c0-1.1,0.9-2.1,2.1-2.1c1.1,0,2,0.9,2,2.1c0,1.1-0.9,2.1-2,2.1C382.7,73.5,381.8,72.6,381.8,71.4
				z"/>
			<path class="st0" d="M381.8,29.5c0-1.1,0.9-2.1,2.1-2.1c1.1,0,2,0.9,2,2.1c0,1.1-0.9,2-2,2C382.7,31.5,381.8,30.6,381.8,29.5z"/>
			<path class="st0" d="M381.8,85.2c0-1.1,0.9-2.1,2.1-2.1c1.1,0,2,0.9,2,2.1c0,1.1-0.9,2-2,2C382.7,87.2,381.8,86.3,381.8,85.2z"/>
			<path class="st0" d="M381.8,98.8c0-1.1,0.9-2.1,2.1-2.1c1.1,0,2,0.9,2,2.1c0,1.1-0.9,2.1-2,2.1C382.7,100.9,381.8,100,381.8,98.8
				z"/>
			<path class="st0" d="M381.8,112.5c0-1.1,0.9-2.1,2.1-2.1c1.1,0,2,0.9,2,2.1c0,1.1-0.9,2.1-2,2.1
				C382.7,114.6,381.8,113.7,381.8,112.5z"/>
			<path class="st0" d="M381.8,126.2c0-1.1,0.9-2,2.1-2c1.1,0,2,0.9,2,2c0,1.1-0.9,2.1-2,2.1C382.7,128.3,381.8,127.4,381.8,126.2z"
				/>
			<path class="st0" d="M381.8,139.9c0-1.1,0.9-2.1,2.1-2.1c1.1,0,2,0.9,2,2.1c0,1.1-0.9,2.1-2,2.1
				C382.7,142,381.8,141.1,381.8,139.9z"/>
		</g>
	</g>
	<g>
		<g>
			<path class="st0" d="M0,44c0-1.1,0.9-2,2.1-2c1.1,0,2.1,0.9,2.1,2c0,1.1-0.9,2.1-2.1,2.1C0.9,46.1,0,45.2,0,44z"/>
			<path class="st0" d="M0,2c0-1.1,0.9-2,2.1-2c1.1,0,2.1,0.9,2.1,2c0,1.1-0.9,2.1-2.1,2.1C0.9,4.1,0,3.2,0,2z"/>
			<path class="st0" d="M0,57.8c0-1.1,0.9-2.1,2.1-2.1c1.1,0,2.1,0.9,2.1,2.1s-0.9,2-2.1,2C0.9,59.8,0,58.9,0,57.8z"/>
			<path class="st0" d="M0,15.8c0-1.1,0.9-2.1,2.1-2.1c1.1,0,2.1,0.9,2.1,2.1s-0.9,2-2.1,2C0.9,17.8,0,16.9,0,15.8z"/>
			<path class="st0" d="M0,71.4c0-1.1,0.9-2.1,2.1-2.1c1.1,0,2.1,0.9,2.1,2.1c0,1.1-0.9,2.1-2.1,2.1C0.9,73.5,0,72.6,0,71.4z"/>
			<path class="st0" d="M0,29.5c0-1.1,0.9-2.1,2.1-2.1c1.1,0,2.1,0.9,2.1,2.1c0,1.1-0.9,2-2.1,2C0.9,31.5,0,30.6,0,29.5z"/>
			<path class="st0" d="M0,85.2c0-1.1,0.9-2.1,2.1-2.1c1.1,0,2.1,0.9,2.1,2.1c0,1.1-0.9,2-2.1,2C0.9,87.2,0,86.3,0,85.2z"/>
			<path class="st0" d="M0,98.8c0-1.1,0.9-2.1,2.1-2.1c1.1,0,2.1,0.9,2.1,2.1c0,1.1-0.9,2.1-2.1,2.1C0.9,100.9,0,100,0,98.8z"/>
			<path class="st0" d="M0,112.5c0-1.1,0.9-2.1,2.1-2.1c1.1,0,2.1,0.9,2.1,2.1c0,1.1-0.9,2.1-2.1,2.1C0.9,114.6,0,113.7,0,112.5z"/>
			<path class="st0" d="M0,126.2c0-1.1,0.9-2,2.1-2c1.1,0,2.1,0.9,2.1,2c0,1.1-0.9,2.1-2.1,2.1C0.9,128.3,0,127.4,0,126.2z"/>
			<path class="st0" d="M0,139.9c0-1.1,0.9-2.1,2.1-2.1c1.1,0,2.1,0.9,2.1,2.1c0,1.1-0.9,2.1-2.1,2.1C0.9,142,0,141.1,0,139.9z"/>
			<path class="st0" d="M67.5,44c0-1.1,0.9-2,2.1-2c1.1,0,2,0.9,2,2c0,1.1-0.9,2.1-2,2.1C68.4,46.1,67.5,45.2,67.5,44z"/>
			<path class="st0" d="M67.5,2c0-1.1,0.9-2,2.1-2c1.1,0,2,0.9,2,2c0,1.1-0.9,2.1-2,2.1C68.4,4.1,67.5,3.2,67.5,2z"/>
			<path class="st0" d="M67.5,57.8c0-1.1,0.9-2.1,2.1-2.1c1.1,0,2,0.9,2,2.1s-0.9,2-2,2C68.4,59.8,67.5,58.9,67.5,57.8z"/>
			<path class="st0" d="M67.5,15.8c0-1.1,0.9-2.1,2.1-2.1c1.1,0,2,0.9,2,2.1s-0.9,2-2,2C68.4,17.8,67.5,16.9,67.5,15.8z"/>
			<path class="st0" d="M67.5,71.4c0-1.1,0.9-2.1,2.1-2.1c1.1,0,2,0.9,2,2.1c0,1.1-0.9,2.1-2,2.1C68.4,73.5,67.5,72.6,67.5,71.4z"/>
			<path class="st0" d="M67.5,29.5c0-1.1,0.9-2.1,2.1-2.1c1.1,0,2,0.9,2,2.1c0,1.1-0.9,2-2,2C68.4,31.5,67.5,30.6,67.5,29.5z"/>
			<path class="st0" d="M67.5,85.2c0-1.1,0.9-2.1,2.1-2.1c1.1,0,2,0.9,2,2.1c0,1.1-0.9,2-2,2C68.4,87.2,67.5,86.3,67.5,85.2z"/>
			<path class="st0" d="M67.5,98.8c0-1.1,0.9-2.1,2.1-2.1c1.1,0,2,0.9,2,2.1c0,1.1-0.9,2.1-2,2.1C68.4,100.9,67.5,100,67.5,98.8z"/>
			<path class="st0" d="M67.5,112.5c0-1.1,0.9-2.1,2.1-2.1c1.1,0,2,0.9,2,2.1c0,1.1-0.9,2.1-2,2.1C68.4,114.6,67.5,113.7,67.5,112.5
				z"/>
			<path class="st0" d="M67.5,126.2c0-1.1,0.9-2,2.1-2c1.1,0,2,0.9,2,2c0,1.1-0.9,2.1-2,2.1C68.4,128.3,67.5,127.4,67.5,126.2z"/>
			<path class="st0" d="M67.5,139.9c0-1.1,0.9-2.1,2.1-2.1c1.1,0,2,0.9,2,2.1c0,1.1-0.9,2.1-2,2.1C68.4,142,67.5,141.1,67.5,139.9z"
				/>
			<path class="st0" d="M13.7,44c0-1.1,0.9-2,2.1-2c1.1,0,2.1,0.9,2.1,2c0,1.1-0.9,2.1-2.1,2.1C14.6,46.1,13.7,45.2,13.7,44z"/>
			<path class="st0" d="M13.7,2c0-1.1,0.9-2,2.1-2c1.1,0,2.1,0.9,2.1,2c0,1.1-0.9,2.1-2.1,2.1C14.6,4.1,13.7,3.2,13.7,2z"/>
			<path class="st0" d="M13.7,57.8c0-1.1,0.9-2.1,2.1-2.1c1.1,0,2.1,0.9,2.1,2.1s-0.9,2-2.1,2C14.6,59.8,13.7,58.9,13.7,57.8z"/>
			<path class="st0" d="M13.7,15.8c0-1.1,0.9-2.1,2.1-2.1c1.1,0,2.1,0.9,2.1,2.1s-0.9,2-2.1,2C14.6,17.8,13.7,16.9,13.7,15.8z"/>
			<path class="st0" d="M13.7,71.4c0-1.1,0.9-2.1,2.1-2.1c1.1,0,2.1,0.9,2.1,2.1c0,1.1-0.9,2.1-2.1,2.1
				C14.6,73.5,13.7,72.6,13.7,71.4z"/>
			<path class="st0" d="M13.7,29.5c0-1.1,0.9-2.1,2.1-2.1c1.1,0,2.1,0.9,2.1,2.1c0,1.1-0.9,2-2.1,2C14.6,31.5,13.7,30.6,13.7,29.5z"
				/>
			<path class="st0" d="M13.7,85.2c0-1.1,0.9-2.1,2.1-2.1c1.1,0,2.1,0.9,2.1,2.1c0,1.1-0.9,2-2.1,2C14.6,87.2,13.7,86.3,13.7,85.2z"
				/>
			<path class="st0" d="M13.7,98.8c0-1.1,0.9-2.1,2.1-2.1c1.1,0,2.1,0.9,2.1,2.1c0,1.1-0.9,2.1-2.1,2.1
				C14.6,100.9,13.7,100,13.7,98.8z"/>
			<path class="st0" d="M13.7,112.5c0-1.1,0.9-2.1,2.1-2.1c1.1,0,2.1,0.9,2.1,2.1c0,1.1-0.9,2.1-2.1,2.1
				C14.6,114.6,13.7,113.7,13.7,112.5z"/>
			<path class="st0" d="M13.7,126.2c0-1.1,0.9-2,2.1-2c1.1,0,2.1,0.9,2.1,2c0,1.1-0.9,2.1-2.1,2.1C14.6,128.3,13.7,127.4,13.7,126.2
				z"/>
			<path class="st0" d="M13.7,139.9c0-1.1,0.9-2.1,2.1-2.1c1.1,0,2.1,0.9,2.1,2.1c0,1.1-0.9,2.1-2.1,2.1
				C14.6,142,13.7,141.1,13.7,139.9z"/>
			<path class="st0" d="M82.2,44c0-1.1,0.9-2,2.1-2c1.1,0,2.1,0.9,2.1,2c0,1.1-0.9,2.1-2.1,2.1C83.1,46.1,82.2,45.2,82.2,44z"/>
			<path class="st0" d="M82.2,2c0-1.1,0.9-2,2.1-2c1.1,0,2.1,0.9,2.1,2c0,1.1-0.9,2.1-2.1,2.1C83.1,4.1,82.2,3.2,82.2,2z"/>
			<path class="st0" d="M82.2,57.8c0-1.1,0.9-2.1,2.1-2.1c1.1,0,2.1,0.9,2.1,2.1s-0.9,2-2.1,2C83.1,59.8,82.2,58.9,82.2,57.8z"/>
			<path class="st0" d="M82.2,15.8c0-1.1,0.9-2.1,2.1-2.1c1.1,0,2.1,0.9,2.1,2.1s-0.9,2-2.1,2C83.1,17.8,82.2,16.9,82.2,15.8z"/>
			<path class="st0" d="M82.2,71.4c0-1.1,0.9-2.1,2.1-2.1c1.1,0,2.1,0.9,2.1,2.1c0,1.1-0.9,2.1-2.1,2.1
				C83.1,73.5,82.2,72.6,82.2,71.4z"/>
			<path class="st0" d="M82.2,29.5c0-1.1,0.9-2.1,2.1-2.1c1.1,0,2.1,0.9,2.1,2.1c0,1.1-0.9,2-2.1,2C83.1,31.5,82.2,30.6,82.2,29.5z"
				/>
			<path class="st0" d="M82.2,85.2c0-1.1,0.9-2.1,2.1-2.1c1.1,0,2.1,0.9,2.1,2.1c0,1.1-0.9,2-2.1,2C83.1,87.2,82.2,86.3,82.2,85.2z"
				/>
			<path class="st0" d="M82.2,98.8c0-1.1,0.9-2.1,2.1-2.1c1.1,0,2.1,0.9,2.1,2.1c0,1.1-0.9,2.1-2.1,2.1
				C83.1,100.9,82.2,100,82.2,98.8z"/>
			<path class="st0" d="M82.2,112.5c0-1.1,0.9-2.1,2.1-2.1c1.1,0,2.1,0.9,2.1,2.1c0,1.1-0.9,2.1-2.1,2.1
				C83.1,114.6,82.2,113.7,82.2,112.5z"/>
			<path class="st0" d="M82.2,126.2c0-1.1,0.9-2,2.1-2c1.1,0,2.1,0.9,2.1,2c0,1.1-0.9,2.1-2.1,2.1C83.1,128.3,82.2,127.4,82.2,126.2
				z"/>
			<path class="st0" d="M82.2,139.9c0-1.1,0.9-2.1,2.1-2.1c1.1,0,2.1,0.9,2.1,2.1c0,1.1-0.9,2.1-2.1,2.1
				C83.1,142,82.2,141.1,82.2,139.9z"/>
			<path class="st0" d="M26.4,44c0-1.1,0.9-2,2.1-2c1.1,0,2.1,0.9,2.1,2c0,1.1-0.9,2.1-2.1,2.1C27.3,46.1,26.4,45.2,26.4,44z"/>
			<path class="st0" d="M26.4,2c0-1.1,0.9-2,2.1-2c1.1,0,2.1,0.9,2.1,2c0,1.1-0.9,2.1-2.1,2.1C27.3,4.1,26.4,3.2,26.4,2z"/>
			<path class="st0" d="M26.4,57.8c0-1.1,0.9-2.1,2.1-2.1c1.1,0,2.1,0.9,2.1,2.1s-0.9,2-2.1,2C27.3,59.8,26.4,58.9,26.4,57.8z"/>
			<path class="st0" d="M26.4,15.8c0-1.1,0.9-2.1,2.1-2.1c1.1,0,2.1,0.9,2.1,2.1s-0.9,2-2.1,2C27.3,17.8,26.4,16.9,26.4,15.8z"/>
			<path class="st0" d="M26.4,71.4c0-1.1,0.9-2.1,2.1-2.1c1.1,0,2.1,0.9,2.1,2.1c0,1.1-0.9,2.1-2.1,2.1
				C27.3,73.5,26.4,72.6,26.4,71.4z"/>
			<path class="st0" d="M26.4,29.5c0-1.1,0.9-2.1,2.1-2.1c1.1,0,2.1,0.9,2.1,2.1c0,1.1-0.9,2-2.1,2C27.3,31.5,26.4,30.6,26.4,29.5z"
				/>
			<path class="st0" d="M26.4,85.2c0-1.1,0.9-2.1,2.1-2.1c1.1,0,2.1,0.9,2.1,2.1c0,1.1-0.9,2-2.1,2C27.3,87.2,26.4,86.3,26.4,85.2z"
				/>
			<path class="st0" d="M26.4,98.8c0-1.1,0.9-2.1,2.1-2.1c1.1,0,2.1,0.9,2.1,2.1c0,1.1-0.9,2.1-2.1,2.1
				C27.3,100.9,26.4,100,26.4,98.8z"/>
			<path class="st0" d="M26.4,112.5c0-1.1,0.9-2.1,2.1-2.1c1.1,0,2.1,0.9,2.1,2.1c0,1.1-0.9,2.1-2.1,2.1
				C27.3,114.6,26.4,113.7,26.4,112.5z"/>
			<path class="st0" d="M26.4,126.2c0-1.1,0.9-2,2.1-2c1.1,0,2.1,0.9,2.1,2c0,1.1-0.9,2.1-2.1,2.1C27.3,128.3,26.4,127.4,26.4,126.2
				z"/>
			<path class="st0" d="M26.4,139.9c0-1.1,0.9-2.1,2.1-2.1c1.1,0,2.1,0.9,2.1,2.1c0,1.1-0.9,2.1-2.1,2.1
				C27.3,142,26.4,141.1,26.4,139.9z"/>
			<path class="st0" d="M94.9,44c0-1.1,0.9-2,2.1-2c1.1,0,2.1,0.9,2.1,2c0,1.1-0.9,2.1-2.1,2.1C95.8,46.1,94.9,45.2,94.9,44z"/>
			<path class="st0" d="M94.9,2c0-1.1,0.9-2,2.1-2C98.1,0,99,0.9,99,2c0,1.1-0.9,2.1-2.1,2.1C95.8,4.1,94.9,3.2,94.9,2z"/>
			<path class="st0" d="M94.9,57.8c0-1.1,0.9-2.1,2.1-2.1c1.1,0,2.1,0.9,2.1,2.1s-0.9,2-2.1,2C95.8,59.8,94.9,58.9,94.9,57.8z"/>
			<path class="st0" d="M94.9,15.8c0-1.1,0.9-2.1,2.1-2.1c1.1,0,2.1,0.9,2.1,2.1s-0.9,2-2.1,2C95.8,17.8,94.9,16.9,94.9,15.8z"/>
			<path class="st0" d="M94.9,71.4c0-1.1,0.9-2.1,2.1-2.1c1.1,0,2.1,0.9,2.1,2.1c0,1.1-0.9,2.1-2.1,2.1
				C95.8,73.5,94.9,72.6,94.9,71.4z"/>
			<path class="st0" d="M94.9,29.5c0-1.1,0.9-2.1,2.1-2.1c1.1,0,2.1,0.9,2.1,2.1c0,1.1-0.9,2-2.1,2C95.8,31.5,94.9,30.6,94.9,29.5z"
				/>
			<path class="st0" d="M94.9,85.2c0-1.1,0.9-2.1,2.1-2.1c1.1,0,2.1,0.9,2.1,2.1c0,1.1-0.9,2-2.1,2C95.8,87.2,94.9,86.3,94.9,85.2z"
				/>
			<path class="st0" d="M94.9,98.8c0-1.1,0.9-2.1,2.1-2.1c1.1,0,2.1,0.9,2.1,2.1c0,1.1-0.9,2.1-2.1,2.1
				C95.8,100.9,94.9,100,94.9,98.8z"/>
			<path class="st0" d="M94.9,112.5c0-1.1,0.9-2.1,2.1-2.1c1.1,0,2.1,0.9,2.1,2.1c0,1.1-0.9,2.1-2.1,2.1
				C95.8,114.6,94.9,113.7,94.9,112.5z"/>
			<path class="st0" d="M94.9,126.2c0-1.1,0.9-2,2.1-2c1.1,0,2.1,0.9,2.1,2c0,1.1-0.9,2.1-2.1,2.1C95.8,128.3,94.9,127.4,94.9,126.2
				z"/>
			<path class="st0" d="M94.9,139.9c0-1.1,0.9-2.1,2.1-2.1c1.1,0,2.1,0.9,2.1,2.1c0,1.1-0.9,2.1-2.1,2.1
				C95.8,142,94.9,141.1,94.9,139.9z"/>
			<path class="st0" d="M41.1,44c0-1.1,0.9-2,2.1-2c1.1,0,2.1,0.9,2.1,2c0,1.1-0.9,2.1-2.1,2.1C42,46.1,41.1,45.2,41.1,44z"/>
			<path class="st0" d="M41.1,2c0-1.1,0.9-2,2.1-2c1.1,0,2.1,0.9,2.1,2c0,1.1-0.9,2.1-2.1,2.1C42,4.1,41.1,3.2,41.1,2z"/>
			<path class="st0" d="M41.1,57.8c0-1.1,0.9-2.1,2.1-2.1c1.1,0,2.1,0.9,2.1,2.1s-0.9,2-2.1,2C42,59.8,41.1,58.9,41.1,57.8z"/>
			<path class="st0" d="M41.1,15.8c0-1.1,0.9-2.1,2.1-2.1c1.1,0,2.1,0.9,2.1,2.1s-0.9,2-2.1,2C42,17.8,41.1,16.9,41.1,15.8z"/>
			<path class="st0" d="M41.1,71.4c0-1.1,0.9-2.1,2.1-2.1c1.1,0,2.1,0.9,2.1,2.1c0,1.1-0.9,2.1-2.1,2.1C42,73.5,41.1,72.6,41.1,71.4
				z"/>
			<path class="st0" d="M41.1,29.5c0-1.1,0.9-2.1,2.1-2.1c1.1,0,2.1,0.9,2.1,2.1c0,1.1-0.9,2-2.1,2C42,31.5,41.1,30.6,41.1,29.5z"/>
			<path class="st0" d="M41.1,85.2c0-1.1,0.9-2.1,2.1-2.1c1.1,0,2.1,0.9,2.1,2.1c0,1.1-0.9,2-2.1,2C42,87.2,41.1,86.3,41.1,85.2z"/>
			<path class="st0" d="M41.1,98.8c0-1.1,0.9-2.1,2.1-2.1c1.1,0,2.1,0.9,2.1,2.1c0,1.1-0.9,2.1-2.1,2.1C42,100.9,41.1,100,41.1,98.8
				z"/>
			<path class="st0" d="M41.1,112.5c0-1.1,0.9-2.1,2.1-2.1c1.1,0,2.1,0.9,2.1,2.1c0,1.1-0.9,2.1-2.1,2.1
				C42,114.6,41.1,113.7,41.1,112.5z"/>
			<path class="st0" d="M41.1,126.2c0-1.1,0.9-2,2.1-2c1.1,0,2.1,0.9,2.1,2c0,1.1-0.9,2.1-2.1,2.1C42,128.3,41.1,127.4,41.1,126.2z"
				/>
			<path class="st0" d="M41.1,139.9c0-1.1,0.9-2.1,2.1-2.1c1.1,0,2.1,0.9,2.1,2.1c0,1.1-0.9,2.1-2.1,2.1
				C42,142,41.1,141.1,41.1,139.9z"/>
			<path class="st0" d="M54.8,44c0-1.1,0.9-2,2-2c1.1,0,2.1,0.9,2.1,2c0,1.1-0.9,2.1-2.1,2.1C55.7,46.1,54.8,45.2,54.8,44z"/>
			<path class="st0" d="M54.8,2c0-1.1,0.9-2,2-2c1.1,0,2.1,0.9,2.1,2c0,1.1-0.9,2.1-2.1,2.1C55.7,4.1,54.8,3.2,54.8,2z"/>
			<path class="st0" d="M54.8,57.8c0-1.1,0.9-2.1,2-2.1c1.1,0,2.1,0.9,2.1,2.1s-0.9,2-2.1,2C55.7,59.8,54.8,58.9,54.8,57.8z"/>
			<path class="st0" d="M54.8,15.8c0-1.1,0.9-2.1,2-2.1c1.1,0,2.1,0.9,2.1,2.1s-0.9,2-2.1,2C55.7,17.8,54.8,16.9,54.8,15.8z"/>
			<path class="st0" d="M54.8,71.4c0-1.1,0.9-2.1,2-2.1c1.1,0,2.1,0.9,2.1,2.1c0,1.1-0.9,2.1-2.1,2.1C55.7,73.5,54.8,72.6,54.8,71.4
				z"/>
			<path class="st0" d="M54.8,29.5c0-1.1,0.9-2.1,2-2.1c1.1,0,2.1,0.9,2.1,2.1c0,1.1-0.9,2-2.1,2C55.7,31.5,54.8,30.6,54.8,29.5z"/>
			<path class="st0" d="M54.8,85.2c0-1.1,0.9-2.1,2-2.1c1.1,0,2.1,0.9,2.1,2.1c0,1.1-0.9,2-2.1,2C55.7,87.2,54.8,86.3,54.8,85.2z"/>
			<path class="st0" d="M54.8,98.8c0-1.1,0.9-2.1,2-2.1c1.1,0,2.1,0.9,2.1,2.1c0,1.1-0.9,2.1-2.1,2.1C55.7,100.9,54.8,100,54.8,98.8
				z"/>
			<path class="st0" d="M54.8,112.5c0-1.1,0.9-2.1,2-2.1c1.1,0,2.1,0.9,2.1,2.1c0,1.1-0.9,2.1-2.1,2.1
				C55.7,114.6,54.8,113.7,54.8,112.5z"/>
			<path class="st0" d="M54.8,126.2c0-1.1,0.9-2,2-2c1.1,0,2.1,0.9,2.1,2c0,1.1-0.9,2.1-2.1,2.1C55.7,128.3,54.8,127.4,54.8,126.2z"
				/>
			<path class="st0" d="M54.8,139.9c0-1.1,0.9-2.1,2-2.1c1.1,0,2.1,0.9,2.1,2.1c0,1.1-0.9,2.1-2.1,2.1
				C55.7,142,54.8,141.1,54.8,139.9z"/>
		</g>
		<g>
			<path class="st0" d="M109,44c0-1.1,0.9-2,2.1-2c1.1,0,2.1,0.9,2.1,2c0,1.1-0.9,2.1-2.1,2.1C109.9,46.1,109,45.2,109,44z"/>
			<path class="st0" d="M109,2c0-1.1,0.9-2,2.1-2c1.1,0,2.1,0.9,2.1,2c0,1.1-0.9,2.1-2.1,2.1C109.9,4.1,109,3.2,109,2z"/>
			<path class="st0" d="M109,57.8c0-1.1,0.9-2.1,2.1-2.1c1.1,0,2.1,0.9,2.1,2.1s-0.9,2-2.1,2C109.9,59.8,109,58.9,109,57.8z"/>
			<path class="st0" d="M109,15.8c0-1.1,0.9-2.1,2.1-2.1c1.1,0,2.1,0.9,2.1,2.1s-0.9,2-2.1,2C109.9,17.8,109,16.9,109,15.8z"/>
			<path class="st0" d="M109,71.4c0-1.1,0.9-2.1,2.1-2.1c1.1,0,2.1,0.9,2.1,2.1c0,1.1-0.9,2.1-2.1,2.1C109.9,73.5,109,72.6,109,71.4
				z"/>
			<path class="st0" d="M109,29.5c0-1.1,0.9-2.1,2.1-2.1c1.1,0,2.1,0.9,2.1,2.1c0,1.1-0.9,2-2.1,2C109.9,31.5,109,30.6,109,29.5z"/>
			<path class="st0" d="M109,85.2c0-1.1,0.9-2.1,2.1-2.1c1.1,0,2.1,0.9,2.1,2.1c0,1.1-0.9,2-2.1,2C109.9,87.2,109,86.3,109,85.2z"/>
			<path class="st0" d="M109,98.8c0-1.1,0.9-2.1,2.1-2.1c1.1,0,2.1,0.9,2.1,2.1c0,1.1-0.9,2.1-2.1,2.1C109.9,100.9,109,100,109,98.8
				z"/>
			<path class="st0" d="M109,112.5c0-1.1,0.9-2.1,2.1-2.1c1.1,0,2.1,0.9,2.1,2.1c0,1.1-0.9,2.1-2.1,2.1
				C109.9,114.6,109,113.7,109,112.5z"/>
			<path class="st0" d="M109,126.2c0-1.1,0.9-2,2.1-2c1.1,0,2.1,0.9,2.1,2c0,1.1-0.9,2.1-2.1,2.1C109.9,128.3,109,127.4,109,126.2z"
				/>
			<path class="st0" d="M109,139.9c0-1.1,0.9-2.1,2.1-2.1c1.1,0,2.1,0.9,2.1,2.1c0,1.1-0.9,2.1-2.1,2.1
				C109.9,142,109,141.1,109,139.9z"/>
			<path class="st0" d="M176.5,44c0-1.1,0.9-2,2.1-2c1.1,0,2.1,0.9,2.1,2c0,1.1-0.9,2.1-2.1,2.1C177.4,46.1,176.5,45.2,176.5,44z"/>
			<path class="st0" d="M176.5,2c0-1.1,0.9-2,2.1-2c1.1,0,2.1,0.9,2.1,2c0,1.1-0.9,2.1-2.1,2.1C177.4,4.1,176.5,3.2,176.5,2z"/>
			<path class="st0" d="M176.5,57.8c0-1.1,0.9-2.1,2.1-2.1c1.1,0,2.1,0.9,2.1,2.1s-0.9,2-2.1,2C177.4,59.8,176.5,58.9,176.5,57.8z"
				/>
			<path class="st0" d="M176.5,15.8c0-1.1,0.9-2.1,2.1-2.1c1.1,0,2.1,0.9,2.1,2.1s-0.9,2-2.1,2C177.4,17.8,176.5,16.9,176.5,15.8z"
				/>
			<path class="st0" d="M176.5,71.4c0-1.1,0.9-2.1,2.1-2.1c1.1,0,2.1,0.9,2.1,2.1c0,1.1-0.9,2.1-2.1,2.1
				C177.4,73.5,176.5,72.6,176.5,71.4z"/>
			<path class="st0" d="M176.5,29.5c0-1.1,0.9-2.1,2.1-2.1c1.1,0,2.1,0.9,2.1,2.1c0,1.1-0.9,2-2.1,2
				C177.4,31.5,176.5,30.6,176.5,29.5z"/>
			<path class="st0" d="M176.5,85.2c0-1.1,0.9-2.1,2.1-2.1c1.1,0,2.1,0.9,2.1,2.1c0,1.1-0.9,2-2.1,2
				C177.4,87.2,176.5,86.3,176.5,85.2z"/>
			<path class="st0" d="M176.5,98.8c0-1.1,0.9-2.1,2.1-2.1c1.1,0,2.1,0.9,2.1,2.1c0,1.1-0.9,2.1-2.1,2.1
				C177.4,100.9,176.5,100,176.5,98.8z"/>
			<path class="st0" d="M176.5,112.5c0-1.1,0.9-2.1,2.1-2.1c1.1,0,2.1,0.9,2.1,2.1c0,1.1-0.9,2.1-2.1,2.1
				C177.4,114.6,176.5,113.7,176.5,112.5z"/>
			<path class="st0" d="M176.5,126.2c0-1.1,0.9-2,2.1-2c1.1,0,2.1,0.9,2.1,2c0,1.1-0.9,2.1-2.1,2.1
				C177.4,128.3,176.5,127.4,176.5,126.2z"/>
			<path class="st0" d="M176.5,139.9c0-1.1,0.9-2.1,2.1-2.1c1.1,0,2.1,0.9,2.1,2.1c0,1.1-0.9,2.1-2.1,2.1
				C177.4,142,176.5,141.1,176.5,139.9z"/>
			<path class="st0" d="M122.7,44c0-1.1,0.9-2,2.1-2c1.1,0,2.1,0.9,2.1,2c0,1.1-0.9,2.1-2.1,2.1C123.6,46.1,122.7,45.2,122.7,44z"/>
			<path class="st0" d="M122.7,2c0-1.1,0.9-2,2.1-2c1.1,0,2.1,0.9,2.1,2c0,1.1-0.9,2.1-2.1,2.1C123.6,4.1,122.7,3.2,122.7,2z"/>
			<path class="st0" d="M122.7,57.8c0-1.1,0.9-2.1,2.1-2.1c1.1,0,2.1,0.9,2.1,2.1s-0.9,2-2.1,2C123.6,59.8,122.7,58.9,122.7,57.8z"
				/>
			<path class="st0" d="M122.7,15.8c0-1.1,0.9-2.1,2.1-2.1c1.1,0,2.1,0.9,2.1,2.1s-0.9,2-2.1,2C123.6,17.8,122.7,16.9,122.7,15.8z"
				/>
			<path class="st0" d="M122.7,71.4c0-1.1,0.9-2.1,2.1-2.1c1.1,0,2.1,0.9,2.1,2.1c0,1.1-0.9,2.1-2.1,2.1
				C123.6,73.5,122.7,72.6,122.7,71.4z"/>
			<path class="st0" d="M122.7,29.5c0-1.1,0.9-2.1,2.1-2.1c1.1,0,2.1,0.9,2.1,2.1c0,1.1-0.9,2-2.1,2
				C123.6,31.5,122.7,30.6,122.7,29.5z"/>
			<path class="st0" d="M122.7,85.2c0-1.1,0.9-2.1,2.1-2.1c1.1,0,2.1,0.9,2.1,2.1c0,1.1-0.9,2-2.1,2
				C123.6,87.2,122.7,86.3,122.7,85.2z"/>
			<path class="st0" d="M122.7,98.8c0-1.1,0.9-2.1,2.1-2.1c1.1,0,2.1,0.9,2.1,2.1c0,1.1-0.9,2.1-2.1,2.1
				C123.6,100.9,122.7,100,122.7,98.8z"/>
			<path class="st0" d="M122.7,112.5c0-1.1,0.9-2.1,2.1-2.1c1.1,0,2.1,0.9,2.1,2.1c0,1.1-0.9,2.1-2.1,2.1
				C123.6,114.6,122.7,113.7,122.7,112.5z"/>
			<path class="st0" d="M122.7,126.2c0-1.1,0.9-2,2.1-2c1.1,0,2.1,0.9,2.1,2c0,1.1-0.9,2.1-2.1,2.1
				C123.6,128.3,122.7,127.4,122.7,126.2z"/>
			<path class="st0" d="M122.7,139.9c0-1.1,0.9-2.1,2.1-2.1c1.1,0,2.1,0.9,2.1,2.1c0,1.1-0.9,2.1-2.1,2.1
				C123.6,142,122.7,141.1,122.7,139.9z"/>
			<path class="st0" d="M191.2,44c0-1.1,0.9-2,2.1-2c1.1,0,2.1,0.9,2.1,2c0,1.1-0.9,2.1-2.1,2.1C192.1,46.1,191.2,45.2,191.2,44z"/>
			<path class="st0" d="M191.2,2c0-1.1,0.9-2,2.1-2c1.1,0,2.1,0.9,2.1,2c0,1.1-0.9,2.1-2.1,2.1C192.1,4.1,191.2,3.2,191.2,2z"/>
			<path class="st0" d="M191.2,57.8c0-1.1,0.9-2.1,2.1-2.1c1.1,0,2.1,0.9,2.1,2.1s-0.9,2-2.1,2C192.1,59.8,191.2,58.9,191.2,57.8z"
				/>
			<path class="st0" d="M191.2,15.8c0-1.1,0.9-2.1,2.1-2.1c1.1,0,2.1,0.9,2.1,2.1s-0.9,2-2.1,2C192.1,17.8,191.2,16.9,191.2,15.8z"
				/>
			<path class="st0" d="M191.2,71.4c0-1.1,0.9-2.1,2.1-2.1c1.1,0,2.1,0.9,2.1,2.1c0,1.1-0.9,2.1-2.1,2.1
				C192.1,73.5,191.2,72.6,191.2,71.4z"/>
			<path class="st0" d="M191.2,29.5c0-1.1,0.9-2.1,2.1-2.1c1.1,0,2.1,0.9,2.1,2.1c0,1.1-0.9,2-2.1,2
				C192.1,31.5,191.2,30.6,191.2,29.5z"/>
			<path class="st0" d="M191.2,85.2c0-1.1,0.9-2.1,2.1-2.1c1.1,0,2.1,0.9,2.1,2.1c0,1.1-0.9,2-2.1,2
				C192.1,87.2,191.2,86.3,191.2,85.2z"/>
			<path class="st0" d="M191.2,98.8c0-1.1,0.9-2.1,2.1-2.1c1.1,0,2.1,0.9,2.1,2.1c0,1.1-0.9,2.1-2.1,2.1
				C192.1,100.9,191.2,100,191.2,98.8z"/>
			<path class="st0" d="M191.2,112.5c0-1.1,0.9-2.1,2.1-2.1c1.1,0,2.1,0.9,2.1,2.1c0,1.1-0.9,2.1-2.1,2.1
				C192.1,114.6,191.2,113.7,191.2,112.5z"/>
			<path class="st0" d="M191.2,126.2c0-1.1,0.9-2,2.1-2c1.1,0,2.1,0.9,2.1,2c0,1.1-0.9,2.1-2.1,2.1
				C192.1,128.3,191.2,127.4,191.2,126.2z"/>
			<path class="st0" d="M191.2,139.9c0-1.1,0.9-2.1,2.1-2.1c1.1,0,2.1,0.9,2.1,2.1c0,1.1-0.9,2.1-2.1,2.1
				C192.1,142,191.2,141.1,191.2,139.9z"/>
			<path class="st0" d="M135.4,44c0-1.1,0.9-2,2.1-2c1.1,0,2.1,0.9,2.1,2c0,1.1-0.9,2.1-2.1,2.1C136.3,46.1,135.4,45.2,135.4,44z"/>
			<path class="st0" d="M135.4,2c0-1.1,0.9-2,2.1-2c1.1,0,2.1,0.9,2.1,2c0,1.1-0.9,2.1-2.1,2.1C136.3,4.1,135.4,3.2,135.4,2z"/>
			<path class="st0" d="M135.4,57.8c0-1.1,0.9-2.1,2.1-2.1c1.1,0,2.1,0.9,2.1,2.1s-0.9,2-2.1,2C136.3,59.8,135.4,58.9,135.4,57.8z"
				/>
			<path class="st0" d="M135.4,15.8c0-1.1,0.9-2.1,2.1-2.1c1.1,0,2.1,0.9,2.1,2.1s-0.9,2-2.1,2C136.3,17.8,135.4,16.9,135.4,15.8z"
				/>
			<path class="st0" d="M135.4,71.4c0-1.1,0.9-2.1,2.1-2.1c1.1,0,2.1,0.9,2.1,2.1c0,1.1-0.9,2.1-2.1,2.1
				C136.3,73.5,135.4,72.6,135.4,71.4z"/>
			<path class="st0" d="M135.4,29.5c0-1.1,0.9-2.1,2.1-2.1c1.1,0,2.1,0.9,2.1,2.1c0,1.1-0.9,2-2.1,2
				C136.3,31.5,135.4,30.6,135.4,29.5z"/>
			<path class="st0" d="M135.4,85.2c0-1.1,0.9-2.1,2.1-2.1c1.1,0,2.1,0.9,2.1,2.1c0,1.1-0.9,2-2.1,2
				C136.3,87.2,135.4,86.3,135.4,85.2z"/>
			<path class="st0" d="M135.4,98.8c0-1.1,0.9-2.1,2.1-2.1c1.1,0,2.1,0.9,2.1,2.1c0,1.1-0.9,2.1-2.1,2.1
				C136.3,100.9,135.4,100,135.4,98.8z"/>
			<path class="st0" d="M135.4,112.5c0-1.1,0.9-2.1,2.1-2.1c1.1,0,2.1,0.9,2.1,2.1c0,1.1-0.9,2.1-2.1,2.1
				C136.3,114.6,135.4,113.7,135.4,112.5z"/>
			<path class="st0" d="M135.4,126.2c0-1.1,0.9-2,2.1-2c1.1,0,2.1,0.9,2.1,2c0,1.1-0.9,2.1-2.1,2.1
				C136.3,128.3,135.4,127.4,135.4,126.2z"/>
			<path class="st0" d="M135.4,139.9c0-1.1,0.9-2.1,2.1-2.1c1.1,0,2.1,0.9,2.1,2.1c0,1.1-0.9,2.1-2.1,2.1
				C136.3,142,135.4,141.1,135.4,139.9z"/>
			<path class="st0" d="M203.9,44c0-1.1,0.9-2,2.1-2c1.1,0,2.1,0.9,2.1,2c0,1.1-0.9,2.1-2.1,2.1C204.8,46.1,203.9,45.2,203.9,44z"/>
			<path class="st0" d="M203.9,2c0-1.1,0.9-2,2.1-2c1.1,0,2.1,0.9,2.1,2c0,1.1-0.9,2.1-2.1,2.1C204.8,4.1,203.9,3.2,203.9,2z"/>
			<path class="st0" d="M203.9,57.8c0-1.1,0.9-2.1,2.1-2.1c1.1,0,2.1,0.9,2.1,2.1s-0.9,2-2.1,2C204.8,59.8,203.9,58.9,203.9,57.8z"
				/>
			<path class="st0" d="M203.9,15.8c0-1.1,0.9-2.1,2.1-2.1c1.1,0,2.1,0.9,2.1,2.1s-0.9,2-2.1,2C204.8,17.8,203.9,16.9,203.9,15.8z"
				/>
			<path class="st0" d="M203.9,71.4c0-1.1,0.9-2.1,2.1-2.1c1.1,0,2.1,0.9,2.1,2.1c0,1.1-0.9,2.1-2.1,2.1
				C204.8,73.5,203.9,72.6,203.9,71.4z"/>
			<path class="st0" d="M203.9,29.5c0-1.1,0.9-2.1,2.1-2.1c1.1,0,2.1,0.9,2.1,2.1c0,1.1-0.9,2-2.1,2
				C204.8,31.5,203.9,30.6,203.9,29.5z"/>
			<path class="st0" d="M203.9,85.2c0-1.1,0.9-2.1,2.1-2.1c1.1,0,2.1,0.9,2.1,2.1c0,1.1-0.9,2-2.1,2
				C204.8,87.2,203.9,86.3,203.9,85.2z"/>
			<path class="st0" d="M203.9,98.8c0-1.1,0.9-2.1,2.1-2.1c1.1,0,2.1,0.9,2.1,2.1c0,1.1-0.9,2.1-2.1,2.1
				C204.8,100.9,203.9,100,203.9,98.8z"/>
			<path class="st0" d="M203.9,112.5c0-1.1,0.9-2.1,2.1-2.1c1.1,0,2.1,0.9,2.1,2.1c0,1.1-0.9,2.1-2.1,2.1
				C204.8,114.6,203.9,113.7,203.9,112.5z"/>
			<path class="st0" d="M203.9,126.2c0-1.1,0.9-2,2.1-2c1.1,0,2.1,0.9,2.1,2c0,1.1-0.9,2.1-2.1,2.1
				C204.8,128.3,203.9,127.4,203.9,126.2z"/>
			<path class="st0" d="M203.9,139.9c0-1.1,0.9-2.1,2.1-2.1c1.1,0,2.1,0.9,2.1,2.1c0,1.1-0.9,2.1-2.1,2.1
				C204.8,142,203.9,141.1,203.9,139.9z"/>
			<path class="st0" d="M150.1,44c0-1.1,0.9-2,2-2c1.1,0,2.1,0.9,2.1,2c0,1.1-0.9,2.1-2.1,2.1C151,46.1,150.1,45.2,150.1,44z"/>
			<path class="st0" d="M150.1,2c0-1.1,0.9-2,2-2c1.1,0,2.1,0.9,2.1,2c0,1.1-0.9,2.1-2.1,2.1C151,4.1,150.1,3.2,150.1,2z"/>
			<path class="st0" d="M150.1,57.8c0-1.1,0.9-2.1,2-2.1c1.1,0,2.1,0.9,2.1,2.1s-0.9,2-2.1,2C151,59.8,150.1,58.9,150.1,57.8z"/>
			<path class="st0" d="M150.1,15.8c0-1.1,0.9-2.1,2-2.1c1.1,0,2.1,0.9,2.1,2.1s-0.9,2-2.1,2C151,17.8,150.1,16.9,150.1,15.8z"/>
			<path class="st0" d="M150.1,71.4c0-1.1,0.9-2.1,2-2.1c1.1,0,2.1,0.9,2.1,2.1c0,1.1-0.9,2.1-2.1,2.1
				C151,73.5,150.1,72.6,150.1,71.4z"/>
			<path class="st0" d="M150.1,29.5c0-1.1,0.9-2.1,2-2.1c1.1,0,2.1,0.9,2.1,2.1c0,1.1-0.9,2-2.1,2C151,31.5,150.1,30.6,150.1,29.5z"
				/>
			<path class="st0" d="M150.1,85.2c0-1.1,0.9-2.1,2-2.1c1.1,0,2.1,0.9,2.1,2.1c0,1.1-0.9,2-2.1,2C151,87.2,150.1,86.3,150.1,85.2z"
				/>
			<path class="st0" d="M150.1,98.8c0-1.1,0.9-2.1,2-2.1c1.1,0,2.1,0.9,2.1,2.1c0,1.1-0.9,2.1-2.1,2.1
				C151,100.9,150.1,100,150.1,98.8z"/>
			<path class="st0" d="M150.1,112.5c0-1.1,0.9-2.1,2-2.1c1.1,0,2.1,0.9,2.1,2.1c0,1.1-0.9,2.1-2.1,2.1
				C151,114.6,150.1,113.7,150.1,112.5z"/>
			<path class="st0" d="M150.1,126.2c0-1.1,0.9-2,2-2c1.1,0,2.1,0.9,2.1,2c0,1.1-0.9,2.1-2.1,2.1C151,128.3,150.1,127.4,150.1,126.2
				z"/>
			<path class="st0" d="M150.1,139.9c0-1.1,0.9-2.1,2-2.1c1.1,0,2.1,0.9,2.1,2.1c0,1.1-0.9,2.1-2.1,2.1
				C151,142,150.1,141.1,150.1,139.9z"/>
			<path class="st0" d="M163.8,44c0-1.1,0.9-2,2.1-2c1.1,0,2,0.9,2,2c0,1.1-0.9,2.1-2,2.1C164.7,46.1,163.8,45.2,163.8,44z"/>
			<path class="st0" d="M163.8,2c0-1.1,0.9-2,2.1-2c1.1,0,2,0.9,2,2c0,1.1-0.9,2.1-2,2.1C164.7,4.1,163.8,3.2,163.8,2z"/>
			<path class="st0" d="M163.8,57.8c0-1.1,0.9-2.1,2.1-2.1c1.1,0,2,0.9,2,2.1s-0.9,2-2,2C164.7,59.8,163.8,58.9,163.8,57.8z"/>
			<path class="st0" d="M163.8,15.8c0-1.1,0.9-2.1,2.1-2.1c1.1,0,2,0.9,2,2.1s-0.9,2-2,2C164.7,17.8,163.8,16.9,163.8,15.8z"/>
			<path class="st0" d="M163.8,71.4c0-1.1,0.9-2.1,2.1-2.1c1.1,0,2,0.9,2,2.1c0,1.1-0.9,2.1-2,2.1C164.7,73.5,163.8,72.6,163.8,71.4
				z"/>
			<path class="st0" d="M163.8,29.5c0-1.1,0.9-2.1,2.1-2.1c1.1,0,2,0.9,2,2.1c0,1.1-0.9,2-2,2C164.7,31.5,163.8,30.6,163.8,29.5z"/>
			<path class="st0" d="M163.8,85.2c0-1.1,0.9-2.1,2.1-2.1c1.1,0,2,0.9,2,2.1c0,1.1-0.9,2-2,2C164.7,87.2,163.8,86.3,163.8,85.2z"/>
			<path class="st0" d="M163.8,98.8c0-1.1,0.9-2.1,2.1-2.1c1.1,0,2,0.9,2,2.1c0,1.1-0.9,2.1-2,2.1C164.7,100.9,163.8,100,163.8,98.8
				z"/>
			<path class="st0" d="M163.8,112.5c0-1.1,0.9-2.1,2.1-2.1c1.1,0,2,0.9,2,2.1c0,1.1-0.9,2.1-2,2.1
				C164.7,114.6,163.8,113.7,163.8,112.5z"/>
			<path class="st0" d="M163.8,126.2c0-1.1,0.9-2,2.1-2c1.1,0,2,0.9,2,2c0,1.1-0.9,2.1-2,2.1C164.7,128.3,163.8,127.4,163.8,126.2z"
				/>
			<path class="st0" d="M163.8,139.9c0-1.1,0.9-2.1,2.1-2.1c1.1,0,2,0.9,2,2.1c0,1.1-0.9,2.1-2,2.1
				C164.7,142,163.8,141.1,163.8,139.9z"/>
		</g>
	</g>
</g>
</svg>
