<?xml version="1.0" encoding="utf-8"?>
<!-- Generator: Adobe Illustrator 16.0.0, SVG Export Plug-In . SVG Version: 6.00 Build 0)  -->
<!DOCTYPE svg PUBLIC "-//W3C//DTD SVG 1.1//EN" "http://www.w3.org/Graphics/SVG/1.1/DTD/svg11.dtd">
<svg version="1.1" id="Layer_1" xmlns="http://www.w3.org/2000/svg" xmlns:xlink="http://www.w3.org/1999/xlink" x="0px" y="0px"
	 width="54.18px" height="54px" viewBox="0 0 54.18 54" enable-background="new 0 0 54.18 54" xml:space="preserve">
<linearGradient id="SVGID_1_" gradientUnits="userSpaceOnUse" x1="44.2983" y1="-5.3262" x2="7.6987" y2="58.0662">
	<stop  offset="0" style="stop-color:#7A2AA6"/>
	<stop  offset="1" style="stop-color:#F8219F"/>
</linearGradient>
<path fill-rule="evenodd" clip-rule="evenodd" fill="url(#SVGID_1_)" d="M35.18,6.25c-0.13-0.21-0.33-0.35-0.57-0.4
	c-0.24-0.05-0.48,0-0.69,0.13c-0.2,0.14-0.35,0.35-0.39,0.59l-0.02,0.17c0,0.06,0.01,0.12,0.03,0.18c0.01,0.06,0.02,0.12,0.05,0.17
	l0.09,0.16c0.14,0.19,0.34,0.32,0.57,0.37c0.48,0.07,0.93-0.23,1.06-0.69c0.02-0.12,0.02-0.24-0.01-0.35
	C35.28,6.46,35.24,6.35,35.18,6.25z M41.23,4.18c3.55-1.42,7.31-2.21,11.12-2.34C52.23,5.65,51.43,9.41,50,12.95L41.23,4.18z
	 M40.88,31.21c0.01,4.07-1.6,7.98-4.49,10.86l-2.91,2.9l-4.47-4.47l11.87-11.87V31.21z M12.12,17.8c2.87-2.89,6.78-4.51,10.86-4.5
	h2.58L13.69,25.17L9.22,20.7L12.12,17.8z M21.32,41.74l-0.05-0.04l-8.84-8.83l-0.02-0.03l2.73-1.1l7.3,7.3L21.32,41.74z
	 M17.61,52.19H1.8v-14c0-1.74,1.42-3.15,3.16-3.16c1.68,0.01,3.06,1.31,3.16,2.98c0.02,0.5,0.45,0.88,0.94,0.86
	c0.5-0.03,0.88-0.45,0.86-0.95c-0.05-0.98-0.4-1.93-1-2.71c0.57-0.64,1.38-1.03,2.24-1.07l8.56,8.56c-0.17,0.59-0.51,1.11-0.98,1.5
	c-0.55-0.13-1.13-0.17-1.7-0.1c-0.32,0.04-0.59,0.25-0.72,0.54c-0.13,0.3-0.08,0.64,0.11,0.9c0.2,0.26,0.52,0.39,0.84,0.35
	c0.89-0.1,1.78,0.19,2.45,0.79c0.67,0.6,1.05,1.45,1.05,2.35C20.77,50.78,19.35,52.19,17.61,52.19z M53.28,0
	C47.95,0.03,42.7,1.29,37.93,3.67L37.1,4.09c-0.21,0.11-0.37,0.31-0.44,0.54c-0.07,0.23-0.05,0.48,0.07,0.69
	c0.25,0.43,0.78,0.59,1.22,0.37l0.78-0.4c0.24-0.12,0.48-0.22,0.72-0.34l9.78,9.79c-1.73,3.7-4.09,7.08-6.98,9.97l-1.1,1.1
	L27.1,39.86c-0.36,0.35-0.93,0.35-1.28,0l-11.5-11.5c-0.35-0.35-0.35-0.92,0-1.27l14.05-14.05l1.1-1.1l1.28-1.22l1.34-1.14
	c0.25-0.21,0.37-0.53,0.32-0.85c-0.05-0.32-0.27-0.59-0.57-0.7c-0.31-0.11-0.65-0.06-0.9,0.15l-1.4,1.21l-1.34,1.27l-0.84,0.84
	h-4.39c-4.55-0.02-8.92,1.79-12.13,5.02l-2.9,2.9c-0.71,0.71-0.71,1.85,0,2.56l4.59,4.58c-0.51,1.04-0.3,2.27,0.52,3.08l0.71,0.71
	l-2.03,0.82c-0.46,0.18-0.83,0.54-1,1.01l-0.05,0.2C9.49,32.53,8.4,33.1,7.6,33.99c-1.53-0.96-3.47-1.02-5.05-0.14
	C0.97,34.72-0.01,36.39,0,38.19V53.1C0,53.6,0.4,54,0.9,54h16.71c2.15,0,4.07-1.39,4.73-3.44C23,48.5,22.25,46.26,20.5,45
	c0.36-0.42,0.65-0.91,0.85-1.43h0.01c0.14,0,0.28-0.02,0.41-0.05c0.57-0.12,1.03-0.52,1.24-1.06l0.82-2.03l0.71,0.71
	c0.81,0.81,2.05,1.02,3.08,0.52l4.59,4.59c0.34,0.33,0.8,0.52,1.27,0.52c0.48,0,0.94-0.19,1.28-0.52l2.9-2.91
	c3.23-3.21,5.04-7.58,5.03-12.13v-4.39l0.83-0.83c6.72-6.64,10.55-15.65,10.66-25.09C54.18,0.4,53.78,0,53.28,0z M34.76,14.31
	c1.03-1.03,2.59-1.34,3.94-0.78c1.35,0.56,2.23,1.88,2.23,3.34s-0.88,2.78-2.23,3.34s-2.91,0.25-3.94-0.79
	c-0.68-0.67-1.06-1.59-1.06-2.55S34.08,14.99,34.76,14.31z M37.32,22.29c2.58,0,4.81-1.83,5.31-4.36c0.5-2.54-0.85-5.08-3.24-6.07
	c-2.39-0.99-5.14-0.15-6.58,2c-1.44,2.15-1.15,5.01,0.67,6.84C34.5,21.72,35.88,22.29,37.32,22.29z M29.65,29.64
	c-1.41,1.41-3.69,1.41-5.1,0c-1.41-1.41-1.41-3.7,0-5.11c1.41-1.41,3.69-1.41,5.1,0C31.06,25.94,31.06,28.23,29.65,29.64z
	 M23.27,23.26c-1.55,1.55-2.02,3.88-1.18,5.9c0.84,2.03,2.82,3.35,5.01,3.35c2.19,0,4.17-1.32,5-3.35c0.84-2.02,0.38-4.35-1.17-5.9
	c-1.01-1.03-2.39-1.61-3.83-1.61C25.66,21.65,24.28,22.23,23.27,23.26z"/>
</svg>
