<?xml version="1.0" encoding="utf-8"?>
<!-- Generator: Adobe Illustrator 16.0.0, SVG Export Plug-In . SVG Version: 6.00 Build 0)  -->
<!DOCTYPE svg PUBLIC "-//W3C//DTD SVG 1.1//EN" "http://www.w3.org/Graphics/SVG/1.1/DTD/svg11.dtd">
<svg version="1.1" id="Layer_1" xmlns="http://www.w3.org/2000/svg" xmlns:xlink="http://www.w3.org/1999/xlink" x="0px" y="0px"
	 width="59px" height="48px" viewBox="0 0 59 48" enable-background="new 0 0 59 48" xml:space="preserve">
<linearGradient id="SVGID_1_" gradientUnits="userSpaceOnUse" x1="46.0854" y1="-1.9517" x2="20.3763" y2="42.5778">
	<stop  offset="0" style="stop-color:#7A2AA6"/>
	<stop  offset="1" style="stop-color:#F8219F"/>
</linearGradient>
<path fill="url(#SVGID_1_)" d="M42.36,47.351c-0.54,0.01-0.98-0.43-0.99-0.97c0-0.54,0.44-0.98,0.98-0.99h0.01
	c0.55,0,0.99,0.44,0.99,0.98C43.35,46.92,42.91,47.351,42.36,47.351z M46.22,48c6.34-0.01,11.72-4.67,12.62-10.93
	c0.9-6.26-2.94-12.23-9.03-14.02c0.71-0.67,1.5-1.26,2.35-1.75l1.09-0.63l0.02-0.01l4.25-2.45c0.68-0.39,1.18-1.03,1.38-1.78
	c0.2-0.76,0.1-1.56-0.3-2.24l-7.37-12.72c-0.39-0.67-1.04-1.17-1.79-1.37c-0.76-0.2-1.56-0.1-2.24,0.29l-4.26,2.45l-8.56,4.93
	l-6.07-3.49c-1.89-1.09-4.2-1.18-6.17-0.23c-1.39,0.66-3.01,0.6-4.34-0.16L16.07,2.9l-0.01-0.01l-4.26-2.46
	c-0.68-0.38-1.48-0.49-2.24-0.28c-0.76,0.2-1.4,0.69-1.79,1.37L6.75,3.28c-0.27,0.47-0.11,1.07,0.36,1.34
	c0.47,0.27,1.07,0.11,1.35-0.36L9.48,2.5c0.12-0.23,0.34-0.39,0.59-0.46S10.59,2,10.82,2.13l3.4,1.96l-8.35,14.43l-3.41-1.96
	c-0.22-0.13-0.39-0.34-0.45-0.59c-0.07-0.25-0.04-0.52,0.1-0.75l4.03-6.94c0.26-0.47,0.1-1.07-0.37-1.33
	c-0.46-0.27-1.06-0.12-1.34,0.35l-4.03,6.94c-0.4,0.68-0.5,1.48-0.3,2.24c0.2,0.75,0.7,1.39,1.38,1.78l4.25,2.45l0.04,0.01l4.17,2.4
	c-0.75,0.74-1.11,1.78-0.99,2.82c0.13,1.04,0.73,1.97,1.63,2.51c-0.91,0.98-1.15,2.41-0.63,3.64s1.72,2.04,3.07,2.08
	c-0.1,0.94,0.21,1.88,0.83,2.59c0.63,0.71,1.53,1.13,2.48,1.15c-0.1,0.96,0.21,1.92,0.86,2.64c0.65,0.72,1.58,1.12,2.55,1.12
	c0.6,0,1.2-0.16,1.73-0.46l12.01-6.92c-0.02,0.32-0.05,0.65-0.05,0.98c0.02,3.9,1.81,7.58,4.89,9.99c0.2,0.18,0.47,0.26,0.74,0.22
	s0.51-0.19,0.66-0.41c0.29-0.43,0.21-1.01-0.19-1.35c-4.14-3.26-5.31-9.01-2.77-13.62c2.54-4.61,8.04-6.72,13.02-4.99
	c4.99,1.73,7.99,6.79,7.1,11.97c-0.88,5.18-5.39,8.97-10.66,8.96c-0.55,0-0.99,0.44-0.99,0.98S45.67,48,46.22,48z M48.18,2.09
	c0.47-0.27,1.07-0.11,1.34,0.36l7.38,12.73c0.27,0.46,0.11,1.06-0.36,1.33l-3.41,1.96L44.78,4.05L48.18,2.09z M33.93,31.771
	l-13.44,7.74c-0.71,0.39-1.61,0.16-2.02-0.53c-0.41-0.7-0.18-1.59,0.52-2l13.22-7.6c0.3-0.18,0.49-0.5,0.49-0.85
	c0-0.36-0.19-0.68-0.49-0.86c-0.31-0.17-0.68-0.17-0.99,0.01l-13.19,7.59h-0.01L18,35.28l-0.83,0.48c-0.71,0.4-1.61,0.16-2.01-0.54
	c-0.41-0.7-0.17-1.6,0.54-2.01l14.05-8.08c0.3-0.17,0.49-0.5,0.49-0.85c0-0.35-0.18-0.68-0.49-0.85c-0.31-0.18-0.68-0.17-0.99,0
	l-14.05,8.08c-0.19,0.11-0.36,0.24-0.53,0.39c-0.11,0.01-0.22,0.05-0.32,0.1c-0.7,0.41-1.61,0.17-2.01-0.54
	c-0.41-0.7-0.17-1.6,0.54-2L14,28.53l0.1-0.05l0.02-0.02l12.97-7.48c0.46-0.28,0.6-0.87,0.34-1.33c-0.27-0.46-0.85-0.62-1.32-0.37
	l-13.04,7.53c-0.7,0.35-1.57,0.11-1.98-0.56c-0.2-0.34-0.25-0.74-0.15-1.11c0.11-0.38,0.35-0.7,0.69-0.89l5.73-3.29
	c0.3-0.17,0.49-0.49,0.49-0.84s-0.19-0.68-0.49-0.85c-0.31-0.18-0.68-0.18-0.99,0l-4.6,2.64l-4.2-2.41l8.36-14.42l0.89,0.51
	c1.9,1.09,4.21,1.17,6.18,0.23c1.38-0.67,3-0.61,4.33,0.16l6.55,3.76l0.04,0.03l11.69,6.72l-0.06,0.11c-1.11,1.8-3.47,2.4-5.31,1.33
	l-11.9-6.85c-0.22-0.12-0.49-0.16-0.74-0.09c-0.26,0.06-0.47,0.23-0.6,0.45l-0.22,0.39c-0.83,1.46-1.97,3.46-4.06,4.03
	c-1.7,0.46-3.87-0.06-6.46-1.55c-0.47-0.27-1.08-0.11-1.35,0.36c-0.27,0.47-0.11,1.07,0.36,1.34c3.06,1.76,5.74,2.35,7.97,1.74
	c2.61-0.71,4.03-2.84,4.98-4.48l11.04,6.35c2.76,1.61,6.29,0.72,7.96-1.99l0.07-0.1c0.28-0.46,0.36-1,0.23-1.51
	c-0.13-0.52-0.46-0.96-0.92-1.22L36.35,8.9l6.72-3.87l8.36,14.43l-0.26,0.15c-1.38,0.79-2.61,1.8-3.66,2.99
	C41.35,21.971,35.63,25.84,33.93,31.771L33.93,31.771z M53.79,32.041c0.38-0.38,0.37-1-0.01-1.37c-0.38-0.38-0.99-0.39-1.38-0.01
	l-9.13,9.1l-3.24-3.23c-0.39-0.37-1-0.36-1.38,0.01c-0.38,0.38-0.39,0.99-0.01,1.38l3.93,3.92c0.38,0.38,1.01,0.38,1.39,0
	L53.79,32.041z"/>
</svg>
