<?xml version="1.0" encoding="utf-8"?>
<!-- Generator: Adobe Illustrator 25.0.0, SVG Export Plug-In . SVG Version: 6.00 Build 0)  -->
<svg version="1.1" id="Layer_1" xmlns="http://www.w3.org/2000/svg" xmlns:xlink="http://www.w3.org/1999/xlink" x="0px" y="0px"
	 width="59px" height="48px" viewBox="0 0 59 48" style="enable-background:new 0 0 59 48;" xml:space="preserve">
<style type="text/css">
	.st0{fill:url(#SVGID_1_);}
</style>
<linearGradient id="SVGID_1_" gradientUnits="userSpaceOnUse" x1="29.5" y1="0" x2="29.5" y2="48.0004">
	<stop  offset="0" style="stop-color:#7A2AA6"/>
	<stop  offset="1" style="stop-color:#F8219F"/>
</linearGradient>
<path class="st0" d="M42.4,47.4c-0.5,0-1-0.4-1-1c0-0.5,0.4-1,1-1h0c0.5,0,1,0.4,1,1C43.3,46.9,42.9,47.4,42.4,47.4z M46.2,48
	c6.3,0,11.7-4.7,12.6-10.9s-2.9-12.2-9-14c0.7-0.7,1.5-1.3,2.3-1.8l1.1-0.6l0,0l4.2-2.5c0.7-0.4,1.2-1,1.4-1.8
	c0.2-0.8,0.1-1.6-0.3-2.2L51.2,1.5c-0.4-0.7-1-1.2-1.8-1.4c-0.8-0.2-1.6-0.1-2.2,0.3l-4.3,2.5l-8.6,4.9l-6.1-3.5
	c-1.9-1.1-4.2-1.2-6.2-0.2c-1.4,0.7-3,0.6-4.3-0.2l-1.7-1l0,0l-4.3-2.5c-0.7-0.4-1.5-0.5-2.2-0.3C8.8,0.4,8.2,0.8,7.8,1.5l-1,1.8
	C6.5,3.8,6.6,4.4,7.1,4.6c0.5,0.3,1.1,0.1,1.3-0.4l1-1.8C9.6,2.3,9.8,2.1,10.1,2c0.2-0.1,0.5,0,0.8,0.1l3.4,2L5.9,18.5l-3.4-2
	C2.2,16.4,2.1,16.2,2,16c-0.1-0.2,0-0.5,0.1-0.8l4-6.9C6.4,7.8,6.2,7.2,5.8,7C5.3,6.7,4.7,6.8,4.4,7.3l-4,6.9
	c-0.4,0.7-0.5,1.5-0.3,2.2c0.2,0.8,0.7,1.4,1.4,1.8l4.2,2.4l0,0l4.2,2.4c-0.8,0.7-1.1,1.8-1,2.8c0.1,1,0.7,2,1.6,2.5
	c-0.9,1-1.1,2.4-0.6,3.6c0.5,1.2,1.7,2,3.1,2.1c-0.1,0.9,0.2,1.9,0.8,2.6c0.6,0.7,1.5,1.1,2.5,1.2c-0.1,1,0.2,1.9,0.9,2.6
	s1.6,1.1,2.5,1.1c0.6,0,1.2-0.2,1.7-0.5l12-6.9c0,0.3,0,0.6,0,1c0,3.9,1.8,7.6,4.9,10c0.2,0.2,0.5,0.3,0.7,0.2s0.5-0.2,0.7-0.4
	c0.3-0.4,0.2-1-0.2-1.3c-4.1-3.3-5.3-9-2.8-13.6c2.5-4.6,8-6.7,13-5c5,1.7,8,6.8,7.1,12c-0.9,5.2-5.4,9-10.7,9c-0.6,0-1,0.4-1,1
	S45.7,48,46.2,48z M48.2,2.1c0.5-0.3,1.1-0.1,1.3,0.4l7.4,12.7c0.3,0.5,0.1,1.1-0.4,1.3l-3.4,2L44.8,4.1L48.2,2.1z M33.9,31.8
	l-13.4,7.7c-0.7,0.4-1.6,0.2-2-0.5c-0.4-0.7-0.2-1.6,0.5-2l13.2-7.6c0.3-0.2,0.5-0.5,0.5-0.9c0-0.4-0.2-0.7-0.5-0.9
	c-0.3-0.2-0.7-0.2-1,0L18,35.3h0l0,0l-0.8,0.5c-0.7,0.4-1.6,0.2-2-0.5c-0.4-0.7-0.2-1.6,0.5-2l14.1-8.1c0.3-0.2,0.5-0.5,0.5-0.9
	c0-0.3-0.2-0.7-0.5-0.8c-0.3-0.2-0.7-0.2-1,0l-14.1,8.1c-0.2,0.1-0.4,0.2-0.5,0.4c-0.1,0-0.2,0-0.3,0.1c-0.7,0.4-1.6,0.2-2-0.5
	c-0.4-0.7-0.2-1.6,0.5-2l1.6-0.9l0.1,0l0,0l13-7.5c0.5-0.3,0.6-0.9,0.3-1.3c-0.3-0.5-0.9-0.6-1.3-0.4l-13,7.5
	c-0.7,0.4-1.6,0.1-2-0.6c-0.2-0.3-0.2-0.7-0.2-1.1c0.1-0.4,0.4-0.7,0.7-0.9l5.7-3.3c0.3-0.2,0.5-0.5,0.5-0.8c0-0.3-0.2-0.7-0.5-0.8
	c-0.3-0.2-0.7-0.2-1,0l-4.6,2.6l-4.2-2.4l8.4-14.4l0.9,0.5C18.7,6.7,21,6.8,23,5.8c1.4-0.7,3-0.6,4.3,0.2l6.6,3.8l0,0l11.7,6.7
	l-0.1,0.1c-1.1,1.8-3.5,2.4-5.3,1.3l-11.9-6.9c-0.2-0.1-0.5-0.2-0.7-0.1c-0.3,0.1-0.5,0.2-0.6,0.4l-0.2,0.4c-0.8,1.5-2,3.5-4.1,4
	c-1.7,0.5-3.9-0.1-6.5-1.6c-0.5-0.3-1.1-0.1-1.4,0.4c-0.3,0.5-0.1,1.1,0.4,1.3c3.1,1.8,5.7,2.3,8,1.7c2.6-0.7,4-2.8,5-4.5l11,6.3
	c2.8,1.6,6.3,0.7,8-2l0.1-0.1c0.3-0.5,0.4-1,0.2-1.5c-0.1-0.5-0.5-1-0.9-1.2L36.3,8.9L43.1,5l8.4,14.4l-0.3,0.1
	c-1.4,0.8-2.6,1.8-3.7,3C41.3,22,35.6,25.8,33.9,31.8L33.9,31.8z M53.8,32c0.4-0.4,0.4-1,0-1.4c-0.4-0.4-1-0.4-1.4,0l-9.1,9.1
	L40,36.5c-0.4-0.4-1-0.4-1.4,0c-0.4,0.4-0.4,1,0,1.4l3.9,3.9c0.4,0.4,1,0.4,1.4,0L53.8,32z"/>
</svg>
