<?xml version="1.0" encoding="utf-8"?>
<!-- Generator: Adobe Illustrator 21.0.0, SVG Export Plug-In . SVG Version: 6.00 Build 0)  -->
<svg version="1.1" id="Layer_1" xmlns="http://www.w3.org/2000/svg" xmlns:xlink="http://www.w3.org/1999/xlink" x="0px" y="0px"
	 viewBox="0 0 48 48.5" style="enable-background:new 0 0 48 48.5;" xml:space="preserve">
<style type="text/css">
	.st0{fill-rule:evenodd;clip-rule:evenodd;fill:url(#SVGID_1_);}
</style>
<linearGradient id="SVGID_1_" gradientUnits="userSpaceOnUse" x1="0" y1="24.25" x2="47.9963" y2="24.25">
	<stop  offset="0" style="stop-color:#792AA6"/>
	<stop  offset="1" style="stop-color:#F8219F"/>
</linearGradient>
<path class="st0" d="M36,8.3c0-1.1-0.4-2.3-1.2-3.1l-3.5-4c-0.8-0.8-1.9-1.2-3-1.2H28v8.5h8V8.3z M7,18.5c-0.8,0-1.4-0.2-1.4-1
	c0-0.8,0.6-2,1.4-2h19.6c0.8,0,1.4,1.3,1.4,2c0,0.8-0.6,1-1.4,1H7z M26.7,39.5c0.8,0,1.4,0.9,1.4,1.7c0,0.8-0.6,1.3-1.4,1.3h-8.4
	c-0.8,0-1.4-0.5-1.4-1.3c0-0.8,0.6-1.7,1.4-1.7H26.7z M5.6,32.7c0-0.8,0.6-2.2,1.4-2.2h14c0.8,0,1.4,1.4,1.4,2.2
	c0,0.8-0.6,0.8-1.4,0.8H7C6.3,33.5,5.6,33.4,5.6,32.7z M5.6,22.9c0-0.8,0.6-2.4,1.4-2.4h14c0.8,0,1.4,1.6,1.4,2.4
	c0,0.8-0.6,0.6-1.4,0.6H7C6.3,23.5,5.6,23.7,5.6,22.9z M7,25.5h14c0.8,0,1.4,0.8,1.4,1.6c0,0.8-0.6,1.4-1.4,1.4H7
	c-0.8,0-1.4-0.4-1.4-1.2C5.6,26.5,6.3,25.5,7,25.5z M25.7,29c0.3-0.8,1.2-1.6,1.8-2.2l9.5-9.5v-5.8H26.8c-0.8,0-1.8-0.6-1.8-1.4V0.5
	H4.2C1.9,0.5,0,2.4,0,4.7v39.6c0,2.3,1.9,4.2,4.2,4.2h28.5c2.3,0,4.3-1.9,4.3-4.2v-11l-1.5,1.5c-0.6,0.6-1.8,1.9-2.6,2.2l-4.5,1.5
	h-0.7c-1.1,0-2.2-0.5-2.9-1.5c-0.7-0.9-0.8-2.9-0.5-4L25.7,29z M28.2,30.3L27,33.9c-0.2,0.5,0.3,1.1,0.9,0.9l3.7-1.2L28.2,30.3z
	 M39.2,18.7L29.9,28l4,4l9.3-9.3L39.2,18.7z M47.2,14.6c-0.5-0.5-1.2-0.8-2-0.8s-1.5,0.3-2,0.8l-2,2.1l4,4l2-2
	C48.3,17.5,48.3,15.8,47.2,14.6z"/>
</svg>
