<?xml version="1.0" encoding="utf-8"?>
<!-- Generator: Adobe Illustrator 25.0.0, SVG Export Plug-In . SVG Version: 6.00 Build 0)  -->
<svg version="1.1" id="Layer_1" xmlns="http://www.w3.org/2000/svg" xmlns:xlink="http://www.w3.org/1999/xlink" x="0px" y="0px"
	 width="48px" height="48px" viewBox="0 0 48 48" style="enable-background:new 0 0 48 48;" xml:space="preserve">
<style type="text/css">
	.st0{fill-rule:evenodd;clip-rule:evenodd;fill:url(#SVGID_1_);}
</style>
<linearGradient id="SVGID_1_" gradientUnits="userSpaceOnUse" x1="24" y1="0" x2="24" y2="48">
	<stop  offset="0" style="stop-color:#7A2AA6"/>
	<stop  offset="1" style="stop-color:#F8219F"/>
</linearGradient>
<path class="st0" d="M46.4,28.1c0,0.2-0.1,0.3-0.2,0.5c-0.1,0.1-0.3,0.2-0.5,0.2H31c0.1-0.3,0.1-0.6,0.2-1c1.4-0.8,2.3-2.2,2.4-3.8
	V24c3.2-0.2,6.1-1.2,7.6-2.9l2.4,0.2c1.6,0.2,2.8,1.5,2.7,3V28.1z M37.6,41.3v4.3c0,0.2-0.1,0.5-0.2,0.6s-0.4,0.2-0.6,0.2h-9.4
	l-1.1-2.9c0.4-0.3,0.7-0.7,0.8-1.1l0.1,0c0.1,0,0.1,0,0.2,0c0.2,0,0.4-0.1,0.5-0.2l5.3-4.8l1.2,0.2C36.2,37.8,37.6,39.4,37.6,41.3z
	 M10.4,45.5v-4.3c0-1.9,1.4-3.4,3.3-3.6l1.2-0.2l5.3,4.8c0.1,0.1,0.3,0.2,0.5,0.2c0.1,0,0.1,0,0.2,0l0.1,0c0.2,0.4,0.5,0.8,0.8,1.1
	l-1.1,2.9h-9.4c-0.2,0-0.4-0.1-0.6-0.2C10.5,46,10.4,45.8,10.4,45.5z M2.3,28.8c-0.2,0-0.3-0.1-0.5-0.2c-0.1-0.1-0.2-0.3-0.2-0.5
	v-3.8c0-1.6,1.2-2.9,2.8-3L6,21.1c1.7,1.8,4.9,2.9,8.4,2.9c0.2,1.6,1.1,3,2.4,3.8c0,0.3,0.1,0.7,0.1,1H2.3z M11.2,16.5
	c1.9,1.4,4.5,1.4,6.4,0c0,0.2,0,0.3,0.1,0.5c-0.6,0.9-0.9,1.9-0.9,3v1.1c-0.4,0-0.9,0.1-1.3,0.3c-0.4,0.2-0.7,0.6-0.8,1l-0.3,0
	c-2.2,0.1-4.4-0.5-6.4-1.6C9.9,20.2,11.1,18.5,11.2,16.5L11.2,16.5z M8.9,10.6c-0.3,0-0.4-0.3-0.9-1.3l0-0.1
	C7.5,8.1,7.8,7.1,8.3,6.8l0.1,0.1C8.7,7,9,7,9.2,6.9c0.2-0.1,0.4-0.4,0.4-0.7V5.6c0-2.1,1.7-3.9,3.8-4h1.9c2.1,0.1,3.9,1.9,3.8,4
	v0.6c0,0.3,0.1,0.5,0.4,0.7c0.2,0.2,0.5,0.2,0.8,0l0.1-0.1c0.5,0.2,0.8,1.2,0.3,2.3l0,0.1c-0.4,1.1-0.6,1.3-0.9,1.3
	c-0.4,0-0.7,0.3-0.8,0.7c-0.4,2.3-2.3,4.8-4.7,4.8s-4.3-2.4-4.7-4.8C9.6,10.9,9.3,10.6,8.9,10.6z M22.4,16h3.2c2.2,0,4,1.8,4,4v0.9
	c-0.3,0-0.5-0.1-0.8-0.1c-2.2,0-2.4-2.2-2.4-2.4v0c0-0.1,0-0.2-0.1-0.2l0,0c-0.1-0.1-0.1-0.2-0.2-0.2l0,0l0,0l-0.3-0.1l-0.1,0
	c-0.1,0-0.1,0-0.2,0h0c0,0-0.1,0-0.2,0l-0.1,0l-0.1,0.1c0,0-0.1,0.1-0.1,0.1l0,0c0,0-2.4,2.9-5,2.9c-0.5,0-1.1,0-1.6,0.1V20
	C18.4,17.8,20.2,16,22.4,16z M27.3,10.6c-0.3,0-0.5-0.3-0.9-1.3l0-0.1c-0.5-1.1-0.2-2.1,0.3-2.3l0.1,0.1c0.2,0.1,0.5,0.1,0.8,0
	C27.9,6.7,28,6.5,28,6.2V5.6c0-2.1,1.7-3.9,3.8-4h1.9c2.1,0.1,3.8,1.9,3.8,4v0.6c0,0.3,0.1,0.5,0.4,0.7c0.2,0.2,0.5,0.2,0.8,0
	l0.1-0.1c0.5,0.2,0.8,1.2,0.3,2.3l0,0.1c-0.5,1.1-0.6,1.3-0.9,1.3c-0.4,0-0.7,0.3-0.8,0.7c-0.4,2.3-2.3,4.8-4.7,4.8
	s-4.3-2.4-4.7-4.8C28,10.9,27.7,10.6,27.3,10.6z M30.2,26.5L30.2,26.5c-0.1,0-0.1,0.1-0.2,0.1l-0.1,0.1l-0.1,0.1
	c0,0-0.1,0.1-0.1,0.1l0,0.1c0,0.1,0,0.1,0,0.2l0,0.1c0,2-1.1,3.8-2.8,4.9c-1.7,1-3.9,1-5.6,0c-1.7-1-2.8-2.8-2.8-4.8l0,0
	c0-0.1,0-0.1,0-0.2c0-0.2-0.2-0.4-0.4-0.5c0,0-0.1-0.1-0.1-0.1l0,0c-1-0.5-1.6-1.4-1.8-2.5c0-0.6,0.1-1.1,0.4-1.2
	c0.1,0,0.1-0.1,0.2-0.1c0.1,0.7,0.3,1.3,0.7,1.9c0.1,0.3,0.4,0.4,0.7,0.4c0.3,0,0.6-0.1,0.7-0.4c0.1-0.2,0.1-0.6,0-0.8
	c-0.2-0.4-0.4-0.8-0.5-1.1l0-0.1l0,0c0.6-0.2,1.1-0.2,1.7-0.2c2.1,0,4.1-1.4,5.2-2.4c0.6,1.5,2,2.5,3.6,2.4c0.3,0,0.6,0,0.9,0.1l0,0
	l0,0l0,0c0,0.5-0.1,1.1-0.4,1.5c-0.2,0.4,0,0.9,0.5,1s0.9-0.1,1-0.5c0.3-0.6,0.4-1.3,0.5-2c0.1,0,0.2,0,0.3,0.1
	c0.2,0.1,0.4,0.6,0.4,1.2C31.8,25.1,31.2,26,30.2,26.5z M25.2,37.2C25.2,37.2,25.2,37.2,25.2,37.2c-0.1,0.1-0.2,0.1-0.2,0.2
	c0,0,0,0,0,0l-0.6,1h-0.7l-0.6-1c0,0,0,0,0,0c-0.1-0.1-0.1-0.1-0.2-0.2c0,0,0,0-0.1-0.1l-3.3-2.1c0.4-0.5,0.6-1.1,0.8-1.8
	c2.3,1.4,5.2,1.4,7.5,0c0.2,0.6,0.4,1.2,0.8,1.8L25.2,37.2z M23.3,44h1.4l0.9,2.4h-3.2L23.3,44z M24.8,40c0.4,0,0.8,0.4,0.8,0.8v0.8
	c0,0.4-0.4,0.8-0.8,0.8h-1.6c-0.4,0-0.8-0.4-0.8-0.8v-0.8c0-0.4,0.4-0.8,0.8-0.8H24.8z M18.3,36.2l3,1.9l-0.9,2.2L16.8,37
	C17.4,36.9,17.9,36.6,18.3,36.2z M31.2,37l-3.6,3.3l-0.9-2.2l3-1.9C30.1,36.6,30.6,36.9,31.2,37z M39.2,20.7
	c-1.8,1.1-3.8,1.6-5.9,1.6c-0.2-0.4-0.5-0.8-0.9-1c-0.4-0.2-0.8-0.3-1.2-0.3V20c0-1.1-0.3-2.1-0.9-3c0.8,0.4,1.6,0.6,2.5,0.6
	c1.2,0,2.3-0.4,3.2-1C36.2,18.5,37.4,20.1,39.2,20.7z M43.8,19.8l-3.2-0.3c-1.6-0.1-2.9-1.4-3-3.1V15c0.7-0.9,1.1-1.9,1.4-3
	c0.9-0.3,1.3-1.2,1.7-2.2l0-0.1C41.5,7.9,41,6,39.5,5.3c-0.1,0-0.2-0.1-0.3-0.1C39,2.3,36.7,0.1,33.8,0h-1.9
	c-2.9,0.1-5.2,2.3-5.4,5.2c-0.1,0-0.2,0.1-0.3,0.1c-1.4,0.6-2,2.6-1.2,4.4l0,0.1c0.4,0.9,0.8,1.8,1.7,2.2c0.2,1,0.7,2,1.3,2.9
	c-0.7-0.4-1.5-0.5-2.4-0.5h-3.2c-1.1,0-2.3,0.4-3.2,1V15c0.6-0.9,1.1-1.9,1.4-3c0.9-0.3,1.3-1.2,1.7-2.2l0-0.1
	c0.8-1.8,0.3-3.8-1.2-4.4c-0.1,0-0.2-0.1-0.3-0.1c-0.2-2.9-2.5-5.2-5.4-5.2h-1.9C10.5,0.1,8.2,2.4,8,5.2c-0.1,0-0.2,0.1-0.3,0.1
	C6.2,6,5.7,7.9,6.5,9.8l0,0.1C7,10.8,7.4,11.7,8.2,12c0.3,1.1,0.7,2.1,1.4,3v1.4c0,1.6-1.2,2.9-2.8,3.1l-2.7,0.3C1.8,20,0,22,0,24.4
	v3.8c0,1.2,1,2.2,2.2,2.2h15.3c0.3,0.6,0.7,1.2,1.2,1.7c0,1.9-1.4,3.4-3.3,3.5l-2,0.4c-2.7,0.3-4.7,2.5-4.7,5.2v4.3
	c0,1.4,1.1,2.5,2.5,2.5h25.5c1.4,0,2.5-1.1,2.5-2.5v-4.3c0-2.7-2-4.9-4.6-5.2l-2.1-0.4c-1.8-0.2-3.2-1.7-3.2-3.5
	c0.5-0.5,0.9-1.1,1.2-1.7h15.3c1.2,0,2.2-1,2.2-2.2v-3.8C48,22,46.2,20,43.8,19.8z"/>
</svg>
