<?xml version="1.0" encoding="utf-8"?>
<!-- Generator: Adobe Illustrator 25.0.0, SVG Export Plug-In . SVG Version: 6.00 Build 0)  -->
<svg version="1.1" id="Layer_1" xmlns="http://www.w3.org/2000/svg" xmlns:xlink="http://www.w3.org/1999/xlink" x="0px" y="0px"
	 width="48px" height="48px" viewBox="0 0 48 48" style="enable-background:new 0 0 48 48;" xml:space="preserve">
<style type="text/css">
	.st0{fill-rule:evenodd;clip-rule:evenodd;fill:url(#SVGID_1_);}
</style>
<linearGradient id="SVGID_1_" gradientUnits="userSpaceOnUse" x1="23.997" y1="0" x2="23.997" y2="48.0075">
	<stop  offset="0" style="stop-color:#7A2AA6"/>
	<stop  offset="1" style="stop-color:#F8219F"/>
</linearGradient>
<path class="st0" d="M33.3,44.4L30.2,37c3-1.4,5.3-3.8,6.7-6.7l7.4,3.1C42.1,38.2,38.2,42.1,33.3,44.4z M16.2,45l3.1-7.4
	c3.1,1.1,6.4,1.1,9.5,0l3.1,7.4C26.8,46.9,21.2,46.9,16.2,45z M6.5,38c-1.2-1.4-2.1-3-2.9-4.7l7.4-3.1c1.4,3,3.8,5.3,6.7,6.7
	l-3.1,7.4C11.5,42.9,8.7,40.7,6.5,38z M14.7,3.6l3.1,7.4c-2.9,1.4-5.3,3.8-6.7,6.7l-7.4-3.1C5.9,9.8,9.8,5.9,14.7,3.6z M31.8,3
	l-3.1,7.4c-3.1-1.1-6.4-1.1-9.5,0L16.2,3C21.2,1.1,26.8,1.1,31.8,3z M35,7.4l-0.6-0.6c-0.2-0.2-0.5-0.3-0.8-0.2
	c-0.3,0.1-0.5,0.3-0.6,0.6c-0.1,0.3,0,0.6,0.2,0.8l0.6,0.6L31,11.4c-0.2-0.1-0.5-0.3-0.8-0.4l3.1-7.4c1.2,0.6,2.4,1.2,3.5,2L35,7.4z
	 M42.3,2.4c1-0.9,2.5-0.9,3.4,0c0.5,0.5,0.7,1.1,0.7,1.7c0,0.6-0.2,1.2-0.7,1.7l-6.1,6.1l-1.7-1.7l-1.7-1.7L42.3,2.4z M44.4,14.7
	l-7.4,3.1c-0.1-0.2-0.2-0.5-0.3-0.7l3-2.9l0.6,0.6c0.2,0.2,0.5,0.3,0.8,0.2c0.3-0.1,0.5-0.3,0.6-0.6c0.1-0.3,0-0.6-0.2-0.8L40.7,13
	l1.7-1.7C43.2,12.4,43.8,13.5,44.4,14.7z M23.1,22.2c-0.5,0.1-0.9,0.3-1.2,0.6c-0.3,0.3-0.3,0.8,0,1.1c0.3,0.3,0.8,0.3,1.1,0
	c0.3-0.3,0.8-0.3,1.1,0c0.1,0.1,0.2,0.3,0.2,0.6c0,0.2-0.1,0.4-0.2,0.6c-0.3,0.3-0.3,0.8,0,1.1c0.3,0.3,0.8,0.3,1.1,0
	c0.3-0.3,0.6-0.8,0.7-1.2c0.6,0.2,1.3,0.2,2,0c0,0.2-0.1,0.4-0.2,0.5c-0.7,1.7-2.6,2.7-4.4,2.4c-1.9-0.4-3.2-2-3.3-3.8
	c0-1.9,1.2-3.5,3.1-4C22.9,20.8,22.9,21.5,23.1,22.2z M38.4,13l-9.8,9.8c-0.9,0.9-2.5,0.9-3.4,0c-0.9-0.9-0.9-2.5,0-3.4L35,9.6
	L38.4,13z M1.9,27.8l-0.1-0.8v0c-0.3-2.2-0.3-4.4,0.1-6.6l0-0.1c0-0.3,0.1-0.5,0.2-0.8c0.1-0.6,0.3-1.1,0.4-1.7
	c0.2-0.6,0.4-1.1,0.6-1.7l7.4,3.1c-1.1,3.1-1.1,6.4,0,9.5L3,31.8C2.5,30.5,2.2,29.2,1.9,27.8z M19.1,35.8L19.1,35.8L19.1,35.8
	c-6.5-2.7-9.6-10.2-7-16.7l0,0l0,0c2.7-6.5,10.2-9.6,16.7-6.9l0,0h0c0.3,0.1,0.6,0.3,0.9,0.4l-5.7,5.7c0,0-0.1,0.1-0.1,0.1
	c-2.8,0-5.2,2.1-5.5,4.9c-0.4,2.8,1.4,5.4,4.1,6.1c2.7,0.7,5.5-0.7,6.6-3.3c0.3-0.6,0.4-1.3,0.4-2c0.1,0,0.1-0.1,0.2-0.1l5.7-5.7
	c0.1,0.3,0.3,0.5,0.4,0.8c1.3,3.1,1.3,6.6,0,9.8l0,0v0C33.1,35.4,25.6,38.5,19.1,35.8z M45,31.8l-7.4-3.1c1.1-3.1,1.1-6.4,0-9.5
	l7.4-3.1C46.9,21.2,46.9,26.8,45,31.8z M46.2,14.8L46.2,14.8L46.2,14.8c-0.7-1.7-1.6-3.2-2.6-4.7l3.2-3.3c1-1,1.4-2.5,1-3.9
	c-0.4-1.4-1.4-2.4-2.8-2.8c-1.4-0.4-2.9,0-3.9,1l-3.2,3.2c-1.5-1.1-3.1-1.9-4.8-2.6l0,0l0,0c-5.9-2.5-12.5-2.5-18.4,0l0,0l0,0
	c-5.9,2.4-10.6,7.1-13,13v0l0,0c-0.4,0.9-0.7,1.7-0.9,2.6c-0.2,0.6-0.3,1.2-0.4,1.7c-0.1,0.3-0.1,0.6-0.2,0.9l0,0.1
	c0,0.2-0.1,0.3-0.1,0.5v0c-0.1,1-0.2,2.1-0.2,3.1c0,0.1,0,0.2,0,0.3c0,1.3,0.1,2.7,0.3,4c0.3,1.7,0.8,3.3,1.4,4.9c0,0.1,0,0.1,0,0.2
	c0,0.1,0.1,0.1,0.1,0.2c0.8,2,2,3.9,3.3,5.6c2.5,3.1,5.8,5.6,9.5,7.2l0,0h0c5.8,2.4,12.4,2.4,18.2,0c0.1,0,0.2,0,0.3-0.1
	c5.8-2.4,10.4-7.1,12.9-12.9l0,0l0,0C48.6,27.3,48.6,20.7,46.2,14.8z"/>
</svg>
