<?xml version="1.0" encoding="utf-8"?>
<!-- Generator: Adobe Illustrator 16.0.0, SVG Export Plug-In . SVG Version: 6.00 Build 0)  -->
<!DOCTYPE svg PUBLIC "-//W3C//DTD SVG 1.1//EN" "http://www.w3.org/Graphics/SVG/1.1/DTD/svg11.dtd">
<svg version="1.1" id="Layer_1" xmlns="http://www.w3.org/2000/svg" xmlns:xlink="http://www.w3.org/1999/xlink" x="0px" y="0px"
	 width="42.76px" height="54px" viewBox="284.85 369.02 42.76 54" enable-background="new 284.85 369.02 42.76 54"
	 xml:space="preserve">
<linearGradient id="SVGID_1_" gradientUnits="userSpaceOnUse" x1="320.2832" y1="419.1816" x2="293.0869" y2="372.0763" gradientTransform="matrix(1 0 0 -1 0 793)">
	<stop  offset="0" style="stop-color:#7A2AA6"/>
	<stop  offset="1" style="stop-color:#F8219F"/>
</linearGradient>
<path fill="url(#SVGID_1_)" d="M290.6,414.32c0.49,0,0.9-0.41,0.9-0.9c0-0.5-0.41-0.9-0.9-0.9c-0.5,0-0.9,0.4-0.9,0.9
	C289.7,413.91,290.1,414.32,290.6,414.32z M292.96,388.3l5,5.02l-1.17,6.96c-2.6-2.54-4.06-6.03-4.06-9.66
	c0-0.78,0.08-1.56,0.22-2.32H292.96L292.96,388.3z M293.31,386.79l0.38-0.44l7.66-1.13c0.61-0.08,1.14-0.46,1.4-1.02l3.48-7.08
	h0.039l3.44,7.05c0.25,0.57,0.78,0.96,1.4,1.05l7.72,1.13l0.07-0.47l-0.051,0.55l-5.56,5.49c-0.44,0.43-0.63,1.04-0.53,1.64
	l1.311,7.74l-0.07,0.08l-6.87-3.62c-0.54-0.3-1.19-0.3-1.73,0l-6.9,3.66l-0.07-0.07l1.31-7.74c0.1-0.6-0.1-1.22-0.53-1.65l-5.58-5.5
	L293.31,386.79z M293.31,386.79l-0.05,0.05l0.03-0.05H293.31z M304.11,377.3l-3.02,6.12l-6.86,1.02
	C296.21,380.63,299.87,377.98,304.11,377.3z M318.23,384.45l-6.91-1.03l-2.971-6.12C312.59,377.98,316.26,380.63,318.23,384.45z
	 M319.73,390.62c0,3.62-1.461,7.09-4.051,9.63l-1.16-7.02l4.99-4.93C319.65,389.06,319.73,389.84,319.73,390.62z M306.23,404.12
	c-2.15,0-4.26-0.521-6.17-1.5l6.17-3.28l6.149,3.28C310.48,403.6,308.37,404.12,306.23,404.12z M306.23,405.92
	c8.449,0,15.3-6.85,15.3-15.3s-6.851-15.3-15.3-15.3c-8.45,0-15.3,6.85-15.3,15.3S297.78,405.92,306.23,405.92z M287.44,387.16
	c0.68-0.34,1.21-0.91,1.52-1.61c0.12-0.76-0.02-1.54-0.41-2.2c-0.13-0.29-0.25-0.6-0.35-0.9c0.31-0.18,0.63-0.32,0.97-0.4
	c0.76-0.14,1.43-0.54,1.92-1.13c0.34-0.69,0.42-1.48,0.24-2.23c-0.05-0.32-0.08-0.65-0.08-0.98c0.34-0.09,0.69-0.13,1.04-0.11
	c0.76,0.07,1.52-0.12,2.16-0.55c0.51-0.57,0.81-1.3,0.84-2.06c0.04-0.34,0.11-0.66,0.21-0.98c0.35,0.01,0.69,0.07,1.02,0.18
	c0.71,0.29,1.51,0.32,2.24,0.09c0.65-0.41,1.13-1.02,1.39-1.74c0.13-0.31,0.28-0.61,0.46-0.9c0.32,0.11,0.63,0.26,0.9,0.46
	c0.61,0.47,1.36,0.72,2.13,0.71c0.73-0.2,1.36-0.65,1.8-1.27c0.24-0.27,0.5-0.51,0.791-0.72c0.289,0.19,0.56,0.43,0.77,0.71
	c0.44,0.62,1.08,1.07,1.8,1.27c0.771,0.02,1.521-0.23,2.13-0.71c0.29-0.18,0.59-0.34,0.9-0.48c0.22,0.27,0.399,0.58,0.53,0.9
	c0.25,0.72,0.739,1.34,1.39,1.74c0.73,0.23,1.52,0.2,2.24-0.08c0.31-0.1,0.63-0.17,0.96-0.22c0.14,0.32,0.229,0.66,0.26,1.01
	c0.04,0.76,0.34,1.49,0.85,2.06c0.631,0.43,1.4,0.62,2.171,0.55c0.329-0.01,0.659,0.02,0.989,0.06c0.05,0.35,0.05,0.7,0,1.05
	c-0.189,0.74-0.1,1.52,0.23,2.21c0.479,0.58,1.14,0.98,1.88,1.13c0.31,0.09,0.61,0.21,0.9,0.35c-0.061,0.34-0.171,0.67-0.32,0.98
	c-0.391,0.66-0.53,1.44-0.41,2.2c0.31,0.7,0.84,1.27,1.52,1.61c0.29,0.18,0.561,0.38,0.811,0.61c-0.15,0.3-0.351,0.58-0.58,0.83
	c-0.56,0.54-0.92,1.25-1.02,2.02c0.1,0.77,0.46,1.48,1.02,2.02c0.21,0.24,0.41,0.5,0.59,0.77c-0.229,0.26-0.51,0.49-0.82,0.67
	c-0.68,0.34-1.21,0.91-1.52,1.61c-0.12,0.76,0.02,1.54,0.41,2.2c0.13,0.3,0.25,0.59,0.35,0.9c-0.31,0.18-0.63,0.31-0.979,0.399
	c-0.75,0.141-1.42,0.54-1.91,1.131c-0.34,0.689-0.42,1.479-0.24,2.229c0.05,0.32,0.08,0.65,0.09,0.98
	c-0.35,0.09-0.7,0.13-1.05,0.109c-0.76-0.069-1.52,0.12-2.16,0.55c-0.069,0.07-0.13,0.141-0.18,0.221l-0.1,0.109
	c-0.04,0.061-0.091,0.131-0.12,0.19c-0.23,0.49-0.37,1-0.44,1.53c-0.04,0.34-0.11,0.66-0.2,0.989c-0.35-0.02-0.689-0.079-1.02-0.189
	c-0.72-0.29-1.51-0.311-2.24-0.09c-0.62,0.39-1.09,0.979-1.32,1.67l-0.08,0.13c-0.13,0.31-0.279,0.61-0.46,0.9
	c-0.33-0.11-0.63-0.271-0.899-0.461c-0.61-0.479-1.36-0.729-2.13-0.71c-0.73,0.2-1.36,0.65-1.801,1.261
	c-0.229,0.27-0.5,0.489-0.789,0.68c-0.28-0.2-0.53-0.44-0.75-0.7c-0.43-0.62-1.07-1.069-1.8-1.27c-0.08-0.011-0.16-0.011-0.24,0
	c-0.68,0.069-1.33,0.319-1.88,0.729c-0.29,0.181-0.59,0.34-0.9,0.471c-0.22-0.261-0.4-0.57-0.53-0.891
	c-0.25-0.729-0.75-1.34-1.4-1.74c-0.73-0.229-1.52-0.199-2.23,0.08c-0.31,0.101-0.64,0.17-0.96,0.21c-0.14-0.31-0.23-0.659-0.26-1
	c-0.04-0.77-0.34-1.489-0.85-2.06c-0.64-0.43-1.4-0.63-2.17-0.55c-0.33,0-0.66-0.021-0.99-0.07c-0.05-0.34-0.05-0.69,0-1.03
	c0.18-0.75,0.1-1.529-0.23-2.22c-0.48-0.6-1.16-1.01-1.91-1.16c-0.31-0.09-0.61-0.21-0.9-0.35c0.06-0.34,0.17-0.67,0.32-0.98
	c0.39-0.66,0.53-1.439,0.41-2.2c-0.3-0.7-0.84-1.27-1.52-1.61c-0.29-0.18-0.56-0.38-0.81-0.61c0.15-0.3,0.35-0.58,0.58-0.83
	c0.57-0.54,0.92-1.25,1.02-2.02c-0.1-0.77-0.46-1.48-1.02-2.02c-0.21-0.24-0.41-0.5-0.59-0.77
	C286.86,387.57,287.13,387.34,287.44,387.16z M322.43,417.08l-5.399-1.2l-2.83-6.899c0.06-0.131,0.149-0.24,0.25-0.341
	c0.35,0,0.689,0.061,1.02,0.181c0.78,0.34,1.66,0.34,2.431,0c0.33-0.221,0.58-0.53,0.71-0.9L322.43,417.08z M312.45,421.22
	l-4.23-10.21l0.09-0.1c0.21-0.26,0.46-0.49,0.73-0.69c0.32,0.11,0.62,0.271,0.9,0.471c0.649,0.54,1.489,0.779,2.329,0.659
	c0.28-0.09,0.53-0.239,0.74-0.439l2.351,5.66L312.45,421.22z M300,421.22l-2.94-4.64l2.35-5.67c0.2,0.21,0.46,0.359,0.74,0.45
	c0.83,0.12,1.68-0.12,2.33-0.66c0.28-0.2,0.58-0.36,0.9-0.48c0.28,0.2,0.54,0.44,0.75,0.7l0.09,0.1L300,421.22z M284.85,393.69
	c0.23,0.82,0.81,1.5,1.58,1.87c0.29,0.18,0.56,0.39,0.8,0.63c-0.06,0.35-0.17,0.689-0.33,1c-0.45,0.729-0.56,1.609-0.32,2.43
	c0.46,0.72,1.21,1.2,2.05,1.34c0.33,0.08,0.64,0.21,0.94,0.38c0.06,0.351,0.06,0.7,0,1.04c-0.21,0.82-0.08,1.69,0.38,2.41
	c0.64,0.55,1.49,0.81,2.33,0.71h0.64l-1.76,4.25c-0.18,0.46,0.03,0.98,0.49,1.17c0.45,0.17,0.96-0.05,1.14-0.5l1.06-2.55
	c0.13,0.37,0.38,0.689,0.71,0.899c0.77,0.351,1.65,0.351,2.43,0c0.32-0.1,0.66-0.149,1.01-0.149c0.1,0.1,0.19,0.229,0.26,0.36
	l-2.83,6.899l-5.4,1.21c0.16-0.3,0.14-0.67-0.06-0.95c-0.2-0.279-0.54-0.42-0.88-0.359c-0.34,0.06-0.62,0.3-0.72,0.62
	c-0.25,0.63-0.14,1.34,0.29,1.85c0.44,0.51,1.12,0.74,1.78,0.59l5.19-1.17l2.85,4.5c0.33,0.53,0.9,0.85,1.52,0.85h0.15
	c0.68-0.06,1.26-0.479,1.52-1.109l4.05-9.76c0.33,0.109,0.69,0.109,1.021,0l4.05,9.76c0.26,0.63,0.84,1.05,1.52,1.109h0.15
	c0.61,0,1.18-0.319,1.51-0.84l2.86-4.5l5.189,1.16c0.65,0.15,1.33-0.07,1.771-0.58c0.43-0.51,0.55-1.22,0.3-1.85l-4.5-10.891h0.64
	c0.841,0.101,1.69-0.159,2.33-0.72c0.471-0.729,0.61-1.64,0.37-2.479c-0.06-0.34-0.06-0.69,0-1.03c0.29-0.18,0.61-0.31,0.95-0.39
	c0.81-0.131,1.54-0.601,2-1.28c0.24-0.811,0.12-1.68-0.32-2.4c-0.159-0.31-0.27-0.64-0.33-0.979c0.23-0.271,0.5-0.49,0.801-0.67
	c0.68-0.47,1.46-0.99,1.58-1.88c-0.011-0.83-0.36-1.61-0.98-2.17c-0.24-0.27-0.45-0.57-0.6-0.9c0.149-0.33,0.35-0.64,0.6-0.9
	c0.63-0.56,0.98-1.37,0.98-2.2c-0.24-0.81-0.82-1.48-1.58-1.84c-0.29-0.18-0.561-0.39-0.801-0.63c0.061-0.35,0.171-0.69,0.33-1
	c0.45-0.73,0.561-1.61,0.32-2.43c-0.46-0.72-1.21-1.2-2.05-1.34c-0.33-0.08-0.641-0.21-0.94-0.38c-0.06-0.34-0.06-0.7,0-1.04
	c0.221-0.82,0.08-1.69-0.38-2.41c-0.64-0.55-1.49-0.81-2.33-0.71c-0.34,0.02-0.68-0.02-1.02-0.1c-0.141-0.32-0.221-0.66-0.26-1
	c0-0.83-0.36-1.62-0.971-2.18c-0.77-0.35-1.66-0.35-2.43,0c-0.33,0.1-0.68,0.16-1.03,0.16c-0.229-0.27-0.41-0.58-0.54-0.9
	c-0.25-0.8-0.84-1.46-1.62-1.8c-0.83-0.12-1.68,0.12-2.33,0.66c-0.279,0.19-0.579,0.35-0.899,0.47c-0.28-0.19-0.54-0.43-0.75-0.7
	c-0.47-0.73-1.24-1.21-2.101-1.33c-0.85,0.12-1.609,0.59-2.08,1.31c-0.21,0.26-0.46,0.49-0.73,0.69c-0.34-0.11-0.66-0.26-0.94-0.47
	c-0.66-0.53-1.5-0.75-2.33-0.63c-0.78,0.34-1.37,1-1.62,1.8c-0.13,0.32-0.3,0.63-0.52,0.9c-0.35,0-0.69-0.06-1.02-0.18
	c-0.78-0.35-1.66-0.35-2.43,0c-0.65,0.55-1.02,1.36-1.04,2.2c-0.03,0.34-0.11,0.68-0.24,1c-0.34,0.09-0.69,0.13-1.04,0.11
	c-0.84-0.11-1.69,0.15-2.33,0.71c-0.47,0.73-0.61,1.62-0.37,2.46c0.06,0.34,0.08,0.68,0.04,1.03c-0.3,0.18-0.62,0.31-0.95,0.39
	c-0.83,0.12-1.57,0.59-2.05,1.28c-0.24,0.81-0.12,1.68,0.32,2.4c0.16,0.31,0.27,0.64,0.33,0.98c-0.23,0.27-0.5,0.49-0.8,0.67
	c-0.68,0.47-1.46,0.99-1.58,1.88c0.01,0.83,0.36,1.61,0.98,2.17c0.24,0.27,0.45,0.57,0.6,0.9c-0.15,0.33-0.35,0.63-0.6,0.9
	C285.21,392.08,284.86,392.86,284.85,393.69z"/>
</svg>
