<?xml version="1.0" encoding="utf-8"?>
<!-- Generator: Adobe Illustrator 21.0.0, SVG Export Plug-In . SVG Version: 6.00 Build 0)  -->
<svg version="1.1" id="Layer_1" xmlns="http://www.w3.org/2000/svg" xmlns:xlink="http://www.w3.org/1999/xlink" x="0px" y="0px"
	 viewBox="0 0 50 34" style="enable-background:new 0 0 50 34;" xml:space="preserve">
<style type="text/css">
	.st0{fill-rule:evenodd;clip-rule:evenodd;fill:url(#SVGID_1_);}
</style>
<linearGradient id="SVGID_1_" gradientUnits="userSpaceOnUse" x1="0" y1="17" x2="50" y2="17">
	<stop  offset="0" style="stop-color:#792AA6"/>
	<stop  offset="1" style="stop-color:#F8219F"/>
</linearGradient>
<path class="st0" d="M33.6,16.8L50,27.3V5.8L33.6,16.8z M0,5.8v21.5l16.7-10.5L0,5.8z M46.6,0H3.4c-1.5,0-2.8,0.6-3,2.1L25,18.4
	L49.6,2.6C49.4,1.1,48.2,0,46.6,0z M30.2,18.6l-4.4,2.9c-0.3,0.2-0.6,0.3-0.9,0.3s-0.6-0.1-0.9-0.3l-4.4-2.9L0.4,31.4
	c0.2,1.5,1.5,2.6,3,2.6h43.3c1.5,0,2.8-1.1,3-2.6L30.2,18.6z"/>
</svg>
