<?xml version="1.0" encoding="utf-8"?>
<!-- Generator: Adobe Illustrator 25.0.0, SVG Export Plug-In . SVG Version: 6.00 Build 0)  -->
<svg version="1.1" id="Layer_1" xmlns="http://www.w3.org/2000/svg" xmlns:xlink="http://www.w3.org/1999/xlink" x="0px" y="0px"
	 width="22px" height="22px" viewBox="0 0 22 22" enable-background="new 0 0 22 22" xml:space="preserve">
<path fill="#B7B8B7" d="M15.81,0C13.87,0,12.13,0.96,11,2.46C9.87,0.96,8.13,0,6.19,0C2.77,0,0,2.95,0,6.6C0,15.4,9.63,21.27,11,22
	c1.38-0.73,11-6.6,11-15.4C22,2.95,19.23,0,15.81,0z M15.81,2.2c2.28,0,4.13,1.97,4.13,4.4c0,6.48-6.49,11.29-8.94,12.87
	C8.55,17.89,2.06,13.08,2.06,6.6c0-2.43,1.85-4.4,4.13-4.4c1.25,0,2.42,0.6,3.21,1.64c0.39,0.52,0.98,0.82,1.6,0.82
	s1.21-0.3,1.6-0.82C13.39,2.8,14.56,2.2,15.81,2.2z"/>
</svg>
