<?xml version="1.0" encoding="utf-8"?>
<!-- Generator: Adobe Illustrator 16.0.0, SVG Export Plug-In . SVG Version: 6.00 Build 0)  -->
<!DOCTYPE svg PUBLIC "-//W3C//DTD SVG 1.1//EN" "http://www.w3.org/Graphics/SVG/1.1/DTD/svg11.dtd">
<svg version="1.1" id="Layer_1" xmlns="http://www.w3.org/2000/svg" xmlns:xlink="http://www.w3.org/1999/xlink" x="0px" y="0px"
	 width="40.37px" height="41px" viewBox="0 0 40.37 41" enable-background="new 0 0 40.37 41" xml:space="preserve">
<g>
	<path fill="#8829A5" d="M17.27,0c9.54,0,17.27,6.92,17.27,15.45c0,8.54-7.73,15.46-17.27,15.46S0,23.99,0,15.45
		C0,6.92,7.73,0,17.27,0z"/>
	<path fill="#F8219F" d="M40.37,21.29c0-8.75-7.43-15.85-16.61-15.85c-9.17,0-16.6,7.1-16.6,15.85c0,8.76,7.43,15.86,16.6,15.86
		c0.9,0,1.8-0.07,2.69-0.21V41l5.38-5.24c0.82-0.8,1.67-1.58,2.57-2.29C38.05,30.56,40.37,26.19,40.37,21.29z"/>
	<g>
		<path fill="#FFFFFF" d="M24.84,20.23c0.82,0,1.48,0.66,1.48,1.48c0,0.81-0.66,1.47-1.48,1.47c-0.81,0-1.47-0.66-1.47-1.47
			C23.37,20.89,24.03,20.23,24.84,20.23z"/>
		<path fill="#FFFFFF" d="M19.67,20.23c0.82,0,1.48,0.66,1.48,1.48c0,0.81-0.66,1.47-1.48,1.47s-1.48-0.66-1.48-1.47
			C18.19,20.89,18.85,20.23,19.67,20.23z"/>
		<path fill="#FFFFFF" d="M30.02,20.23c0.82,0,1.48,0.66,1.48,1.48c0,0.81-0.66,1.47-1.48,1.47c-0.82,0-1.48-0.66-1.48-1.47
			C28.54,20.89,29.2,20.23,30.02,20.23z"/>
	</g>
	<path fill="#C125A2" d="M14.49,12.44c-0.41,0-0.74-0.33-0.74-0.74c0-0.2,0.08-0.39,0.23-0.53c1.54-1.49,3.41-2.61,5.47-3.26
		c0.39-0.12,0.8,0.1,0.92,0.49c0.13,0.39-0.09,0.8-0.48,0.92c-1.83,0.58-3.5,1.58-4.88,2.91C14.87,12.37,14.68,12.44,14.49,12.44z"
		/>
	<path fill="#C125A2" d="M12.14,15.58c-0.4,0-0.74-0.33-0.74-0.74c0.01-0.12,0.03-0.23,0.09-0.34c0.15-0.28,0.31-0.57,0.48-0.84
		c0.22-0.35,0.67-0.45,1.02-0.24c0.35,0.22,0.45,0.68,0.24,1.02c-0.16,0.24-0.3,0.5-0.43,0.75C12.67,15.43,12.42,15.58,12.14,15.58z
		"/>
</g>
</svg>
