<?xml version="1.0" encoding="utf-8"?>
<!-- Generator: Adobe Illustrator 16.0.0, SVG Export Plug-In . SVG Version: 6.00 Build 0)  -->
<!DOCTYPE svg PUBLIC "-//W3C//DTD SVG 1.1//EN" "http://www.w3.org/Graphics/SVG/1.1/DTD/svg11.dtd">
<svg version="1.1" id="Layer_1" xmlns="http://www.w3.org/2000/svg" xmlns:xlink="http://www.w3.org/1999/xlink" x="0px" y="0px"
	 width="40px" height="40px" viewBox="0 0 40 40" enable-background="new 0 0 40 40" xml:space="preserve">
<g>
	<path fill="#1877F2" d="M40,20C40,8.95,31.05,0,20,0S0,8.95,0,20c0,9.98,7.31,18.26,16.88,19.76V25.78H11.8V20h5.08v-4.41
		c0-5.01,2.98-7.78,7.55-7.78c2.19,0,4.48,0.39,4.48,0.39v4.92h-2.53c-2.48,0-3.25,1.55-3.25,3.13V20h5.54l-0.88,5.78h-4.66v13.98
		C32.69,38.26,40,29.98,40,20z"/>
	<path fill="#FFFFFF" d="M27.79,25.78L28.67,20h-5.54v-3.75c0-1.58,0.77-3.13,3.25-3.13h2.53V8.2c0,0-2.29-0.39-4.48-0.39
		c-4.57,0-7.55,2.77-7.55,7.78V20H11.8v5.78h5.08v13.98c2.07,0.32,4.17,0.32,6.25,0V25.78H27.79z"/>
</g>
</svg>
