<?xml version="1.0" encoding="utf-8"?>
<!-- Generator: Adobe Illustrator 16.0.0, SVG Export Plug-In . SVG Version: 6.00 Build 0)  -->
<!DOCTYPE svg PUBLIC "-//W3C//DTD SVG 1.1//EN" "http://www.w3.org/Graphics/SVG/1.1/DTD/svg11.dtd">
<svg version="1.1" id="Layer_1" xmlns="http://www.w3.org/2000/svg" xmlns:xlink="http://www.w3.org/1999/xlink" x="0px" y="0px"
	 width="38.32px" height="33.71px" viewBox="0 0 38.32 33.71" enable-background="new 0 0 38.32 33.71" xml:space="preserve">
<path d="M36.46,8.01h-4.84V1.9c0-1.04-0.83-1.9-1.86-1.9H1.86C0.84,0,0,0.86,0,1.9v22.57c0,0.5,0.3,0.95,0.75,1.14
	c0.15,0.06,0.31,0.09,0.46,0.09c0.32,0,0.62-0.12,0.86-0.36l3.84-3.93H6.7v6.11c0,1.05,0.84,1.9,1.86,1.9h11.68
	c0.31,0,0.56-0.26,0.56-0.58c0-0.31-0.25-0.57-0.56-0.57H8.56c-0.4,0-0.73-0.34-0.73-0.75v-6.11h21.93c1.03,0,1.86-0.85,1.86-1.9
	v-4.08c0-0.32-0.25-0.58-0.56-0.58s-0.57,0.26-0.57,0.58v4.08c0,0.41-0.32,0.75-0.73,0.75H5.68c-0.15,0-0.3,0.06-0.4,0.17l-4.01,4.1
	c-0.01,0.01-0.04,0.04-0.09,0.02c-0.05-0.03-0.05-0.07-0.05-0.08V1.9c0-0.41,0.33-0.75,0.73-0.75h27.9c0.41,0,0.73,0.34,0.73,0.75
	v11c0,0.32,0.26,0.58,0.57,0.58s0.56-0.26,0.56-0.58V9.16h4.84c0.41,0,0.74,0.34,0.74,0.75v22.57c0,0.01,0,0.05-0.06,0.08
	c-0.05,0.02-0.08-0.01-0.09-0.02l-4.01-4.1c-0.1-0.11-0.24-0.17-0.39-0.17h-9.94c-0.31,0-0.56,0.26-0.56,0.57
	c0,0.32,0.25,0.58,0.56,0.58h9.7l3.85,3.93c0.23,0.24,0.53,0.36,0.85,0.36c0.15,0,0.31-0.03,0.46-0.09
	c0.46-0.19,0.75-0.64,0.75-1.14V9.91C38.32,8.86,37.49,8.01,36.46,8.01z"/>
<path d="M16.61,16.62c-0.26,0.13-0.53,0.26-0.8,0.39c-0.27-0.13-0.54-0.26-0.8-0.39c-1.31-0.69-2.48-1.55-3.47-2.56
	c-0.22-0.22-0.57-0.22-0.79,0c-0.22,0.23-0.22,0.59,0,0.82c1.07,1.08,2.33,2.01,3.75,2.76c0.28,0.15,0.58,0.29,0.88,0.43
	c0.14,0.06,0.28,0.09,0.43,0.09s0.29-0.03,0.43-0.09c0.3-0.14,0.6-0.28,0.88-0.43C21.64,15.26,24,11.28,24,8.57
	c0-2.93-2.2-5.32-4.9-5.32c-1.23,0-2.39,0.49-3.29,1.37c-0.89-0.88-2.06-1.37-3.28-1.37c-2.71,0-4.91,2.39-4.91,5.32
	c0,1.26,0.55,2.82,1.49,4.28c0.18,0.26,0.52,0.33,0.78,0.16c0.26-0.18,0.33-0.53,0.16-0.8c-0.83-1.28-1.3-2.6-1.3-3.64
	c0-2.3,1.69-4.17,3.78-4.17c1.09,0,2.13,0.52,2.84,1.43c0.11,0.13,0.27,0.21,0.44,0.21s0.33-0.08,0.44-0.21
	C16.97,4.92,18,4.4,19.1,4.4c2.08,0,3.77,1.87,3.77,4.17C22.87,10.41,21.17,14.22,16.61,16.62z"/>
<path d="M33.34,23.86c0.31,0,0.56-0.26,0.56-0.57c0-0.32-0.25-0.58-0.56-0.58h-6.72c-0.31,0-0.56,0.26-0.56,0.58
	c0,0.31,0.25,0.57,0.56,0.57H33.34z"/>
<path d="M24.14,23.29c0-0.32-0.25-0.58-0.56-0.58H10.51c-0.31,0-0.57,0.26-0.57,0.58c0,0.31,0.26,0.57,0.57,0.57h13.07
	C23.89,23.86,24.14,23.6,24.14,23.29z"/>
<path d="M17.56,26.14h15.78c0.31,0,0.56-0.26,0.56-0.58c0-0.31-0.25-0.57-0.56-0.57H17.56c-0.31,0-0.56,0.26-0.56,0.57
	C17,25.88,17.25,26.14,17.56,26.14z"/>
<path d="M10.51,24.99c-0.31,0-0.57,0.26-0.57,0.57c0,0.32,0.26,0.58,0.57,0.58h3.99c0.31,0,0.56-0.26,0.56-0.58
	c0-0.31-0.25-0.57-0.56-0.57H10.51z"/>
<path d="M23.11,18.16h0.93c0.31,0,0.56-0.26,0.56-0.57c0-0.32-0.25-0.58-0.56-0.58h-0.93c-0.31,0-0.56,0.26-0.56,0.58
	C22.55,17.9,22.8,18.16,23.11,18.16z"/>
</svg>
