<?xml version="1.0" encoding="utf-8"?>
<!-- Generator: Adobe Illustrator 21.0.0, SVG Export Plug-In . SVG Version: 6.00 Build 0)  -->
<svg version="1.1" id="Layer_1" xmlns="http://www.w3.org/2000/svg" xmlns:xlink="http://www.w3.org/1999/xlink" x="0px" y="0px"
	 viewBox="0 0 48.3 48" style="enable-background:new 0 0 48.3 48;" xml:space="preserve">
<style type="text/css">
	.st0{fill:url(#SVGID_1_);}
</style>
<linearGradient id="SVGID_1_" gradientUnits="userSpaceOnUse" x1="0" y1="24" x2="48.32" y2="24">
	<stop  offset="0" style="stop-color:#792AA6"/>
	<stop  offset="1" style="stop-color:#F8219F"/>
</linearGradient>
<path class="st0" d="M22.7,34.3v-8.9h-9.9c0.1,3.5,0.6,6.9,1.3,9.9C16.9,34.8,19.8,34.4,22.7,34.3z M20.1,46.5
	c0.9,0.7,1.8,1.2,2.6,1.5V37.2c-2.7,0.1-5.3,0.4-7.8,0.9c0.4,1.2,0.9,2.4,1.4,3.4C17.5,43.7,18.7,45.4,20.1,46.5z M32,41.5
	c0.5-1.1,1-2.2,1.4-3.4c-2.5-0.5-5.1-0.8-7.8-0.9V48c0.9-0.3,1.8-0.8,2.6-1.5C29.6,45.4,30.9,43.7,32,41.5z M36.2,9.3
	c2-0.6,3.8-1.2,5.5-2.1l-0.3-0.4c-2.7-2.7-6-4.7-9.5-5.9c1,1.2,1.9,2.6,2.7,4.2C35.1,6.5,35.7,7.9,36.2,9.3z M25.6,25.4v8.9
	c3,0.1,5.9,0.4,8.6,1c0.8-3,1.2-6.4,1.3-9.9H25.6z M16.4,6.5c-0.5,1.1-1,2.2-1.4,3.4c2.5,0.5,5.1,0.8,7.8,0.9V0
	c-0.9,0.3-1.8,0.8-2.6,1.5C18.7,2.6,17.5,4.3,16.4,6.5z M22.7,22.6v-8.9c-3-0.1-5.9-0.4-8.6-1c-0.8,3-1.2,6.4-1.3,9.9H22.7z
	 M12.2,38.7c-2,0.5-3.8,1.2-5.5,2l0.4,0.4c2.7,2.7,6,4.7,9.5,5.9c-1-1.2-1.9-2.6-2.7-4.2C13.2,41.5,12.6,40.1,12.2,38.7z M37,36
	c2.4,0.7,4.6,1.5,6.6,2.6c2.9-3.8,4.5-8.3,4.8-13.1h-10C38.3,29.1,37.8,32.7,37,36z M36.2,38.7c-0.5,1.4-1,2.8-1.7,4
	c-0.8,1.7-1.7,3.1-2.7,4.2c3.6-1.2,6.8-3.2,9.5-5.9l0.3-0.4C40,39.9,38.2,39.3,36.2,38.7z M37,12c0.8,3.3,1.3,6.8,1.4,10.6h10
	c-0.3-4.8-2-9.3-4.8-13.1C41.6,10.5,39.4,11.4,37,12z M25.6,13.6v8.9h9.9c-0.1-3.5-0.5-6.9-1.3-9.9C31.5,13.2,28.6,13.6,25.6,13.6z
	 M28.2,1.5c-0.9-0.7-1.8-1.2-2.6-1.5v10.8c2.7-0.1,5.3-0.4,7.8-0.9C33,8.7,32.5,7.6,32,6.5C30.9,4.3,29.6,2.6,28.2,1.5z M12.2,9.3
	c0.5-1.4,1-2.8,1.7-4.1c0.8-1.7,1.7-3.1,2.7-4.2C13,2.2,9.8,4.2,7.1,6.9L6.7,7.3C8.3,8.1,10.2,8.8,12.2,9.3z M11.4,36
	c-0.8-3.3-1.3-6.8-1.4-10.6H0c0.3,4.8,2,9.3,4.8,13.1C6.8,37.5,9,36.7,11.4,36z M11.4,12C9,11.4,6.8,10.5,4.8,9.5
	C2,13.3,0.3,17.8,0,22.6h10C10.1,18.9,10.5,15.3,11.4,12z"/>
</svg>
