<?xml version="1.0" encoding="utf-8"?>
<!-- Generator: Adobe Illustrator 16.0.0, SVG Export Plug-In . SVG Version: 6.00 Build 0)  -->
<!DOCTYPE svg PUBLIC "-//W3C//DTD SVG 1.1//EN" "http://www.w3.org/Graphics/SVG/1.1/DTD/svg11.dtd">
<svg version="1.1" id="Layer_1" xmlns="http://www.w3.org/2000/svg" xmlns:xlink="http://www.w3.org/1999/xlink" x="0px" y="0px"
	 width="17px" height="16px" viewBox="0 0 17 16" enable-background="new 0 0 17 16" xml:space="preserve">
<linearGradient id="SVGID_1_" gradientUnits="userSpaceOnUse" x1="8.5" y1="16" x2="8.5" y2="0">
	<stop  offset="0" style="stop-color:#F8219F"/>
	<stop  offset="1" style="stop-color:#792AA6"/>
</linearGradient>
<path fill-rule="evenodd" clip-rule="evenodd" fill="url(#SVGID_1_)" d="M8.49,2.57c0.02,0,0.05-0.03,0.05-0.06
	C9.58,0.72,11.24,0,12.61,0C15.31,0,17,2.12,17,4.66c0,4.97-3.13,6.02-8.49,11.34c-0.21-0.19-0.45-0.39-0.64-0.61
	c-2.44-2.53-6.13-4.77-7.39-7.78c-0.13-0.35-0.24-0.74-0.32-1.1C0.08,6.07,0,5.24,0,5.19V4.14C0.29,1.32,2.41,0,4.36,0
	C5.76,0,7.47,0.74,8.49,2.57z"/>
</svg>
