<?xml version="1.0" encoding="utf-8"?>
<!-- Generator: Adobe Illustrator 16.0.0, SVG Export Plug-In . SVG Version: 6.00 Build 0)  -->
<!DOCTYPE svg PUBLIC "-//W3C//DTD SVG 1.1//EN" "http://www.w3.org/Graphics/SVG/1.1/DTD/svg11.dtd">
<svg version="1.1" id="Layer_1" xmlns="http://www.w3.org/2000/svg" xmlns:xlink="http://www.w3.org/1999/xlink" x="0px" y="0px"
	 width="33.716px" height="33.71px" viewBox="0 0 33.716 33.71" enable-background="new 0 0 33.716 33.71" xml:space="preserve">
<path fill-rule="evenodd" clip-rule="evenodd" d="M14.886,6.38c0.27,0,0.49,0.23,0.49,0.5s-0.22,0.49-0.49,0.49
	c-0.28,0-0.5-0.22-0.5-0.49S14.606,6.38,14.886,6.38z M14.886,8.36c0.81,0,1.48-0.66,1.48-1.48c0-0.82-0.67-1.48-1.48-1.48
	c-0.82,0-1.48,0.66-1.48,1.48C13.406,7.7,14.066,8.36,14.886,8.36z M16.856,23.9c-0.92,0-1.67-0.75-1.67-1.67
	c0-0.93,0.75-1.68,1.67-1.68s1.67,0.75,1.67,1.68C18.526,23.15,17.776,23.9,16.856,23.9z M16.856,19.57c-1.46,0-2.66,1.19-2.66,2.66
	c0,1.46,1.2,2.65,2.66,2.65c1.47,0,2.66-1.19,2.66-2.65C19.516,20.76,18.326,19.57,16.856,19.57z M18.836,6.38
	c0.27,0,0.49,0.23,0.49,0.5s-0.22,0.49-0.49,0.49s-0.5-0.22-0.5-0.49S18.566,6.38,18.836,6.38z M18.836,8.36
	c0.81,0,1.48-0.66,1.48-1.48c0-0.82-0.67-1.48-1.48-1.48c-0.82,0-1.48,0.66-1.48,1.48C17.356,7.7,18.016,8.36,18.836,8.36z
	 M12.316,4.94c0-0.28,0.22-0.5,0.49-0.5h8.1c0.27,0,0.5,0.22,0.5,0.5v3.88c0,0.27-0.23,0.49-0.5,0.49h-8.1
	c-0.27,0-0.49-0.22-0.49-0.49V4.94z M12.806,10.3h8.1c0.82,0,1.48-0.66,1.48-1.48V4.94c0-0.82-0.66-1.48-1.48-1.48h-8.1
	c-0.81,0-1.48,0.66-1.48,1.48v3.88C11.326,9.64,11.996,10.3,12.806,10.3z M32.166,8.63c0.31,1.36,0.59,4.03-1,6.6
	c-0.52,0.83-1.17,1.55-1.94,2.16c-0.01-0.4-0.06-0.79-0.15-1.17c0.48-0.45,0.9-0.95,1.25-1.51c1.12-1.81,1.18-3.69,1.03-4.94
	c-0.01-0.15-0.09-0.28-0.21-0.36s-0.27-0.1-0.41-0.06c-0.25,0.07-0.5,0.1-0.77,0.1c-0.5,0-1.02-0.13-1.47-0.38
	c-0.24-0.13-0.33-0.43-0.2-0.67c0.13-0.24,0.43-0.33,0.67-0.2c0.63,0.35,1.37,0.35,1.92,0.02c0.76-0.47,1.06-1.52,0.7-2.44
	c-0.1-0.25,0.03-0.54,0.28-0.64c0.26-0.1,0.54,0.03,0.64,0.28c0.37,0.96,0.27,2.02-0.27,2.83C32.166,8.36,32.136,8.5,32.166,8.63z
	 M26.266,21.27c0.23-1.29,0.49-3.44-0.11-6.04c-0.1-0.43-0.22-0.85-0.35-1.27c1.34-0.06,2.44,1.66,2.44,3.68
	C28.246,19.43,27.376,20.97,26.266,21.27z M25.426,20.27h-4.37c-0.76-1.63-2.4-2.68-4.2-2.68c-1.79,0-3.44,1.05-4.2,2.68h-4.36
	c-0.16-1.23-0.22-2.88,0.23-4.82c0.31-1.35,0.82-2.66,1.53-3.9c1.83,1.46,4.2,2.21,6.8,2.21c2.55,0,5.01-0.77,6.8-2.21
	c0.71,1.24,1.23,2.55,1.54,3.9C25.646,17.39,25.576,19.04,25.426,20.27z M25.186,21.66l-0.01,0.05c-0.09,0.5-0.22,0.99-0.36,1.49
	h-3.78c-0.37,0-0.71,0.21-0.86,0.55c-0.6,1.29-1.9,2.12-3.32,2.12s-2.72-0.83-3.31-2.12c-0.16-0.34-0.5-0.55-0.87-0.55h-3.78
	c-0.14-0.5-0.27-1.01-0.37-1.54l-0.08-0.4h4.23c0.37,0,0.71-0.22,0.87-0.55c0.59-1.3,1.89-2.13,3.31-2.13s2.72,0.83,3.32,2.13
	c0.15,0.33,0.49,0.55,0.86,0.55h4.23L25.186,21.66z M7.556,15.23c-0.59,2.6-0.33,4.75-0.11,6.04c-1.1-0.3-1.97-1.84-1.97-3.63
	c0-2.01,1.1-3.74,2.44-3.68C7.776,14.38,7.656,14.8,7.556,15.23z M4.486,17.39c-0.77-0.61-1.42-1.33-1.94-2.16
	c-1.59-2.57-1.31-5.24-1-6.6c0.03-0.13,0.01-0.27-0.07-0.38c-0.54-0.81-0.64-1.87-0.27-2.83c0.1-0.25,0.39-0.38,0.64-0.28
	s0.38,0.39,0.28,0.64c-0.35,0.92-0.05,1.97,0.7,2.44c0.56,0.33,1.29,0.33,1.93-0.02c0.24-0.13,0.54-0.04,0.67,0.2
	c0.12,0.23,0.03,0.54-0.2,0.67c-0.46,0.25-0.97,0.38-1.48,0.38c-0.26,0-0.52-0.03-0.77-0.1c-0.28-0.08-0.59,0.12-0.62,0.42
	c-0.15,1.25-0.09,3.13,1.03,4.94c0.35,0.56,0.77,1.06,1.25,1.51C4.556,16.6,4.506,16.99,4.486,17.39z M33.426,5.07
	c-0.29-0.76-1.15-1.14-1.91-0.85c-0.76,0.29-1.14,1.16-0.85,1.92c0.18,0.47,0.05,1.02-0.3,1.23c-0.25,0.16-0.6,0.14-0.93-0.04
	c-0.71-0.38-1.62-0.11-2.01,0.6c-0.39,0.71-0.13,1.61,0.59,2.01c0.61,0.33,1.28,0.5,1.95,0.5c0.16,0,0.31-0.01,0.46-0.03
	c0.05,1.07-0.12,2.45-0.94,3.78c-0.22,0.35-0.47,0.68-0.75,0.98c-0.13-0.27-0.27-0.53-0.43-0.77c-0.64-0.92-1.5-1.43-2.44-1.43
	c-0.14,0-0.27,0.01-0.41,0.03c-0.29-0.73-0.64-1.44-1.05-2.13c1.11-1.15,1.7-2.54,1.7-3.99c0-1.87-0.98-3.61-2.76-4.92
	C21.606,0.7,19.306,0,16.856,0c-1.63,0-3.23,0.32-4.63,0.92c-0.25,0.1-0.36,0.39-0.26,0.64c0.11,0.26,0.4,0.37,0.65,0.26
	c1.28-0.54,2.75-0.83,4.24-0.83c4.56,0,8.27,2.64,8.27,5.89c0,3.9-4.45,5.89-8.27,5.89c-3.76,0-8.26-2.01-8.26-5.89
	c0-1.46,0.76-2.87,2.15-3.96c0.21-0.17,0.25-0.48,0.08-0.69c-0.17-0.22-0.48-0.25-0.69-0.08c-1.63,1.28-2.53,2.96-2.53,4.73
	c0,1.45,0.6,2.84,1.71,3.99c-0.41,0.69-0.76,1.4-1.05,2.13c-0.14-0.02-0.28-0.03-0.42-0.03c-0.93,0-1.8,0.51-2.44,1.43
	c-0.16,0.24-0.3,0.5-0.42,0.77c-0.28-0.3-0.54-0.63-0.76-0.98c-0.82-1.33-0.98-2.71-0.93-3.78c0.15,0.02,0.3,0.03,0.45,0.03
	c0.67,0,1.35-0.17,1.95-0.5c0.71-0.39,0.98-1.31,0.59-2.01c-0.39-0.72-1.29-0.99-2.01-0.59c-0.32,0.17-0.68,0.19-0.93,0.03
	c-0.35-0.21-0.48-0.76-0.3-1.23c0.3-0.76-0.1-1.63-0.84-1.92c-0.76-0.29-1.63,0.09-1.92,0.85c-0.46,1.18-0.36,2.49,0.26,3.54
	c-0.32,1.57-0.53,4.4,1.17,7.14c0.72,1.17,1.68,2.14,2.85,2.91c0.13,0.83,0.42,1.59,0.85,2.22c0.59,0.86,1.38,1.36,2.24,1.43
	c0.77,3.66,3.43,7.71,5.14,9.64c0.99,1.12,2.47,1.76,4.06,1.76c1.59,0,3.07-0.64,4.06-1.76c0.96-1.08,1.82-2.22,2.54-3.38
	c0.15-0.24,0.07-0.54-0.16-0.68c-0.23-0.15-0.53-0.08-0.68,0.15c-0.69,1.12-1.52,2.22-2.44,3.26c-0.79,0.89-2.03,1.42-3.32,1.42
	s-2.53-0.53-3.32-1.42c-1.45-1.64-3.23-4.08-4.31-7.12h3.43c0.76,1.63,2.41,2.68,4.2,2.68c1.8,0,3.44-1.05,4.2-2.68h3.44
	c-0.22,0.64-0.49,1.26-0.78,1.88c-0.12,0.25-0.02,0.54,0.23,0.66c0.24,0.12,0.54,0.02,0.66-0.23c0.65-1.35,1.14-2.74,1.46-4.18
	c0.86-0.07,1.65-0.57,2.24-1.43c0.43-0.63,0.72-1.39,0.85-2.22c1.17-0.77,2.13-1.74,2.85-2.91c1.7-2.74,1.49-5.57,1.17-7.14
	C33.796,7.56,33.886,6.25,33.426,5.07z"/>
</svg>
