<?xml version="1.0" encoding="utf-8"?>
<!-- Generator: Adobe Illustrator 25.0.0, SVG Export Plug-In . SVG Version: 6.00 Build 0)  -->
<svg version="1.1" id="Layer_1" xmlns="http://www.w3.org/2000/svg" xmlns:xlink="http://www.w3.org/1999/xlink" x="0px" y="0px"
	 width="58px" height="48px" viewBox="0 0 58 48" style="enable-background:new 0 0 58 48;" xml:space="preserve">
<style type="text/css">
	.st0{fill:url(#SVGID_1_);}
</style>
<linearGradient id="SVGID_1_" gradientUnits="userSpaceOnUse" x1="29" y1="0" x2="29" y2="47.9985">
	<stop  offset="0" style="stop-color:#7A2AA6"/>
	<stop  offset="1" style="stop-color:#F8219F"/>
</linearGradient>
<path class="st0" d="M0.8,15.5c0.5,0,1.2-0.4,1.2-1v-3.7C2,9.3,3.3,8,4.9,8h12.6c0.5,0,1-0.3,1-0.8c0-0.5-0.4-1.2-1-1.2H4.8
	C2.2,6,0,8.2,0,10.8v3.7C0,15.1,0.3,15.5,0.8,15.5z M1.5,17.5c-0.1,0-0.1,0-0.2-0.1l-0.2,0c-0.2,0-0.5,0.1-0.7,0.3
	c-0.1,0.1-0.2,0.2-0.2,0.3c-0.1,0.4-0.1,0.8,0.2,1.1c0.1,0.1,0.2,0.2,0.3,0.2c0.1,0,0.2,0.1,0.4,0.1c0.3,0,0.5-0.1,0.7-0.3
	c0.4-0.4,0.4-1,0-1.4l-0.1-0.1C1.7,17.6,1.6,17.5,1.5,17.5z M53.2,6H35.4l4.8-4.3c0.3-0.2,0.4-0.6,0.3-0.9c-0.1-0.3-0.3-0.6-0.6-0.8
	c-0.3-0.1-0.7,0-1,0.2l-6.7,5.8l0,0c-0.1,0.1-0.1,0.1-0.2,0.2L32,6.4c-0.1,0.2-0.1,0.5,0,0.8L32,7.3c0,0.1,0.1,0.2,0.2,0.2l0,0
	l6.7,5.8c0.3,0.2,0.6,0.3,1,0.2c0.3-0.1,0.6-0.4,0.6-0.8c0.1-0.4-0.1-0.5-0.3-0.7L35.4,8h17.7c1.6,0,2.9,1.3,2.9,2.9v32.2
	c0,1.6-1.3,2.9-2.9,2.9H4.9C3.3,46,2,44.7,2,43.1V22.3c0-0.5-0.6-1-1.2-1S0,21.8,0,22.3v20.9C0,45.8,2.2,48,4.8,48h48.4
	c2.6,0,4.8-2.2,4.8-4.8V10.8C58,8.2,55.8,6,53.2,6z M21.6,39.7c0.4,0,0.8-0.1,1.2-0.3L39.5,29c0.7-0.4,1-1.1,1-1.9
	c0-0.8-0.4-1.5-1-1.9L22.8,14.9c-0.7-0.4-2-0.5-2.7-0.1C19.4,15.2,19,16,19,16.8v20.7c0,0.8,0.4,1.6,1.1,2
	C20.5,39.6,21.2,39.7,21.6,39.7z M21,16.8c0-0.1,0.1-0.2,0.1-0.2c0.1,0,0.4,0,0.5,0c0.1,0,0.1,0,0.2,0l16.7,10.4
	c0.1,0,0.1,0.1,0.1,0.2s0,0.2-0.1,0.2L21.8,37.7c-0.1,0.1-0.5,0.1-0.6,0c-0.1,0-0.1-0.1-0.1-0.3V16.8z"/>
</svg>
