<?xml version="1.0" encoding="utf-8"?>
<!-- Generator: Adobe Illustrator 16.0.0, SVG Export Plug-In . SVG Version: 6.00 Build 0)  -->
<!DOCTYPE svg PUBLIC "-//W3C//DTD SVG 1.1//EN" "http://www.w3.org/Graphics/SVG/1.1/DTD/svg11.dtd">
<svg version="1.1" id="Layer_1" xmlns="http://www.w3.org/2000/svg" xmlns:xlink="http://www.w3.org/1999/xlink" x="0px" y="0px"
	 width="39.44px" height="39.72px" viewBox="0 0 39.44 39.72" enable-background="new 0 0 39.44 39.72" xml:space="preserve">
<g>
	<g>
		<path fill="#564196" d="M14.06,32.65c-0.33-1.26-1.04-2.34-2.02-3.07c-3.46-2.62-5.07-6.92-4.18-11.21
			c0.87-4.21,4.28-7.62,8.48-8.49c0.78-0.17,1.58-0.26,2.38-0.26c2.54,0,5.03,0.88,6.99,2.47c2.61,2.12,4.11,5.27,4.11,8.63
			c0,3.41-1.54,6.59-4.24,8.72c-1.1,0.87-1.88,1.99-2.22,3.21H14.06z"/>
		<path fill="#FFFFFF" d="M17.64,39.44c-1.27,0-2.64-0.98-2.64-3.12v-2.95c0-0.31-0.02-0.6-0.06-0.88l7.54,0.01
			c-0.03,0.21-0.04,0.41-0.04,0.6v3.7c0,1.46-1.18,2.64-2.64,2.64H17.64z"/>
		<path fill="#FFFFFF" d="M15.97,34.44C15.44,34.44,15,34,15,33.47s0.44-0.97,0.97-0.97h6.5c0.53,0,0.97,0.44,0.97,0.97
			s-0.44,0.97-0.97,0.97H15.97z"/>
		<path fill="#FFFFFF" d="M19.72,5.2c-0.53,0-0.97-0.44-0.97-0.97V0.97c0-0.53,0.44-0.97,0.97-0.97s0.97,0.44,0.97,0.97v3.26
			C20.69,4.76,20.25,5.2,19.72,5.2z"/>
		<path fill="#FFFFFF" d="M30.67,9.73c-0.26,0-0.5-0.1-0.68-0.28c-0.38-0.38-0.38-0.99,0-1.37l2.31-2.3
			c0.18-0.19,0.42-0.29,0.68-0.29c0.26,0,0.5,0.1,0.68,0.29c0.38,0.37,0.38,0.99,0,1.36l-2.3,2.31C31.17,9.63,30.93,9.73,30.67,9.73
			z"/>
		<path fill="#FFFFFF" d="M35.21,20.69c-0.53,0-0.97-0.44-0.97-0.97s0.44-0.97,0.97-0.97h3.26c0.53,0,0.97,0.44,0.97,0.97
			s-0.44,0.97-0.97,0.97H35.21z"/>
		<path fill="#FFFFFF" d="M32.98,33.95c-0.26,0-0.5-0.11-0.68-0.29l-2.31-2.31c-0.18-0.18-0.28-0.42-0.28-0.68
			c0-0.26,0.1-0.5,0.28-0.68c0.18-0.19,0.42-0.29,0.68-0.29c0.26,0,0.5,0.1,0.69,0.29l2.3,2.3c0.19,0.19,0.29,0.43,0.29,0.69
			c0,0.26-0.1,0.5-0.29,0.68C33.48,33.84,33.24,33.95,32.98,33.95z"/>
		<path fill="#FFFFFF" d="M6.46,33.95c-0.26,0-0.5-0.11-0.68-0.29S5.5,33.24,5.5,32.98c0-0.26,0.1-0.5,0.28-0.69l2.31-2.3
			c0.18-0.19,0.42-0.29,0.68-0.29c0.26,0,0.5,0.1,0.68,0.29c0.19,0.18,0.29,0.42,0.29,0.68c0,0.26-0.1,0.5-0.29,0.68l-2.3,2.31
			C6.96,33.84,6.72,33.95,6.46,33.95z"/>
		<path fill="#FFFFFF" d="M0.97,20.69C0.44,20.69,0,20.25,0,19.72s0.44-0.97,0.97-0.97h3.26c0.53,0,0.97,0.44,0.97,0.97
			s-0.44,0.97-0.97,0.97H0.97z"/>
		<path fill="#FFFFFF" d="M8.77,9.73c-0.26,0-0.5-0.1-0.68-0.28L5.78,7.14c-0.38-0.37-0.38-0.99,0-1.36
			C5.96,5.59,6.2,5.49,6.46,5.49c0.26,0,0.5,0.1,0.69,0.29l2.3,2.3c0.19,0.19,0.29,0.43,0.29,0.69c0,0.26-0.1,0.5-0.29,0.68
			C9.27,9.63,9.02,9.73,8.77,9.73z"/>
		<path fill="#FFFFFF" d="M24.97,20.27c-0.53,0-0.97-0.43-0.97-0.97c0-2.68-2.18-4.86-4.86-4.86c-0.54,0-0.97-0.44-0.97-0.97
			s0.43-0.97,0.97-0.97c3.75,0,6.8,3.05,6.8,6.8C25.94,19.84,25.5,20.27,24.97,20.27z"/>
		<path fill-rule="evenodd" clip-rule="evenodd" fill="#FFFFFF" d="M18.7,10.27c-0.68,0-1.36,0.07-2.03,0.21
			c-3.57,0.75-6.46,3.65-7.19,7.23c-0.76,3.67,0.39,7.33,3.34,9.55c1.82,1.37,2.9,3.65,2.9,6.11v3.16c0,0.75,0.26,1.19,0.7,1.19h4.6
			c0.39,0,0.7-0.31,0.7-0.7V33.1c0-2.26,1.11-4.43,3.06-5.96c2.29-1.8,3.39-4.51,3.39-7.42c0-2.86-1.27-5.53-3.49-7.34
			C23,11.02,20.88,10.27,18.7,10.27z M16.35,39.72c-1.26,0-2.63-0.98-2.63-3.12v-3.23c0-1.85-0.79-3.56-2.13-4.57
			c-3.55-2.67-4.91-7.07-4.01-11.48c0.89-4.32,4.38-7.83,8.7-8.73c0.8-0.17,1.61-0.25,2.43-0.25c2.61,0,5.17,0.9,7.19,2.54
			c2.67,2.17,4.2,5.4,4.2,8.84c0,3.51-1.3,6.77-4.06,8.94c-1.48,1.16-2.32,2.77-2.32,4.44v3.99c0,1.45-1.18,2.63-2.63,2.63H16.35z"
			/>
	</g>
</g>
<g>
	<g>
		<path fill="#564196" d="M14.06,32.65c-0.33-1.26-1.04-2.34-2.02-3.07c-3.46-2.62-5.07-6.92-4.18-11.21
			c0.87-4.21,4.28-7.62,8.48-8.49c0.78-0.17,1.58-0.26,2.38-0.26c2.54,0,5.03,0.88,6.99,2.47c2.61,2.12,4.11,5.27,4.11,8.63
			c0,3.41-1.54,6.59-4.24,8.72c-1.1,0.87-1.88,1.99-2.22,3.21H14.06z"/>
		<path fill="#FFFFFF" d="M17.64,39.44c-1.27,0-2.64-0.98-2.64-3.12v-2.95c0-0.31-0.02-0.6-0.06-0.88l7.54,0.01
			c-0.03,0.21-0.04,0.41-0.04,0.6v3.7c0,1.46-1.18,2.64-2.64,2.64H17.64z"/>
		<path fill="#FFFFFF" d="M15.97,34.44C15.44,34.44,15,34,15,33.47s0.44-0.97,0.97-0.97h6.5c0.53,0,0.97,0.44,0.97,0.97
			s-0.44,0.97-0.97,0.97H15.97z"/>
		<path fill="#FFFFFF" d="M19.72,5.2c-0.53,0-0.97-0.44-0.97-0.97V0.97c0-0.53,0.44-0.97,0.97-0.97s0.97,0.44,0.97,0.97v3.26
			C20.69,4.76,20.25,5.2,19.72,5.2z"/>
		<path fill="#FFFFFF" d="M30.67,9.73c-0.26,0-0.5-0.1-0.68-0.28c-0.38-0.38-0.38-0.99,0-1.37l2.31-2.3
			c0.18-0.19,0.42-0.29,0.68-0.29c0.26,0,0.5,0.1,0.68,0.29c0.38,0.37,0.38,0.99,0,1.36l-2.3,2.31C31.17,9.63,30.93,9.73,30.67,9.73
			z"/>
		<path fill="#FFFFFF" d="M35.21,20.69c-0.53,0-0.97-0.44-0.97-0.97s0.44-0.97,0.97-0.97h3.26c0.53,0,0.97,0.44,0.97,0.97
			s-0.44,0.97-0.97,0.97H35.21z"/>
		<path fill="#FFFFFF" d="M32.98,33.95c-0.26,0-0.5-0.11-0.68-0.29l-2.31-2.31c-0.18-0.18-0.28-0.42-0.28-0.68
			c0-0.26,0.1-0.5,0.28-0.68c0.18-0.19,0.42-0.29,0.68-0.29c0.26,0,0.5,0.1,0.69,0.29l2.3,2.3c0.19,0.19,0.29,0.43,0.29,0.69
			c0,0.26-0.1,0.5-0.29,0.68C33.48,33.84,33.24,33.95,32.98,33.95z"/>
		<path fill="#FFFFFF" d="M6.46,33.95c-0.26,0-0.5-0.11-0.68-0.29S5.5,33.24,5.5,32.98c0-0.26,0.1-0.5,0.28-0.69l2.31-2.3
			c0.18-0.19,0.42-0.29,0.68-0.29c0.26,0,0.5,0.1,0.68,0.29c0.19,0.18,0.29,0.42,0.29,0.68c0,0.26-0.1,0.5-0.29,0.68l-2.3,2.31
			C6.96,33.84,6.72,33.95,6.46,33.95z"/>
		<path fill="#FFFFFF" d="M0.97,20.69C0.44,20.69,0,20.25,0,19.72s0.44-0.97,0.97-0.97h3.26c0.53,0,0.97,0.44,0.97,0.97
			s-0.44,0.97-0.97,0.97H0.97z"/>
		<path fill="#FFFFFF" d="M8.77,9.73c-0.26,0-0.5-0.1-0.68-0.28L5.78,7.14c-0.38-0.37-0.38-0.99,0-1.36
			C5.96,5.59,6.2,5.49,6.46,5.49c0.26,0,0.5,0.1,0.69,0.29l2.3,2.3c0.19,0.19,0.29,0.43,0.29,0.69c0,0.26-0.1,0.5-0.29,0.68
			C9.27,9.63,9.02,9.73,8.77,9.73z"/>
		<path fill="#FFFFFF" d="M24.97,20.27c-0.53,0-0.97-0.43-0.97-0.97c0-2.68-2.18-4.86-4.86-4.86c-0.54,0-0.97-0.44-0.97-0.97
			s0.43-0.97,0.97-0.97c3.75,0,6.8,3.05,6.8,6.8C25.94,19.84,25.5,20.27,24.97,20.27z"/>
		<path fill-rule="evenodd" clip-rule="evenodd" fill="#FFFFFF" d="M18.7,10.27c-0.68,0-1.36,0.07-2.03,0.21
			c-3.57,0.75-6.46,3.65-7.19,7.23c-0.76,3.67,0.39,7.33,3.34,9.55c1.82,1.37,2.9,3.65,2.9,6.11v3.16c0,0.75,0.26,1.19,0.7,1.19h4.6
			c0.39,0,0.7-0.31,0.7-0.7V33.1c0-2.26,1.11-4.43,3.06-5.96c2.29-1.8,3.39-4.51,3.39-7.42c0-2.86-1.27-5.53-3.49-7.34
			C23,11.02,20.88,10.27,18.7,10.27z M16.35,39.72c-1.26,0-2.63-0.98-2.63-3.12v-3.23c0-1.85-0.79-3.56-2.13-4.57
			c-3.55-2.67-4.91-7.07-4.01-11.48c0.89-4.32,4.38-7.83,8.7-8.73c0.8-0.17,1.61-0.25,2.43-0.25c2.61,0,5.17,0.9,7.19,2.54
			c2.67,2.17,4.2,5.4,4.2,8.84c0,3.51-1.3,6.77-4.06,8.94c-1.48,1.16-2.32,2.77-2.32,4.44v3.99c0,1.45-1.18,2.63-2.63,2.63H16.35z"
			/>
	</g>
</g>
</svg>
