<?xml version="1.0" encoding="utf-8"?>
<!-- Generator: Adobe Illustrator 16.0.0, SVG Export Plug-In . SVG Version: 6.00 Build 0)  -->
<!DOCTYPE svg PUBLIC "-//W3C//DTD SVG 1.1//EN" "http://www.w3.org/Graphics/SVG/1.1/DTD/svg11.dtd">
<svg version="1.1" id="Layer_1" xmlns="http://www.w3.org/2000/svg" xmlns:xlink="http://www.w3.org/1999/xlink" x="0px" y="0px"
	 width="33.75px" height="33.71px" viewBox="0 0 33.75 33.71" enable-background="new 0 0 33.75 33.71" xml:space="preserve">
<path fill-rule="evenodd" clip-rule="evenodd" d="M16.84,24.38c-1.09,0-1.97-0.88-1.97-1.97V21.1c0.64,0.25,1.34,0.38,2.04,0.38
	c0.67,0,1.31-0.11,1.9-0.33v1.26C18.81,23.5,17.92,24.38,16.84,24.38z M12.29,11.97v-1.81c0-0.97,0.45-1.88,1.22-2.46l0.34,0.64
	c0.09,0.17,0.25,0.27,0.44,0.27h4.49c1.52,0,2.76,1.24,2.76,2.75v0.61C18.44,11.47,15.33,11.47,12.29,11.97z M24.37,25.72
	l-4.57-3.55v-1.49c1.63-0.98,2.73-2.77,2.73-4.81v-4.51c0-2.06-1.68-3.74-3.75-3.74h-4.19L14.3,7.07c-0.11-0.21-0.3-0.36-0.53-0.42
	c-0.22-0.05-0.46-0.01-0.66,0.12c-1.13,0.76-1.81,2.02-1.81,3.39v5.71c0,0.57,0.09,1.13,0.25,1.67c0.08,0.26,0.36,0.4,0.62,0.32
	c0.26-0.08,0.41-0.36,0.33-0.62c-0.14-0.44-0.21-0.9-0.21-1.37v-2.9c3.04-0.52,6.15-0.52,9.25,0v2.9c0,2.55-2.08,4.62-4.63,4.62
	c-1.33,0-2.6-0.57-3.48-1.59c-0.18-0.2-0.5-0.22-0.7-0.05c-0.21,0.18-0.23,0.5-0.05,0.7c0.35,0.41,0.76,0.76,1.2,1.04v1.58
	l-4.57,3.55c-1.44,1.12-2.27,2.81-2.27,4.63v2.87c0,0.27,0.22,0.49,0.5,0.49c0.27,0,0.49-0.22,0.49-0.49v-2.87
	c0-1.51,0.69-2.92,1.89-3.85l4.1-3.19c0.38,1.19,1.5,2.06,2.82,2.06c1.32,0,2.43-0.87,2.82-2.06l4.1,3.19
	c1.2,0.93,1.89,2.34,1.89,3.85v2.87c0,0.27,0.22,0.49,0.49,0.49s0.49-0.22,0.49-0.49v-2.87C26.63,28.53,25.81,26.84,24.37,25.72z"/>
<path d="M11.26,30.18c-0.27,0-0.49,0.22-0.49,0.49v2.55c0,0.27,0.22,0.49,0.49,0.49c0.27,0,0.49-0.22,0.49-0.49v-2.55
	C11.75,30.4,11.53,30.18,11.26,30.18z"/>
<path d="M22.42,30.18c-0.28,0-0.5,0.22-0.5,0.49v2.55c0,0.27,0.22,0.49,0.5,0.49c0.27,0,0.49-0.22,0.49-0.49v-2.55
	C22.91,30.4,22.69,30.18,22.42,30.18z"/>
<path fill-rule="evenodd" clip-rule="evenodd" d="M3.98,17.97c0-1.19,0.97-2.15,2.15-2.15c1.19,0,2.15,0.96,2.15,2.15v1.35
	c0,1.18-0.96,2.15-2.15,2.15c-1.18,0-2.15-0.97-2.15-2.15V17.97z M1.08,27.03l3.72-3.2c0.11-0.1,0.18-0.23,0.18-0.38v-1.22
	c0.35,0.14,0.74,0.22,1.15,0.22c0.41,0,0.8-0.08,1.16-0.22v1.22c0,0.15,0.06,0.28,0.17,0.38l0.96,0.82c0.1,0.09,0.21,0.12,0.33,0.12
	c0.13,0,0.27-0.05,0.37-0.17c0.18-0.2,0.16-0.52-0.05-0.69l-0.79-0.68V21.6c0.61-0.57,0.99-1.38,0.99-2.28v-1.35
	c0-1.73-1.41-3.14-3.14-3.14s-3.14,1.41-3.14,3.14v1.35c0,0.9,0.39,1.71,1,2.28v1.63l-3.55,3.05c-0.23,0.2-0.36,0.48-0.36,0.77v1.72
	c0,0.47,0.34,0.86,0.79,0.95c1.55,0.27,3.13,0.43,4.71,0.46h0.01c0.27,0,0.49-0.22,0.49-0.49c0.01-0.27-0.21-0.49-0.48-0.5
	c-1.52-0.03-3.04-0.18-4.53-0.44v-1.7L1.08,27.03z"/>
<path fill-rule="evenodd" clip-rule="evenodd" d="M27.7,21.47c-1.19,0-2.15-0.97-2.15-2.15v-1.35c0-1.19,0.96-2.15,2.15-2.15
	c1.18,0,2.15,0.96,2.15,2.15v1.35C29.85,20.5,28.88,21.47,27.7,21.47z M28.85,23.45c0,0.15,0.07,0.28,0.17,0.38l0.82,0.7
	c0.1,0.08,0.21,0.12,0.33,0.12c0.13,0,0.27-0.06,0.37-0.17c0.18-0.21,0.16-0.52-0.05-0.7l-0.65-0.55V21.6c0.61-0.57,1-1.38,1-2.28
	v-1.35c0-1.73-1.41-3.14-3.14-3.14s-3.14,1.41-3.14,3.14v1.35c0,0.9,0.38,1.71,0.99,2.28v1.63l-0.79,0.68
	c-0.21,0.17-0.23,0.49-0.05,0.69c0.1,0.12,0.23,0.17,0.37,0.17c0.12,0,0.23-0.03,0.33-0.12l0.96-0.82c0.11-0.1,0.17-0.23,0.17-0.38
	v-1.22c0.36,0.14,0.75,0.22,1.16,0.22c0.4,0,0.79-0.08,1.15-0.22V23.45z"/>
<path d="M33.39,26.28l-1.28-1.1c-0.2-0.18-0.51-0.15-0.69,0.05c-0.18,0.21-0.16,0.52,0.05,0.7l1.28,1.1l0.01,0.02v1.7
	c-1.49,0.26-3.01,0.41-4.53,0.44c-0.27,0.01-0.49,0.23-0.48,0.5c0,0.27,0.22,0.49,0.49,0.49h0.01c1.58-0.03,3.16-0.19,4.7-0.46
	c0.46-0.09,0.8-0.48,0.8-0.95v-1.72C33.75,26.76,33.62,26.48,33.39,26.28z"/>
<path d="M29.07,8.37h-0.26c-0.18,0-0.35,0.1-0.44,0.26l-0.76,1.43l-0.74-1.43c-0.08-0.16-0.25-0.26-0.44-0.26h-3.06
	c-0.28,0-0.5,0.22-0.5,0.49s0.22,0.49,0.5,0.49h2.76l0.66,1.28c0.16,0.31,0.47,0.5,0.81,0.5h0.01c0.34,0,0.65-0.18,0.81-0.49
	l0.69-1.29c2.56-0.02,4.64-2.11,4.64-4.67c0-0.87-0.25-1.72-0.71-2.46c-0.14-0.23-0.44-0.31-0.68-0.16
	c-0.23,0.14-0.3,0.45-0.16,0.68c0.37,0.58,0.56,1.25,0.56,1.94C32.76,6.71,31.1,8.37,29.07,8.37z"/>
<path d="M4.64,9.35l0.68,1.29c0.16,0.31,0.47,0.49,0.81,0.49h0.01c0.34,0,0.65-0.19,0.81-0.5l0.66-1.28h2.36
	c0.28,0,0.5-0.22,0.5-0.49s-0.22-0.49-0.5-0.49H7.31c-0.19,0-0.36,0.1-0.44,0.26l-0.74,1.43L5.37,8.63
	C5.28,8.47,5.12,8.37,4.93,8.37H4.67c-2.03,0-3.68-1.66-3.68-3.69c0-2.03,1.65-3.69,3.68-3.69h24.4c0.62,0,1.23,0.16,1.77,0.46
	c0.24,0.13,0.54,0.04,0.67-0.2c0.13-0.24,0.05-0.54-0.19-0.67C30.63,0.2,29.85,0,29.07,0H4.67C2.09,0,0,2.1,0,4.68
	C0,7.24,2.07,9.33,4.64,9.35z"/>
<path d="M7.7,4.3C7.63,4.75,8.01,5.13,8.46,5.06C8.74,5.01,8.96,4.79,9,4.52c0.08-0.45-0.31-0.83-0.76-0.76
	C7.97,3.8,7.75,4.02,7.7,4.3z"/>
<path d="M13.36,4.41c0,0.36,0.29,0.66,0.66,0.66c0.36,0,0.66-0.3,0.66-0.66c0-0.36-0.3-0.66-0.66-0.66
	C13.65,3.75,13.36,4.05,13.36,4.41z"/>
<path d="M26.05,4.41c0-0.36-0.3-0.66-0.66-0.66c-0.36,0-0.66,0.3-0.66,0.66c0,0.36,0.3,0.66,0.66,0.66
	C25.75,5.07,26.05,4.77,26.05,4.41z"/>
<path d="M19.07,4.41c0,0.36,0.29,0.66,0.65,0.66c0.37,0,0.66-0.3,0.66-0.66c0-0.36-0.29-0.66-0.66-0.66
	C19.36,3.75,19.07,4.05,19.07,4.41z"/>
</svg>
