<?xml version="1.0" encoding="utf-8"?>
<!-- Generator: Adobe Illustrator 21.0.0, SVG Export Plug-In . SVG Version: 6.00 Build 0)  -->
<svg version="1.1" id="Layer_1" xmlns="http://www.w3.org/2000/svg" xmlns:xlink="http://www.w3.org/1999/xlink" x="0px" y="0px"
	 viewBox="0 0 36.4 48" style="enable-background:new 0 0 36.4 48;" xml:space="preserve">
<style type="text/css">
	.st0{fill:url(#SVGID_1_);}
</style>
<linearGradient id="SVGID_1_" gradientUnits="userSpaceOnUse" x1="0" y1="24" x2="36.3864" y2="24">
	<stop  offset="0" style="stop-color:#792AA6"/>
	<stop  offset="1" style="stop-color:#F8219F"/>
</linearGradient>
<path class="st0" d="M14.6,38.4c-1.2,0.4-2.5,0.4-3.7-0.1C9.7,37.8,8.6,37,8,36c-1.3,0-2.5-0.5-3.5-1.3c-0.1-0.1-0.2-0.2-0.4-0.3
	L1,40.8c-0.2,0.5-0.2,1.1,0.2,1.5c0.3,0.4,0.9,0.6,1.4,0.5l6.3-1.4l2.8,5.8C12,47.7,12.5,48,13,48h0c0.5,0,1-0.3,1.3-0.8l3.7-7.6
	C16.7,39.5,15.6,39.1,14.6,38.4z M32.8,34.6c-1,0.8-2.2,1.3-3.5,1.3c-0.7,1.1-1.7,1.9-2.9,2.3c-1.2,0.4-2.5,0.5-3.7,0.1
	c-1,0.7-2.1,1.2-3.3,1.2l3.6,7.6c0.2,0.5,0.7,0.8,1.3,0.8l0,0c0.5,0,1-0.3,1.3-0.8l2.8-5.8l6.3,1.4c0.5,0.1,1.1-0.1,1.4-0.5
	c0.3-0.4,0.4-1,0.2-1.5l-3.1-6.6C33,34.4,32.9,34.5,32.8,34.6z M35.6,17.5c0.5-0.6,0.7-1.5,0.6-2.3c-0.1-0.8-0.6-1.5-1.3-2
	c-0.6-0.3-0.8-1-0.6-1.6c0.3-0.8,0.2-1.7-0.3-2.4c-0.4-0.7-1.1-1.2-1.9-1.4C31.5,7.7,31,7.1,31,6.4c0-0.8-0.4-1.6-1-2.1
	c-0.6-0.5-1.5-0.8-2.3-0.7c-0.6,0.1-1.3-0.3-1.5-0.9c-0.3-0.8-0.9-1.4-1.7-1.6S22.8,0.9,22,1.3c-0.6,0.3-1.3,0.2-1.7-0.3
	c-0.6-0.6-1.3-1-2.2-1c-0.8,0-1.6,0.4-2.2,1c-0.4,0.5-1.1,0.6-1.7,0.3c-0.7-0.4-1.6-0.4-2.4-0.2c-0.8,0.3-1.4,0.9-1.7,1.6
	c-0.3,0.6-0.9,1-1.5,0.9C7.8,3.5,7,3.8,6.3,4.3c-0.6,0.5-1,1.3-1,2.1c0,0.7-0.5,1.2-1.1,1.3C3.3,7.9,2.6,8.5,2.2,9.2
	C1.8,9.9,1.7,10.8,2,11.6c0.2,0.6,0,1.3-0.6,1.6c-0.7,0.4-1.2,1.2-1.3,2c-0.1,0.8,0.1,1.7,0.6,2.3C1,18,1,18.7,0.6,19.2
	c-0.5,0.6-0.7,1.5-0.6,2.3c0.1,0.8,0.6,1.5,1.3,2c0.6,0.4,0.8,1,0.6,1.6c-0.3,0.8-0.2,1.6,0.3,2.4c0.4,0.7,1.1,1.2,1.9,1.4
	c0.6,0.1,1.1,0.7,1.1,1.3c0,0.8,0.4,1.6,1,2.1C7,33,7.8,33.2,8.6,33.1c0.7-0.1,1.3,0.3,1.5,0.9c0.3,0.8,0.9,1.4,1.7,1.7
	c0.8,0.3,1.6,0.2,2.4-0.2c0.2-0.1,0.4-0.2,0.7-0.2c0.4,0,0.8,0.2,1.1,0.5c0.6,0.6,1.3,1,2.2,1c0.8,0,1.6-0.4,2.2-1
	c0.4-0.5,1.2-0.6,1.7-0.3c0.7,0.4,1.6,0.5,2.4,0.2c0.8-0.3,1.4-0.9,1.7-1.7c0.3-0.6,0.9-1,1.5-0.9c0.8,0.1,1.7-0.1,2.3-0.7
	c0.6-0.5,1-1.3,1-2.1c0-0.7,0.5-1.2,1.1-1.3c0.8-0.2,1.5-0.7,1.9-1.4c0.4-0.7,0.5-1.6,0.3-2.4c-0.2-0.6,0-1.3,0.6-1.6
	c0.7-0.4,1.2-1.2,1.3-2c0.1-0.8-0.1-1.7-0.6-2.3C35.2,18.7,35.2,18,35.6,17.5z M18.1,30.8c-6.9,0-12.5-5.6-12.5-12.5
	S11.2,5.9,18.1,5.9s12.5,5.6,12.5,12.5S25,30.8,18.1,30.8z M18.1,8.7c-5.3,0-9.6,4.3-9.6,9.6s4.3,9.6,9.6,9.6s9.6-4.3,9.6-9.6
	S23.4,8.7,18.1,8.7z M12.1,16.6c0.6-0.5,1.4-0.5,2,0l2.8,2.8l5.2-5.2c0.6-0.6,1.5-0.6,2,0c0.6,0.5,0.6,1.5,0,2L18,22.5
	c-0.3,0.3-0.6,0.4-1,0.4c-0.4,0-0.7-0.2-1-0.4l-3.8-3.8C11.6,18,11.6,17.1,12.1,16.6z"/>
</svg>
