<?xml version="1.0" encoding="utf-8"?>
<!-- Generator: Adobe Illustrator 21.0.0, SVG Export Plug-In . SVG Version: 6.00 Build 0)  -->
<svg version="1.1" id="Layer_1" xmlns="http://www.w3.org/2000/svg" xmlns:xlink="http://www.w3.org/1999/xlink" x="0px" y="0px"
	 viewBox="0 0 35 48" style="enable-background:new 0 0 35 48;" xml:space="preserve">
<style type="text/css">
	.st0{fill:url(#SVGID_1_);}
</style>
<linearGradient id="SVGID_1_" gradientUnits="userSpaceOnUse" x1="0" y1="24" x2="35" y2="24">
	<stop  offset="0" style="stop-color:#792AA6"/>
	<stop  offset="1" style="stop-color:#F8219F"/>
</linearGradient>
<path class="st0" d="M9,9V1L0.8,9H9z M33.6,0H12v10.6c0,0.8-0.6,1.4-1.4,1.4H0v34.8C0,47.6,0.6,48,1.4,48h32.1
	c0.8,0,1.4-0.6,1.4-1.4V1.4C35,0.6,34.4,0,33.6,0z M21.1,21.1c0.5-0.6,1.5-0.6,2,0l0.6,0.6l1.9-1.9c0.6-0.5,1.5-0.5,2,0
	c0.6,0.6,0.6,1.5,0,2l-2.9,2.9c-0.3,0.3-0.6,0.4-1,0.4c-0.4,0-0.7-0.1-1-0.4l-1.7-1.7C20.5,22.6,20.5,21.7,21.1,21.1z M21.1,14.3
	c0.5-0.6,1.5-0.6,2,0l0.6,0.7l1.9-1.9c0.6-0.6,1.5-0.6,2,0c0.6,0.6,0.6,1.5,0,2L24.8,18c-0.3,0.3-0.6,0.4-1,0.4
	c-0.4,0-0.7-0.1-1-0.4l-1.7-1.7C20.5,15.8,20.5,14.8,21.1,14.3z M21.1,28c0.5-0.6,1.5-0.6,2,0l0.6,0.7l1.9-1.9c0.6-0.6,1.5-0.6,2,0
	c0.6,0.6,0.6,1.5,0,2l-2.9,2.9c-0.3,0.3-0.6,0.4-1,0.4c-0.4,0-0.7-0.1-1-0.4L21.1,30C20.5,29.4,20.5,28.5,21.1,28z M27.7,35.5
	l-2.9,3c-0.3,0.3-0.6,0.4-1,0.4c-0.4,0-0.7-0.2-1-0.4l-1.7-1.7c-0.6-0.6-0.6-1.5,0-2c0.6-0.6,1.5-0.6,2,0l0.6,0.7l1.9-1.9
	c0.6-0.6,1.5-0.6,2,0C28.3,34.1,28.3,35,27.7,35.5z M8.1,15h8.7c0.8,0,1.4,0.8,1.4,1.6c0,0.8-0.6,1.4-1.4,1.4H8.1
	c-0.8,0-1.4-1.2-1.4-2C6.6,15.3,7.3,15,8.1,15z M8.1,22h8.7c0.8,0,1.4,0.8,1.4,1.6c0,0.8-0.6,1.4-1.4,1.4H8.1c-0.8,0-1.4-1-1.4-1.8
	C6.6,22.4,7.3,22,8.1,22z M8.1,29h8.7c0.8,0,1.4,0.8,1.4,1.6c0,0.8-0.6,1.4-1.4,1.4H8.1c-0.8,0-1.4-0.8-1.4-1.6
	C6.6,29.6,7.3,29,8.1,29z M8.1,36h8.7c0.8,0,1.4,0.8,1.4,1.6S17.6,39,16.8,39H8.1c-0.8,0-1.4-0.7-1.4-1.5C6.6,36.7,7.3,36,8.1,36z"
	/>
</svg>
