<?xml version="1.0" encoding="utf-8"?>
<!-- Generator: Adobe Illustrator 21.0.0, SVG Export Plug-In . SVG Version: 6.00 Build 0)  -->
<svg version="1.1" id="Layer_1" xmlns="http://www.w3.org/2000/svg" xmlns:xlink="http://www.w3.org/1999/xlink" x="0px" y="0px"
	 viewBox="0 0 40 40" style="enable-background:new 0 0 40 40;" xml:space="preserve">
<style type="text/css">
	.st0{fill-rule:evenodd;clip-rule:evenodd;fill:url(#SVGID_1_);}
</style>
<linearGradient id="SVGID_1_" gradientUnits="userSpaceOnUse" x1="0" y1="20.0016" x2="40" y2="20.0016">
	<stop  offset="0" style="stop-color:#792AA6"/>
	<stop  offset="1" style="stop-color:#F8219F"/>
</linearGradient>
<path class="st0" d="M40,31.8V28H0v3.8C0,32.5,0.5,33,1.2,33h37.7C39.5,33,40,32.5,40,31.8z M36,26h4V3.2C40,2.5,39.5,2,38.8,2H36
	V26z M4,26V2H1.2C0.5,2,0,2.5,0,3.2V26H4z M16,36v2h-0.9c-0.7,0-1.2,0.5-1.2,1.2c0,0.7,0.5,0.8,1.2,0.8h9.8c0.6,0,2.2,0.1,2.2-0.6
	c0-0.6-0.1-1.5-0.8-1.5H25V36H16z M27.5,9h-9.7c-0.6,0-1.2-0.2-1.2-0.8S17.1,7,17.8,7h9.7c0.6,0,1.2,0.4,1.2,1S28.1,9,27.5,9z
	 M27.5,15h-9.7c-0.6,0-1.2-0.2-1.2-0.8s0.5-1.2,1.2-1.2h9.7c0.6,0,1.2,0.4,1.2,1.1C28.7,14.7,28.1,15,27.5,15z M27.5,21h-9.7
	c-0.6,0-1.2-0.2-1.2-0.8s0.5-1.2,1.2-1.2h9.7c0.6,0,1.2,0.4,1.2,1.1S28.1,21,27.5,21z M12.5,9.1c-0.7,0-1.1-0.5-1.2-1.2
	c0-0.6,0.6-1.2,1.2-1.2c0.7,0,1.1,0.5,1.2,1.2C13.7,8.6,13.1,9.1,12.5,9.1z M12.5,15.1c-0.7,0-1.1-0.5-1.2-1.2s0.6-1.2,1.2-1.2
	c0.7,0,1.1,0.5,1.2,1.2C13.7,14.6,13.1,15.1,12.5,15.1z M12.5,21.1c-0.7,0-1.1-0.5-1.2-1.2c0-0.6,0.6-1.2,1.2-1.2
	c0.7,0,1.1,0.5,1.2,1.2C13.7,20.6,13.1,21.1,12.5,21.1z M6,26h27V1.2C33,0.5,32.5,0,31.8,0H7.2C6.5,0,6,0.5,6,1.2V26z"/>
</svg>
