<?xml version="1.0" encoding="utf-8"?>
<!-- Generator: Adobe Illustrator 16.0.0, SVG Export Plug-In . SVG Version: 6.00 Build 0)  -->
<!DOCTYPE svg PUBLIC "-//W3C//DTD SVG 1.1//EN" "http://www.w3.org/Graphics/SVG/1.1/DTD/svg11.dtd">
<svg version="1.1" id="Layer_1" xmlns="http://www.w3.org/2000/svg" xmlns:xlink="http://www.w3.org/1999/xlink" x="0px" y="0px"
	 width="54.086px" height="54.003px" viewBox="0 0 54.086 54.003" enable-background="new 0 0 54.086 54.003" xml:space="preserve">
<linearGradient id="SVGID_1_" gradientUnits="userSpaceOnUse" x1="43.1768" y1="7.9858" x2="13.9602" y2="58.5904">
	<stop  offset="0" style="stop-color:#7A2AA6"/>
	<stop  offset="1" style="stop-color:#F8219F"/>
</linearGradient>
<path fill-rule="evenodd" clip-rule="evenodd" fill="url(#SVGID_1_)" d="M50.453,50.18c-0.12-0.94-0.59-1.81-1.32-2.42
	c-0.17-0.15-0.36-0.28-0.56-0.4c1.38-1.41,1.38-3.67-0.02-5.06c-1.4-1.4-3.66-1.4-5.06-0.01c-1.41,1.39-1.42,3.65-0.03,5.06
	c-1.03,0.61-1.72,1.65-1.88,2.83c-1.95-1.94-2.4-4.92-1.13-7.34l0.01-0.01v-0.01c1.15-2.19,3.47-3.5,5.94-3.35
	c2.46,0.15,4.61,1.74,5.49,4.05C52.763,45.83,52.203,48.43,50.453,50.18z M44.223,44.84c0-0.99,0.8-1.79,1.79-1.79
	c0.99,0,1.8,0.8,1.8,1.79c0,0.99-0.81,1.8-1.8,1.8C45.023,46.64,44.223,45.83,44.223,44.84z M48.703,51.4
	c-1.7,0.82-3.68,0.82-5.38,0v-0.8c0.16-1.33,1.36-2.3,2.69-2.17c0.72-0.01,1.41,0.23,1.96,0.7c0.45,0.35,0.72,0.89,0.73,1.47V51.4z
	 M33.243,41.21c-0.35-1.84-1.54-3.44-3.26-4.27c1.43-1.23,1.95-3.21,1.3-4.98s-2.34-2.94-4.22-2.94c-1.89,0-3.57,1.17-4.22,2.94
	s-0.14,3.75,1.3,4.98c-1.65,0.8-2.82,2.29-3.22,4.02c-1.14-1.39-1.81-3.16-1.81-5.09c0-4.45,3.61-8.07,8.07-8.07
	c4.46,0,8.07,3.62,8.07,8.07C35.253,37.92,34.493,39.79,33.243,41.21z M24.363,33.54c0-1.49,1.21-2.7,2.7-2.7
	c1.49,0,2.7,1.21,2.7,2.7c0,1.49-1.21,2.7-2.7,2.7C25.573,36.24,24.363,35.03,24.363,33.54z M31.563,43.44h-1.57
	c-0.39,0.15-0.8,0.26-1.21,0.35c-0.12,0.02-0.25,0.05-0.37,0.06c-0.19,0.03-0.38,0.06-0.58,0.07c-0.22,0.02-0.43,0.03-0.65,0.03
	c-0.21,0-0.43-0.01-0.64-0.03l-0.19-0.01c-0.18-0.02-0.35-0.04-0.53-0.08c-0.22-0.03-0.44-0.08-0.66-0.14l-0.24-0.06
	c-0.18-0.05-0.35-0.11-0.52-0.17l-0.05-0.02h-1.79v-1.16c0.08-2.41,2.09-4.31,4.5-4.24c2.41-0.07,4.42,1.83,4.5,4.24V43.44z
	 M24.493,13.74v-0.81c0.16-1.33,1.35-2.29,2.69-2.17c0.72-0.01,1.41,0.24,1.95,0.7c0.46,0.36,0.73,0.9,0.74,1.47v0.81
	C28.173,14.56,26.193,14.56,24.493,13.74z M28.973,7.18c0,0.99-0.8,1.79-1.79,1.79c-0.99,0-1.79-0.8-1.79-1.79
	c0-0.99,0.8-1.8,1.79-1.8C28.173,5.38,28.973,6.19,28.973,7.18z M22.753,12.51c-1.18-1.17-1.85-2.77-1.85-4.44
	c0-2.84,1.91-5.33,4.66-6.06c2.74-0.74,5.64,0.46,7.06,2.92c1.42,2.46,1.01,5.57-1,7.58c-0.12-0.94-0.59-1.8-1.32-2.41
	c-0.18-0.15-0.37-0.29-0.57-0.41c1.39-1.4,1.38-3.67-0.02-5.06c-1.39-1.39-3.66-1.4-5.06,0c-1.4,1.39-1.41,3.65-0.03,5.06
	C23.604,10.29,22.914,11.33,22.753,12.51z M12.783,50.18c-0.11-0.94-0.58-1.81-1.31-2.42c-0.18-0.15-0.37-0.28-0.57-0.4
	c1.39-1.41,1.38-3.67-0.02-5.06c-1.4-1.4-3.66-1.4-5.06-0.01c-1.4,1.39-1.41,3.65-0.03,5.06c-1.02,0.61-1.72,1.65-1.88,2.83
	c-1.75-1.75-2.31-4.35-1.43-6.66c0.87-2.31,3.02-3.9,5.48-4.05c2.47-0.15,4.79,1.16,5.94,3.35v0.01l0.01,0.01
	C15.183,45.26,14.733,48.24,12.783,50.18z M6.553,44.84c0-0.99,0.81-1.79,1.8-1.79c0.99,0,1.79,0.8,1.79,1.79
	c0,0.99-0.8,1.8-1.79,1.8C7.363,46.64,6.563,45.83,6.553,44.84z M11.043,51.4c-1.7,0.82-3.68,0.82-5.38,0v-0.8
	c0.16-1.33,1.35-2.3,2.69-2.17c0.71-0.01,1.41,0.23,1.95,0.7c0.46,0.35,0.73,0.89,0.74,1.47V51.4z M14.583,26.86
	c-0.12-0.94-0.59-1.8-1.32-2.41c-0.18-0.15-0.37-0.29-0.56-0.41c1.38-1.41,1.37-3.67-0.02-5.06c-1.4-1.4-3.67-1.4-5.07-0.01
	c-1.4,1.4-1.41,3.66-0.02,5.07c-1.03,0.6-1.72,1.64-1.88,2.82c-1.18-1.17-1.85-2.77-1.85-4.44c0-2.84,1.91-5.33,4.66-6.06
	c2.74-0.74,5.64,0.46,7.06,2.92S16.593,24.85,14.583,26.86z M8.354,21.53c0-0.99,0.8-1.8,1.79-1.8c0.99,0,1.8,0.81,1.8,1.8
	c0,0.99-0.81,1.79-1.8,1.79C9.153,23.32,8.354,22.52,8.354,21.53z M12.833,28.09c-1.7,0.82-3.68,0.82-5.38,0v-0.81
	c0.16-1.33,1.35-2.29,2.69-2.17c0.72-0.01,1.41,0.24,1.96,0.7c0.45,0.36,0.72,0.9,0.73,1.47V28.09z M38.423,20.02
	c0.97-2.35,3.26-3.88,5.8-3.87c2.54-0.01,4.83,1.52,5.8,3.87c0.97,2.35,0.43,5.05-1.36,6.84c-0.12-0.94-0.59-1.8-1.32-2.41
	c-0.18-0.15-0.37-0.29-0.57-0.41c1.39-1.41,1.38-3.67-0.02-5.06c-1.39-1.4-3.66-1.4-5.06-0.01c-1.4,1.4-1.41,3.66-0.03,5.07
	c-1.02,0.6-1.71,1.64-1.88,2.82C37.993,25.07,37.453,22.37,38.423,20.02z M42.433,21.53c0-0.99,0.8-1.8,1.79-1.8
	c0.99,0,1.79,0.81,1.79,1.8c0,0.99-0.8,1.79-1.79,1.79C43.233,23.32,42.433,22.52,42.433,21.53z M46.914,28.09
	c-1.7,0.82-3.68,0.82-5.38,0v-0.81c0.16-1.33,1.35-2.29,2.69-2.17c0.71-0.01,1.41,0.24,1.95,0.7c0.46,0.36,0.73,0.9,0.74,1.47V28.09
	z M53.723,43.35c-1.04-3.38-4.17-5.68-7.71-5.68c-2.68,0-5.18,1.33-6.68,3.55l-3.03-1.58c1.24-3,0.92-6.42-0.86-9.14l3.05-2.41
	c3.03,3.1,7.96,3.29,11.22,0.42c3.26-2.86,3.71-7.77,1.04-11.18c-2.68-3.41-7.56-4.14-11.12-1.65c-3.55,2.49-4.54,7.32-2.25,11
	l-3.05,2.42c-1.65-1.74-3.87-2.83-6.25-3.04v-9.97c4.25-0.47,7.4-4.19,7.16-8.47C35.003,3.35,31.463,0,27.183,0
	c-4.28,0-7.82,3.35-8.06,7.62c-0.24,4.28,2.91,8,7.16,8.47v9.97c-2.38,0.21-4.6,1.29-6.25,3.04l-3.05-2.42
	c2.25-3.62,1.27-8.37-2.23-10.81c-3.49-2.44-8.29-1.73-10.92,1.62c-2.64,3.36-2.19,8.18,1.01,11c3.2,2.82,8.04,2.64,11.04-0.4
	l3.04,2.41c-1.78,2.72-2.1,6.14-0.85,9.14l-3.04,1.58c-2.42-3.62-7.25-4.72-11-2.5c-3.76,2.22-5.12,6.99-3.1,10.86
	c2.01,3.87,6.69,5.49,10.67,3.69c3.97-1.8,5.84-6.39,4.26-10.46l3.04-1.59c0.52,0.81,1.15,1.53,1.86,2.14l0.2,0.17
	c0.12,0.1,0.25,0.2,0.38,0.29c0.31,0.24,0.64,0.45,0.99,0.64c0.14,0.08,0.28,0.16,0.42,0.23l0.38,0.19l0.15,0.06l0.35,0.14
	c0.15,0.06,0.3,0.11,0.45,0.16h6.2l0.02-0.01c0.27-0.09,0.54-0.19,0.8-0.3c0.27-0.12,0.54-0.25,0.79-0.39
	c0.29-0.16,0.58-0.33,0.85-0.52c0.18-0.12,0.35-0.24,0.51-0.38c0.04-0.02,0.07-0.04,0.1-0.07c0.82-0.66,1.53-1.45,2.11-2.35
	l3.04,1.59c-1.28,3.3-0.26,7.05,2.51,9.25c2.77,2.19,6.65,2.33,9.57,0.33C53.493,50.39,54.773,46.72,53.723,43.35z"/>
</svg>
