<?xml version="1.0" encoding="utf-8"?>
<!-- Generator: Adobe Illustrator 16.0.0, SVG Export Plug-In . SVG Version: 6.00 Build 0)  -->
<!DOCTYPE svg PUBLIC "-//W3C//DTD SVG 1.1//EN" "http://www.w3.org/Graphics/SVG/1.1/DTD/svg11.dtd">
<svg version="1.1" id="Layer_1" xmlns="http://www.w3.org/2000/svg" xmlns:xlink="http://www.w3.org/1999/xlink" x="0px" y="0px"
	 width="39.92px" height="40px" viewBox="0 0 39.92 40" enable-background="new 0 0 39.92 40" xml:space="preserve">
<g>
	<path fill-rule="evenodd" clip-rule="evenodd" fill="#36C5F0" d="M14.64,10.67H3.99c-2.2,0-3.99,1.79-3.99,4
		c0,2.2,1.78,3.99,3.99,4h10.65c2.2,0,3.99-1.8,3.99-4C18.63,12.46,16.84,10.67,14.64,10.67z M14.64,0c-2.21,0-4,1.79-3.99,4
		c-0.01,2.21,1.78,4,3.99,4h3.99V4C18.63,1.79,16.84,0,14.64,0z"/>
	<path fill-rule="evenodd" clip-rule="evenodd" fill="#2EB67D" d="M29.27,14.67V4c0.01-2.21-1.78-4-3.99-4c-2.2,0-3.99,1.79-3.99,4
		v10.67c0,2.2,1.79,3.99,3.99,4C27.49,18.67,29.28,16.87,29.27,14.67z M39.92,14.67c0-2.21-1.79-4-3.99-4c-2.21,0-4,1.79-4,4v4h4
		C38.13,18.67,39.92,16.87,39.92,14.67z"/>
	<path fill-rule="evenodd" clip-rule="evenodd" fill="#ECB22E" d="M25.28,29.33h10.65c2.2,0,3.99-1.79,3.99-4c0-2.2-1.78-4-3.99-4
		H25.28c-2.2,0-3.99,1.79-3.99,4S23.08,29.33,25.28,29.33z M25.28,40c2.21,0,4-1.79,3.99-4c0.01-2.21-1.78-4-3.99-4h-3.99v4
		C21.29,38.21,23.08,40,25.28,40z"/>
	<path fill-rule="evenodd" clip-rule="evenodd" fill="#E01E5A" d="M10.65,25.33V36c-0.01,2.21,1.78,4,3.99,4c2.2,0,3.99-1.79,3.99-4
		V25.34c0-2.21-1.79-4-3.99-4.01C12.43,21.33,10.64,23.13,10.65,25.33z M0,25.33c0,2.21,1.79,4,3.99,4c2.21,0,4-1.79,4-4v-4h-4
		C1.79,21.33,0,23.13,0,25.33z"/>
</g>
</svg>
