<?xml version="1.0" encoding="utf-8"?>
<!-- Generator: Adobe Illustrator 25.0.0, SVG Export Plug-In . SVG Version: 6.00 Build 0)  -->
<svg version="1.1" id="Layer_1" xmlns="http://www.w3.org/2000/svg" xmlns:xlink="http://www.w3.org/1999/xlink" x="0px" y="0px"
	 width="20px" height="20px" viewBox="0 0 20 20" style="enable-background:new 0 0 20 20;" xml:space="preserve">
<style type="text/css">
	.st0{fill:#9CA2BC;}
</style>
<path class="st0" d="M7.5,13.1c3.1,0,5.6-2.5,5.6-5.6s-2.5-5.6-5.6-5.6S1.9,4.4,1.9,7.5S4.4,13.1,7.5,13.1z M7.5,0
	C11.6,0,15,3.4,15,7.5c0,1.7-0.6,3.3-1.6,4.6l6.3,6.3c0.2,0.2,0.3,0.4,0.3,0.7s-0.1,0.5-0.3,0.7c-0.2,0.2-0.4,0.3-0.7,0.3
	s-0.5-0.1-0.7-0.3l-6.3-6.3c-1.3,1-2.9,1.6-4.6,1.6C3.4,15,0,11.6,0,7.5S3.4,0,7.5,0z"/>
</svg>
