<?xml version="1.0" encoding="utf-8"?>
<!-- Generator: Adobe Illustrator 21.0.0, SVG Export Plug-In . SVG Version: 6.00 Build 0)  -->
<svg version="1.1" id="Layer_1" xmlns="http://www.w3.org/2000/svg" xmlns:xlink="http://www.w3.org/1999/xlink" x="0px" y="0px"
	 viewBox="0 0 40 40" style="enable-background:new 0 0 40 40;" xml:space="preserve">
<style type="text/css">
	.st0{fill-rule:evenodd;clip-rule:evenodd;fill:url(#SVGID_1_);}
</style>
<linearGradient id="SVGID_1_" gradientUnits="userSpaceOnUse" x1="0" y1="20" x2="40" y2="20">
	<stop  offset="0" style="stop-color:#792AA6"/>
	<stop  offset="1" style="stop-color:#F8219F"/>
</linearGradient>
<path class="st0" d="M19.5,0.1L0.7,7.9c-1,0.4-1,1.8,0,2.2l18.8,7.8c0.3,0.1,0.6,0.1,0.9,0l18.8-7.8c1-0.4,1-1.8,0-2.2L20.5,0.1
	C20.2,0,19.8,0,19.5,0.1z M39.3,29.9l-3.2-1.3l-14.7,6.1C20.9,34.9,20.5,35,20,35s-0.9-0.1-1.4-0.3L3.9,28.6l-3.2,1.3
	c-1,0.4-1,1.8,0,2.2l18.8,7.8c0.3,0.1,0.6,0.1,0.9,0l18.8-7.8C40.2,31.7,40.2,30.3,39.3,29.9z M39.3,22.6l-3.2-1.3l-14.7,6.1
	c-0.4,0.2-0.9,0.3-1.4,0.3s-0.9-0.1-1.4-0.3L3.9,21.3l-3.2,1.3c-1,0.4-1,1.8,0,2.2l18.8,7.8c0.3,0.1,0.6,0.1,0.9,0l18.8-7.8
	C40.2,24.4,40.2,23,39.3,22.6z M39.3,15.3l-3.2-1.3L21.4,20c-0.4,0.2-0.9,0.3-1.4,0.3s-0.9-0.1-1.4-0.3L3.9,13.9l-3.2,1.3
	c-1,0.4-1,1.8,0,2.2l18.8,7.8c0.3,0.1,0.6,0.1,0.9,0l18.8-7.8C40.2,17,40.2,15.6,39.3,15.3z"/>
</svg>
