<?xml version="1.0" encoding="utf-8"?>
<!-- Generator: Adobe Illustrator 16.0.0, SVG Export Plug-In . SVG Version: 6.00 Build 0)  -->
<!DOCTYPE svg PUBLIC "-//W3C//DTD SVG 1.1//EN" "http://www.w3.org/Graphics/SVG/1.1/DTD/svg11.dtd">
<svg version="1.1" id="Layer_1" xmlns="http://www.w3.org/2000/svg" xmlns:xlink="http://www.w3.org/1999/xlink" x="0px" y="0px"
	 width="54px" height="54px" viewBox="0 0 54 54" enable-background="new 0 0 54 54" xml:space="preserve">
<linearGradient id="SVGID_1_" gradientUnits="userSpaceOnUse" x1="45.2783" y1="-0.1318" x2="13.0753" y2="55.6454">
	<stop  offset="0" style="stop-color:#7A2AA6"/>
	<stop  offset="1" style="stop-color:#F8219F"/>
</linearGradient>
<path fill="url(#SVGID_1_)" d="M31.5,6c0.5,0,0.9,0,0.9-0.5S32,4,31.5,4h-5.4c-0.5,0-0.9,1-0.9,1.5S25.6,6,26.1,6H31.5z M36.9,6
	c0.5,0,0.9,0,0.9-0.5S37.4,4,36.9,4h-1.8c-0.5,0-0.9,1-0.9,1.5S34.6,6,35.1,6H36.9z M8.1,18h8.1c0.5,0,0.9-0.6,0.9-1.1
	S16.7,16,16.2,16H8.1c-0.5,0-0.9,0.4-0.9,0.9S7.6,18,8.1,18z M19.8,16.9c0,0.5,0.4,1.1,0.9,1.1h13.5c0.5,0,0.9-0.6,0.9-1.1
	S34.7,16,34.2,16H20.7C20.2,16,19.8,16.4,19.8,16.9z M34.2,21h-8.1c-0.5,0-0.9,0.6-0.9,1.1s0.4,0.9,0.9,0.9h8.1
	c0.5,0,0.9-0.1,0.9-0.6S34.7,21,34.2,21z M8.1,23h13.5c0.5,0,0.9-0.6,0.9-1.1S22.1,21,21.6,21H8.1c-0.5,0-0.9,0.9-0.9,1.4
	S7.6,23,8.1,23z M8.1,27h8.1c0.5,0,0.9-0.6,0.9-1.1S16.7,25,16.2,25H8.1c-0.5,0-0.9,0.4-0.9,0.9S7.6,27,8.1,27z M34.2,25H20.7
	c-0.5,0-0.9,0.6-0.9,1.1s0.4,0.9,0.9,0.9h13.5c0.5,0,0.9-0.6,0.9-1.1S34.7,25,34.2,25z M49.5,3h-7.19c-0.43-2.09-2.27-3-4.41-3H12.6
	c-0.24,0-0.47,0.09-0.64,0.26l-11.7,11.7C0.09,12.13,0,12.36,0,12.6v26.1c0,0.5,0.6,0.9,1.1,0.9S2,39.2,2,38.7V14h7.7
	c2.48,0,4.3-2.02,4.3-4.5V2h23.8C39.29,2,40,3.21,40,4.7v30.4l-1.44-1.08c-0.41-0.31-1.36-0.36-1.81-0.13
	C36.29,34.12,36,34.59,36,35.1V36h-9.65C25.6,36,25,36.6,25,37.35v4.3C25,42.4,25.6,43,26.35,43H36v1.1c0,0.51,0.29,0.98,0.75,1.21
	c0.45,0.23,1.4,0.18,1.81-0.13L40,44.1v1.2c0,1.49-1.21,2.7-2.7,2.7H4.5c-1.49,0-2.7-1.21-2.7-2.7c0-0.5-0.4-0.3-0.9-0.3
	S0,45,0,45.5C0,47.98,2.02,50,4.5,50h8.19c0.43,2.09,2.27,4,4.41,4h32.4c2.48,0,4.5-2.02,4.5-4.5v-42C54,5.02,51.98,3,49.5,3z
	 M9.3,12H3.37L12,3.07V9.3C12,10.79,10.79,12,9.3,12z M37.8,43.35C37.13,42.81,37.2,41,36.45,41H27v-3h9.65
	C37.4,38,38,37.4,38,36.65V36l4.8,3.6L37.8,43.35z M52,49.3c0,1.49-1.21,2.7-2.7,2.7H17.1c-1.14,0-2.15-0.93-2.53-2H37.5
	c2.48,0,4.5-2.02,4.5-4.5v-2.75l2.76-2.07c0.34-0.26-0.06-0.65-0.06-1.08c0-0.43,0.4-0.82,0.06-1.08L42,36.45V31h5.4
	c0.5,0,0.3-0.2,0.3-0.7S47.3,29,46.8,29H42v-3h5.4c0.5,0,0.3-0.7,0.3-1.2S47.3,24,46.8,24H42v-3h5.4c0.5,0,0.3-1.2,0.3-1.7
	S47.3,19,46.8,19H42V9h2.7C45.2,9,45,8.4,45,7.9S44.6,7,44.1,7H42V5h7.9C51.39,5,52,6.21,52,7.7V49.3z M49.5,7h-1.8
	c-0.5,0-0.9,0.6-0.9,1.1S47.2,9,47.7,9h1.8c0.5,0,0.9-0.6,0.9-1.1S50,7,49.5,7z M0.9,41.4c0.5,0,0.9,0.4,0.9,0.9s-0.4,0.9-0.9,0.9
	S0,42.8,0,42.3S0.4,41.4,0.9,41.4z"/>
</svg>
