<?xml version="1.0" encoding="utf-8"?>
<!-- Generator: Adobe Illustrator 25.0.0, SVG Export Plug-In . SVG Version: 6.00 Build 0)  -->
<svg version="1.1" id="Layer_1" xmlns="http://www.w3.org/2000/svg" xmlns:xlink="http://www.w3.org/1999/xlink" x="0px" y="0px"
	 width="48px" height="48px" viewBox="0 0 48 48" style="enable-background:new 0 0 48 48;" xml:space="preserve">
<style type="text/css">
	.st0{fill-rule:evenodd;clip-rule:evenodd;fill:url(#SVGID_1_);}
</style>
<linearGradient id="SVGID_1_" gradientUnits="userSpaceOnUse" x1="24" y1="0" x2="24" y2="48">
	<stop  offset="0" style="stop-color:#7A2AA6"/>
	<stop  offset="1" style="stop-color:#F8219F"/>
</linearGradient>
<path class="st0" d="M1.6,19.2c0-0.2-0.1-0.4-0.2-0.6l-0.1-0.1c0,0-0.1-0.1-0.1-0.1c0,0-0.1,0-0.1,0l-0.2,0c-0.2,0-0.4,0.1-0.6,0.2
	c-0.1,0.1-0.1,0.2-0.2,0.3c-0.1,0.3,0,0.6,0.2,0.9c0.1,0.1,0.2,0.1,0.3,0.2C0.6,20,0.7,20,0.8,20c0.2,0,0.4-0.1,0.6-0.2
	C1.5,19.6,1.6,19.4,1.6,19.2z M12.2,14.9c0.4,0,0.8-0.3,0.8-1.1S12.7,13,12.2,13H4.8C4.4,13,4,13.7,4,14.5s0.4,0.4,0.8,0.4H12.2z
	 M17.2,14.9c0.4,0,0.8-0.3,0.8-1.1S17.6,13,17.2,13h-1.7c-0.5,0-0.8,0.7-0.8,1.5s0.4,0.4,0.8,0.4H17.2z M24.8,3.2
	C24.4,3.2,24,3.6,24,4s0.4,0.8,0.8,0.8c0.4,0,0.8-0.4,0.8-0.8S25.2,3.2,24.8,3.2z M28,3.2c-0.4,0-0.8,0.4-0.8,0.8s0.4,0.8,0.8,0.8
	s0.8-0.4,0.8-0.8S28.4,3.2,28,3.2z M31.2,3.2c-0.4,0-0.8,0.4-0.8,0.8s0.4,0.8,0.8,0.8C31.6,4.8,32,4.4,32,4S31.6,3.2,31.2,3.2z
	 M26,14.6V11h1.1l4.8,1.6L26,14.6z M32.1,11h4.5l-2.3,0.8L32.1,11z M41.7,11H43v3.6l-6.1-2L41.7,11z M39.1,15h-9.3l4.7-1.6L39.1,15z
	 M44.2,17c0.4,0,0.8-0.4,0.8-0.8V9.8c0-0.2-0.1-0.4-0.2-0.5c0-0.2-0.1-0.3-0.3-0.5c-0.2-0.2-0.5-0.2-0.8-0.2L42.7,9H26.1L25,8.6
	c-0.3-0.1-0.6,0-0.8,0.2C24,9,24,9.3,24,9.6l0,0c0,0.1,0,0.1,0,0.2v6c0,0.4,0.4,1.2,0.8,1.2H44.2z M33.6,21c0.4,0,0.8-0.6,0.8-1
	s-0.4-1-0.8-1h-8.8c-0.4,0-0.8,0.4-0.8,0.8c0,0.4,0.4,1.2,0.8,1.2H33.6z M44,21c0.4,0,0.8-0.6,0.8-1s-0.4-1-0.8-1h-7.2
	c-0.4,0-0.8,0.4-0.8,0.8c0,0.4,0.4,1.2,0.8,1.2H44z M44,24c0.4,0,0.8-0.8,0.8-1.2c0-0.4-0.4-0.8-0.8-0.8H24.8
	c-0.4,0-0.8,0.4-0.8,0.8c0,0.4,0.4,1.2,0.8,1.2H44z M30.5,27.9c0.5,0,0.8,0.1,0.8-0.8c0-0.8-0.4-1.1-0.8-1.1h-5.6
	c-0.4,0-0.8,0.7-0.8,1.5s0.4,0.4,0.8,0.4H30.5z M44.2,27.9c0.5,0,0.8,0.1,0.8-0.8c0-0.8-0.4-1.1-0.8-1.1h-9.7
	c-0.5,0-0.8,0.7-0.8,1.5s0.4,0.4,0.8,0.4H44.2z M1.2,16.8C1.6,16.8,2,16.4,2,16v-2.8c0.3-0.2,0.6-0.4,0.6-0.6c0-0.9-0.3-1.6,0.6-1.6
	H21v17.8c0,1.3,1.1,2.2,2.4,2.2H38v2H2V22.4c0-0.4-0.4-0.8-0.8-0.8S0,22,0,22.4v14.4V38h0.2c0.5,1.2,1.6,2,3,2h11.3l-1.4,3.3
	c-1.1,0.2-1.9,1.2-1.9,2.3c0,1.3,1.1,2.4,2.4,2.4h12.8c1.3,0,2.4-1.1,2.4-2.4c0-1.1-0.8-2.1-1.8-2.3L25.5,40h11.3
	c1.8,0,3.2-1.4,3.2-3.2v-3V31h5.6c1.3,0,2.4-1.1,2.4-2.4V6.8V2.4C48,1.1,46.9,0,45.6,0H23.4C22.1,0,21,1.1,21,2.4v3.9
	c-0.1,0.1-0.2,0.3-0.2,0.5c0,0.2,0.1,0.5,0.2,0.7V9H3.2C1.4,9,0,10.4,0,12.2c0,0.2,0.1,0.5,0.2,0.8H0v3.2C0,16.6,0.8,16.8,1.2,16.8z
	 M13.6,44.8h12.8c0.4,0,0.8,0.4,0.8,0.8c0,0.4-0.4,0.8-0.8,0.8H13.6c-0.4,0-0.8-0.4-0.8-0.8C12.8,45.2,13.2,44.8,13.6,44.8z
	 M25.2,43.2H14.8l1.4-3.2H20h3.8L25.2,43.2z M2,37.5v-2.6h36v1.5c0,0.9-0.7,1.6-1.6,1.6H20.8v-0.4c0-0.4-0.4-0.8-0.8-0.8
	s-0.8,0.4-0.8,0.8V38h-16C2.7,38,2.3,37.8,2,37.5z M23.8,2h21.4C45.6,2,46,2.4,46,2.8V6H23V2.8C23,2.4,23.4,2,23.8,2z M46,8v20.2
	c0,0.4-0.4,0.8-0.8,0.8H23.8c-0.4,0-0.8-0.4-0.8-0.8V8H46z"/>
</svg>
