<?xml version="1.0" encoding="utf-8"?>
<!-- Generator: Adobe Illustrator 16.0.0, SVG Export Plug-In . SVG Version: 6.00 Build 0)  -->
<!DOCTYPE svg PUBLIC "-//W3C//DTD SVG 1.1//EN" "http://www.w3.org/Graphics/SVG/1.1/DTD/svg11.dtd">
<svg version="1.1" id="Layer_1" xmlns="http://www.w3.org/2000/svg" xmlns:xlink="http://www.w3.org/1999/xlink" x="0px" y="0px"
	 width="48px" height="53.997px" viewBox="0 0 48 53.997" enable-background="new 0 0 48 53.997" xml:space="preserve">
<linearGradient id="SVGID_1_" gradientUnits="userSpaceOnUse" x1="38.9385" y1="-1.7285" x2="10.806" y2="46.9984">
	<stop  offset="0" style="stop-color:#7A2AA6"/>
	<stop  offset="1" style="stop-color:#F8219F"/>
</linearGradient>
<path fill="url(#SVGID_1_)" d="M15.9,11.537c-0.06,0-0.12-0.01-0.17-0.02c-0.49-0.09-0.81-0.57-0.71-1.06
	c0.83-4.3,4.87-6.01,5.04-6.08c0.29-0.12,0.63-0.08,0.89,0.12c0.25,0.2,0.38,0.51,0.34,0.83c-0.04,0.32-0.25,0.6-0.55,0.72
	c-0.03,0.01-3.31,1.43-3.96,4.76C16.7,11.227,16.33,11.537,15.9,11.537z M1.52,35.927c-0.5,0-0.9-0.4-0.91-0.9
	c0-0.5,0.4-0.9,0.9-0.91h0.01c0.5,0,0.9,0.41,0.9,0.91S2.02,35.927,1.52,35.927z M5.1,42.957h9c0.28,0,0.55,0.34,0.72,0.56l7.1,9.5
	c0.52,0.63,1.29,0.99,2.1,0.98s1.58-0.38,2.09-1.01l7.07-9.67c0.17-0.22,0.44-0.36,0.72-0.36h9.6c2.48,0,4.5-2.02,4.5-4.52v-24.09
	c0-2.49-2.02-4.51-4.5-4.51H37c-1.67-6.11-7.35-10.13-13.65-9.82c-5.82,0.29-10.8,4.18-12.36,9.82H4.5c-2.48,0-4.5,2.02-4.5,4.51
	v17.07c0,0.49,1,0.9,1.5,0.9s0.5-0.41,0.5-0.9v-16.87c0-1.49,1.21-2.71,2.7-2.71h5.93c-0.02,0.19-0.06,0.38-0.07,0.57
	c-0.39,4.14,1.45,7.91,4.46,10.76c1.94,1.92,3.02,4.55,2.98,7.29v5.47c0.01,1.64,1.42,3.08,3,3.49v1.03c0,0.5,0.2,0.9,0.7,0.9
	s1.3-0.4,1.3-0.9v-0.5h3v0.9c0,0.5,0.8,0.5,1.3,0.5s0.7-0.4,0.7-0.9v-1.03c1.58-0.41,2.99-1.85,3-3.49v-5.63
	c-0.04-2.66,1.02-5.22,2.92-7.07c2.74-2.55,3.59-5.83,3.58-9.58c0-0.6-0.05-1.21-0.13-1.81h5.93c1.49,0,2.7,1.22,2.7,2.71v23.69
	c0,1.5-1.21,2.71-2.7,2.71h-9.4c-0.85,0.01-1.65,0.41-2.16,1.09l-7.05,9.83c-0.36,0.38-0.97,0.4-1.36,0.04l-7.07-9.87
	c-0.51-0.68-1.31-1.08-2.16-1.09h-9c-1.49,0-2.7-1.21-2.7-2.71c0-0.5-0.4-0.5-0.9-0.5s-0.9,0.4-0.9,0.9
	C0.6,41.137,2.62,42.957,5.1,42.957z M29,35.836c0,1-0.81,2.1-1.8,2.1h-5.4c-0.99,0-1.8-0.81-1.8-1.8v-3.22h9V35.836z M32.49,21.876
	c-2.26,2.2-3.53,5.23-3.49,8.4v0.64h-9v-0.96c0.04-3.23-1.24-5.84-3.54-8.1c-3.49-3.31-5.1-8.42-3.32-12.89
	c1.78-4.47,6.1-7.4,10.89-7.38c4.8,0.01,9.1,2.94,10.86,7.42c1.75,4.48,0.61,9.58-2.9,12.87H32.49z M21.8,25.086
	c-0.5,0-0.8,0.41-0.8,0.9v2.71c0,0.5,0.3,0.91,0.8,0.91s1.2-0.41,1.2-0.91v-2.71C23,25.497,22.3,25.086,21.8,25.086z M21.8,19.667
	c-0.5,0-0.8,0.4-0.8,0.9v0.91c0,0.5,0.3,0.9,0.8,0.9s1.2-0.4,1.2-0.9v-0.91C23,20.066,22.3,19.667,21.8,19.667z M26.2,25.086
	c-0.5,0-1.2,0.41-1.2,0.9v2.71c0,0.5,0.7,0.91,1.2,0.91s0.8-0.41,0.8-0.91v-2.71C27,25.497,26.7,25.086,26.2,25.086z M26.2,19.667
	c-0.5,0-1.2,0.4-1.2,0.9v0.91c0,0.5,0.7,0.9,1.2,0.9s0.8-0.4,0.8-0.9v-0.91C27,20.066,26.7,19.667,26.2,19.667z M9.6,6.117
	c0.38,0,0.72-0.24,0.85-0.6c0.13-0.37,0.01-0.77-0.29-1.01l-4.5-3.61c-0.39-0.32-0.95-0.25-1.26,0.14s-0.25,0.96,0.14,1.27l4.5,3.61
	C9.2,6.046,9.4,6.117,9.6,6.117z M38.96,5.917l4.5-3.61c0.39-0.31,0.45-0.88,0.14-1.27s-0.87-0.46-1.26-0.14l-4.5,3.61
	c-0.25,0.2-0.38,0.52-0.33,0.84c0.05,0.32,0.26,0.59,0.56,0.71C38.37,6.177,38.71,6.117,38.96,5.917z M4.4,32.977
	c0.15,0.19,0.36,0.31,0.6,0.34c0.24,0.02,0.48-0.05,0.66-0.2l4.5-3.61c0.39-0.31,0.45-0.88,0.14-1.27
	c-0.31-0.39-0.87-0.45-1.26-0.14l-4.5,3.61c-0.19,0.15-0.31,0.37-0.33,0.61C4.18,32.557,4.25,32.796,4.4,32.977z M37.7,28.237
	c-0.15,0.19-0.22,0.43-0.2,0.66c0.03,0.24,0.15,0.46,0.34,0.61l4.5,3.61c0.39,0.32,0.95,0.25,1.26-0.14s0.25-0.96-0.14-1.27
	l-4.5-3.61c-0.18-0.15-0.42-0.22-0.66-0.19C38.06,27.927,37.85,28.046,37.7,28.237z M7.8,14.856H5.1c-0.5,0-0.9,0.6-0.9,1.1
	s0.4,0.9,0.9,0.9h2.7c0.5,0,0.9-0.8,0.9-1.3S8.3,14.856,7.8,14.856z M42.9,16.856c0.5,0,0.9-0.8,0.9-1.3s-0.4-0.7-0.9-0.7h-2.7
	c-0.5,0-0.9,0.2-0.9,0.7s0.4,1.3,0.9,1.3H42.9z"/>
</svg>
