<?xml version="1.0" encoding="utf-8"?>
<!-- Generator: Adobe Illustrator 16.0.0, SVG Export Plug-In . SVG Version: 6.00 Build 0)  -->
<!DOCTYPE svg PUBLIC "-//W3C//DTD SVG 1.1//EN" "http://www.w3.org/Graphics/SVG/1.1/DTD/svg11.dtd">
<svg version="1.1" id="Layer_1" xmlns="http://www.w3.org/2000/svg" xmlns:xlink="http://www.w3.org/1999/xlink" x="0px" y="0px"
	 width="58px" height="47.999px" viewBox="0 0 58 47.999" enable-background="new 0 0 58 47.999" xml:space="preserve">
<linearGradient id="SVGID_1_" gradientUnits="userSpaceOnUse" x1="44.4629" y1="0.2168" x2="13.5378" y2="53.7806">
	<stop  offset="0" style="stop-color:#7A2AA6"/>
	<stop  offset="1" style="stop-color:#F8219F"/>
</linearGradient>
<path fill="url(#SVGID_1_)" d="M0.83,15.519c0.53,0,1.17-0.44,1.17-0.97v-3.65c0-1.6,1.29-2.9,2.88-2.9h12.61
	c0.53,0,0.96-0.27,0.96-0.8c0-0.54-0.43-1.2-0.96-1.2H4.8c-2.65,0-4.8,2.17-4.8,4.84v3.71C0,15.079,0.3,15.519,0.83,15.519z
	 M1.54,17.528c-0.06-0.03-0.11-0.05-0.17-0.06l-0.2-0.02c-0.25,0.01-0.49,0.11-0.68,0.28c-0.08,0.1-0.15,0.21-0.2,0.32
	c-0.14,0.37-0.06,0.78,0.2,1.06c0.09,0.09,0.2,0.16,0.32,0.2c0.11,0.05,0.24,0.08,0.36,0.08c0.26,0,0.5-0.1,0.68-0.28
	c0.38-0.38,0.38-0.99,0-1.38l-0.14-0.11C1.66,17.579,1.6,17.548,1.54,17.528z M53.2,5.999H35.43l4.75-4.27
	c0.27-0.22,0.41-0.58,0.35-0.93c-0.06-0.35-0.31-0.64-0.64-0.75c-0.33-0.11-0.7-0.03-0.96,0.21l-6.72,5.81l-0.02,0.02
	c-0.06,0.07-0.12,0.15-0.17,0.23l-0.06,0.09c-0.11,0.25-0.11,0.54,0,0.78l0.06,0.09c0.05,0.09,0.11,0.16,0.17,0.23l0.02,0.03
	l6.72,5.81c0.26,0.24,0.63,0.32,0.96,0.2c0.33-0.11,0.58-0.4,0.64-0.75c0.06-0.35-0.08-0.47-0.35-0.69l-4.75-4.11h17.69
	c1.59,0,2.88,1.3,2.88,2.9v32.19c0,1.61-1.29,2.91-2.88,2.91H4.88c-1.59,0-2.88-1.3-2.88-2.91v-20.79c0-0.54-0.64-0.97-1.17-0.97
	c-0.53,0-0.83,0.43-0.83,0.97v20.86c0,2.67,2.15,4.84,4.8,4.84h48.4c2.65,0,4.8-2.17,4.8-4.84v-32.32
	C58,8.168,55.85,5.999,53.2,5.999z M21.63,39.729c0.42,0,0.83-0.12,1.18-0.34l16.65-10.36c0.65-0.4,1.05-1.12,1.05-1.89
	c0-0.78-0.4-1.49-1.05-1.9l-16.65-10.35c-0.69-0.43-1.96-0.45-2.67-0.05c-0.71,0.39-1.14,1.13-1.14,1.94v20.71
	c0,0.81,0.43,1.56,1.14,1.95C20.47,39.619,21.25,39.719,21.63,39.729z M21,16.778c0-0.1,0.06-0.2,0.15-0.25
	c0.05-0.03,0.43-0.04,0.49-0.04c0.05,0,0.11,0.01,0.16,0.05l16.66,10.35c0.08,0.05,0.13,0.15,0.13,0.25s-0.05,0.19-0.13,0.24
	L21.8,37.739c-0.1,0.06-0.55,0.07-0.65,0.01c-0.09-0.05-0.15-0.15-0.15-0.26V16.778z"/>
</svg>
