<?xml version="1.0" encoding="utf-8"?>
<!-- Generator: Adobe Illustrator 25.0.0, SVG Export Plug-In . SVG Version: 6.00 Build 0)  -->
<svg version="1.1" id="Layer_1" xmlns="http://www.w3.org/2000/svg" xmlns:xlink="http://www.w3.org/1999/xlink" x="0px" y="0px"
	 width="39.4px" height="39.7px" viewBox="0 0 39.4 39.7" style="enable-background:new 0 0 39.4 39.7;" xml:space="preserve">
<style type="text/css">
	.st0{fill:#FFFFFF;}
	.st1{fill:#06071A;}
	.st2{fill:#8F8BA2;}
	.st3{fill-rule:evenodd;clip-rule:evenodd;fill:#06071A;}
</style>
<g>
	<path class="st0" d="M14.1,32.7c-0.3-1.3-1-2.3-2-3.1C8.6,27,7,22.7,7.9,18.4c0.9-4.2,4.3-7.6,8.5-8.5c0.8-0.2,1.6-0.3,2.4-0.3
		c2.5,0,5,0.9,7,2.5c2.6,2.1,4.1,5.3,4.1,8.6c0,3.4-1.5,6.6-4.2,8.7c-1.1,0.9-1.9,2-2.2,3.2H14.1z"/>
	<path class="st1" d="M17.6,39.4c-1.3,0-2.6-1-2.6-3.1v-3c0-0.3,0-0.6-0.1-0.9l7.5,0c0,0.2,0,0.4,0,0.6v3.7c0,1.5-1.2,2.6-2.6,2.6
		H17.6z"/>
	<path class="st1" d="M16,34.4c-0.5,0-1-0.4-1-1c0-0.5,0.4-1,1-1h6.5c0.5,0,1,0.4,1,1c0,0.5-0.4,1-1,1H16z"/>
	<path class="st1" d="M19.7,5.2c-0.5,0-1-0.4-1-1V1c0-0.5,0.4-1,1-1c0.5,0,1,0.4,1,1v3.3C20.7,4.8,20.2,5.2,19.7,5.2z"/>
	<path class="st1" d="M30.7,9.7c-0.3,0-0.5-0.1-0.7-0.3c-0.4-0.4-0.4-1,0-1.4l2.3-2.3c0.2-0.2,0.4-0.3,0.7-0.3
		c0.3,0,0.5,0.1,0.7,0.3c0.4,0.4,0.4,1,0,1.4l-2.3,2.3C31.2,9.6,30.9,9.7,30.7,9.7z"/>
	<path class="st1" d="M35.2,20.7c-0.5,0-1-0.4-1-1c0-0.5,0.4-1,1-1h3.3c0.5,0,1,0.4,1,1c0,0.5-0.4,1-1,1H35.2z"/>
	<path class="st1" d="M33,34c-0.3,0-0.5-0.1-0.7-0.3L30,31.4c-0.2-0.2-0.3-0.4-0.3-0.7s0.1-0.5,0.3-0.7c0.2-0.2,0.4-0.3,0.7-0.3
		s0.5,0.1,0.7,0.3l2.3,2.3c0.2,0.2,0.3,0.4,0.3,0.7c0,0.3-0.1,0.5-0.3,0.7C33.5,33.8,33.2,34,33,34z"/>
	<path class="st1" d="M6.5,34c-0.3,0-0.5-0.1-0.7-0.3c-0.2-0.2-0.3-0.4-0.3-0.7c0-0.3,0.1-0.5,0.3-0.7L8.1,30
		c0.2-0.2,0.4-0.3,0.7-0.3c0.3,0,0.5,0.1,0.7,0.3c0.2,0.2,0.3,0.4,0.3,0.7s-0.1,0.5-0.3,0.7l-2.3,2.3C7,33.8,6.7,34,6.5,34z"/>
	<path class="st1" d="M1,20.7c-0.5,0-1-0.4-1-1c0-0.5,0.4-1,1-1h3.3c0.5,0,1,0.4,1,1c0,0.5-0.4,1-1,1H1z"/>
	<path class="st1" d="M8.8,9.7c-0.3,0-0.5-0.1-0.7-0.3L5.8,7.1c-0.4-0.4-0.4-1,0-1.4C6,5.6,6.2,5.5,6.5,5.5c0.3,0,0.5,0.1,0.7,0.3
		l2.3,2.3c0.2,0.2,0.3,0.4,0.3,0.7c0,0.3-0.1,0.5-0.3,0.7C9.3,9.6,9,9.7,8.8,9.7z"/>
	<path class="st2" d="M25,20.3c-0.5,0-1-0.4-1-1c0-2.7-2.2-4.9-4.9-4.9c-0.5,0-1-0.4-1-1c0-0.5,0.4-1,1-1c3.8,0,6.8,3.1,6.8,6.8
		C25.9,19.8,25.5,20.3,25,20.3z"/>
	<path class="st3" d="M18.7,10.3c-0.7,0-1.4,0.1-2,0.2c-3.6,0.8-6.5,3.7-7.2,7.2c-0.8,3.7,0.4,7.3,3.3,9.6c1.8,1.4,2.9,3.6,2.9,6.1
		v3.2c0,0.8,0.3,1.2,0.7,1.2H21c0.4,0,0.7-0.3,0.7-0.7v-3.9c0-2.3,1.1-4.4,3.1-6c2.3-1.8,3.4-4.5,3.4-7.4c0-2.9-1.3-5.5-3.5-7.3
		C23,11,20.9,10.3,18.7,10.3z M16.4,39.7c-1.3,0-2.6-1-2.6-3.1v-3.2c0-1.8-0.8-3.6-2.1-4.6c-3.6-2.7-4.9-7.1-4-11.5
		C8.5,13,12,9.5,16.3,8.6c0.8-0.2,1.6-0.2,2.4-0.2c2.6,0,5.2,0.9,7.2,2.5c2.7,2.2,4.2,5.4,4.2,8.8c0,3.5-1.3,6.8-4.1,8.9
		c-1.5,1.2-2.3,2.8-2.3,4.4v4c0,1.5-1.2,2.6-2.6,2.6H16.4z"/>
</g>
</svg>
