<?xml version="1.0" encoding="utf-8"?>
<!-- Generator: Adobe Illustrator 16.0.0, SVG Export Plug-In . SVG Version: 6.00 Build 0)  -->
<!DOCTYPE svg PUBLIC "-//W3C//DTD SVG 1.1//EN" "http://www.w3.org/Graphics/SVG/1.1/DTD/svg11.dtd">
<svg version="1.1" id="Layer_1" xmlns="http://www.w3.org/2000/svg" xmlns:xlink="http://www.w3.org/1999/xlink" x="0px" y="0px"
	 width="42.79px" height="29.11px" viewBox="0 0 42.79 29.11" enable-background="new 0 0 42.79 29.11" xml:space="preserve">
<path d="M24.77,12.01c-0.35,0-0.63,0.28-0.63,0.63v9.52c0,0.3,0.23,0.56,0.53,0.62c0.04,0,0.1,0.01,1.12,0.01l2.32-0.01
	c0.35,0,0.63-0.28,0.63-0.63c-0.01-0.34-0.29-0.62-0.63-0.62l-2.71,0.01v-8.9C25.4,12.29,25.12,12.01,24.77,12.01z"/>
<path d="M12.06,22.79c0.35,0,0.63-0.28,0.63-0.62v-9.53c0-0.35-0.28-0.63-0.63-0.63c-0.34,0-0.62,0.28-0.62,0.63v3.97H6.1v-3.97
	c0-0.35-0.28-0.63-0.63-0.63s-0.63,0.28-0.63,0.63v9.53c0,0.34,0.28,0.62,0.63,0.62s0.63-0.28,0.63-0.62v-4.3h5.34v4.3
	C11.44,22.51,11.72,22.79,12.06,22.79z"/>
<path d="M20.78,13.31c0.35,0,0.63-0.28,0.63-0.63c0-0.34-0.28-0.62-0.63-0.62H16.8c-0.35,0-0.63,0.28-0.63,0.62v9.44
	c0,0.35,0.28,0.63,0.63,0.63h3.98c0.35,0,0.63-0.28,0.63-0.63c0-0.34-0.28-0.62-0.63-0.62h-3.35v-3.47h3.06
	c0.34,0,0.62-0.28,0.62-0.63c0-0.34-0.28-0.62-0.62-0.62h-3.06v-3.47H20.78z"/>
<path fill-rule="evenodd" clip-rule="evenodd" d="M34.58,17.39l-2.01,0.01l-0.01-4.13h2.02c1.15,0,2.12,0.94,2.12,2.06
	C36.7,16.44,35.73,17.39,34.58,17.39z M34.58,12.01h-2.65c-0.35,0-0.63,0.28-0.63,0.63v9.53c0,0.34,0.28,0.62,0.63,0.62
	c0.34,0,0.62-0.28,0.62-0.62v-3.52l2.03-0.01c1.86,0,3.37-1.48,3.37-3.31S36.44,12.01,34.58,12.01z"/>
<path d="M40.59,7.99h-1.5c-0.34,0-0.62,0.28-0.62,0.62c0,0.35,0.28,0.63,0.62,0.63h1.5c0.53,0,0.95,0.42,0.95,0.95v13.76
	c0,0.52-0.42,0.94-0.95,0.94H25.9c-0.84,0-1.63,0.38-2.17,1.02l-1.13,1.38c-0.3,0.36-0.74,0.56-1.2,0.56c-0.47,0-0.91-0.2-1.2-0.56
	l-1.14-1.38c-0.54-0.64-1.33-1.02-2.17-1.02H2.2c-0.52,0-0.95-0.42-0.95-0.94v-1.27c0-0.34-0.28-0.62-0.63-0.62
	C0.28,22.06,0,22.34,0,22.68v1.27c0,1.21,0.98,2.2,2.2,2.2h14.69c0.47,0,0.9,0.2,1.2,0.56l1.14,1.38c0.54,0.65,1.33,1.02,2.17,1.02
	s1.63-0.37,2.16-1.02l1.14-1.38c0.3-0.36,0.74-0.56,1.2-0.56h14.69c1.22,0,2.2-0.99,2.2-2.2V10.19C42.79,8.97,41.81,7.99,40.59,7.99
	z"/>
<path fill-rule="evenodd" clip-rule="evenodd" d="M19.55,3.83c0.43,0.54,1.1,0.89,1.85,0.89c0.74,0,1.41-0.35,1.84-0.89l7.4,4.16
	H12.15L19.55,3.83z M21.4,1.25c0.61,0,1.1,0.5,1.1,1.11s-0.49,1.1-1.1,1.1s-1.11-0.49-1.11-1.1S20.79,1.25,21.4,1.25z M0.62,20.8
	c0.35,0,0.63-0.28,0.63-0.62v-9.99c0-0.53,0.43-0.95,0.95-0.95h34.39c0.34,0,0.63-0.28,0.63-0.63c0-0.34-0.29-0.62-0.63-0.62h-3.38
	l-9.47-5.32c0.01-0.1,0.02-0.21,0.02-0.31C23.76,1.06,22.7,0,21.4,0c-1.31,0-2.37,1.06-2.37,2.36c0,0.1,0.01,0.21,0.03,0.31
	L9.59,7.99H2.2c-1.22,0-2.2,0.98-2.2,2.2v9.99C0,20.52,0.28,20.8,0.62,20.8z"/>
</svg>
