<?xml version="1.0" encoding="utf-8"?>
<!-- Generator: Adobe Illustrator 16.0.0, SVG Export Plug-In . SVG Version: 6.00 Build 0)  -->
<!DOCTYPE svg PUBLIC "-//W3C//DTD SVG 1.1//EN" "http://www.w3.org/Graphics/SVG/1.1/DTD/svg11.dtd">
<svg version="1.1" id="Layer_1" xmlns="http://www.w3.org/2000/svg" xmlns:xlink="http://www.w3.org/1999/xlink" x="0px" y="0px"
	 width="38.31px" height="29.11px" viewBox="0 0 38.31 29.11" enable-background="new 0 0 38.31 29.11" xml:space="preserve">
<path d="M34.15,0H4.16C1.86,0,0,1.9,0,4.22v18.24c0,2.33,1.86,4.22,4.16,4.22h26.39c0.31,0,0.56-0.25,0.56-0.57
	c0-0.31-0.25-0.57-0.56-0.57H4.16c-1.68,0-3.04-1.38-3.04-3.08V4.22c0-1.7,1.36-3.08,3.04-3.08h29.99c1.68,0,3.04,1.38,3.04,3.08
	v18.24c0,1.7-1.36,3.08-3.04,3.08h-1.2c-0.31,0-0.56,0.26-0.56,0.57c0,0.32,0.25,0.57,0.56,0.57h1.2c2.3,0,4.16-1.89,4.16-4.22V4.22
	C38.31,1.9,36.45,0,34.15,0z"/>
<path d="M30.55,27.98H7.76c-0.31,0-0.56,0.25-0.56,0.57c0,0.31,0.25,0.56,0.56,0.56h22.79c0.31,0,0.56-0.25,0.56-0.56
	C31.11,28.23,30.86,27.98,30.55,27.98z"/>
<path d="M15.22,8.07c0.19-0.12,0.42-0.13,0.62-0.03l1.26,0.64c0.28,0.14,0.62,0.03,0.76-0.25C18,8.15,17.88,7.8,17.61,7.66
	l-1.27-0.64c-0.55-0.27-1.19-0.25-1.71,0.08C14.11,7.43,13.8,8,13.8,8.62v9.44c0,0.63,0.31,1.19,0.83,1.52
	c0.28,0.18,0.6,0.27,0.93,0.27c0.26,0,0.53-0.06,0.78-0.19l9.32-4.72c0.6-0.3,0.97-0.92,0.97-1.6c0-0.68-0.37-1.29-0.97-1.59
	l-5.65-2.87c-0.28-0.14-0.62-0.03-0.76,0.26c-0.14,0.28-0.02,0.62,0.25,0.76l5.66,2.86c0.22,0.12,0.35,0.33,0.35,0.58
	s-0.13,0.47-0.35,0.58l-9.32,4.72c-0.2,0.11-0.43,0.09-0.62-0.03c-0.19-0.12-0.3-0.32-0.3-0.55V8.62
	C14.92,8.39,15.03,8.19,15.22,8.07z"/>
</svg>
