<?xml version="1.0" encoding="utf-8"?>
<!-- Generator: Adobe Illustrator 25.0.0, SVG Export Plug-In . SVG Version: 6.00 Build 0)  -->
<svg version="1.1" id="Layer_1" xmlns="http://www.w3.org/2000/svg" xmlns:xlink="http://www.w3.org/1999/xlink" x="0px" y="0px"
	 width="600px" height="203.6px" viewBox="0 0 600 203.6" style="enable-background:new 0 0 600 203.6;" xml:space="preserve">
<style type="text/css">
	.st0{fill:#FFFFFF;}
</style>
<path class="st0" d="M33.7,35.7c6.3,5.1,8.7,4.8,20.6,4L166.5,33c2.4,0,0.4-2.4-0.4-2.8l-18.6-13.5c-3.6-2.8-8.3-5.9-17.4-5.2
	L21.5,19.4c-4,0.4-4.8,2.4-3.2,4L33.7,35.7z M40.4,61.8v118c0,6.3,3.2,8.7,10.3,8.3L174,181c7.1-0.4,7.9-4.8,7.9-9.9V53.9
	c0-5.1-2-7.9-6.3-7.5L46.8,53.9C42,54.3,40.4,56.7,40.4,61.8L40.4,61.8z M162.1,68.2c0.8,3.6,0,7.1-3.6,7.5l-5.9,1.2V164
	c-5.2,2.8-9.9,4.4-13.9,4.4c-6.3,0-7.9-2-12.7-7.9l-38.9-61v59l12.3,2.8c0,0,0,7.1-9.9,7.1L62.2,170c-0.8-1.6,0-5.5,2.8-6.3l7.1-2
	v-78l-9.9-0.8c-0.8-3.6,1.2-8.7,6.7-9.1l29.3-2l40.4,61.8V78.9l-10.3-1.2c-0.8-4.4,2.4-7.5,6.3-7.9L162.1,68.2z M12.3,8.8l113-8.3
	c13.9-1.2,17.4-0.4,26.2,5.9l36.1,25.3c6,4.4,7.9,5.5,7.9,10.3v139c0,8.7-3.2,13.9-14.3,14.7L50,203.6c-8.3,0.4-12.3-0.8-16.7-6.3
	L6.7,162.8C1.9,156.5,0,151.7,0,146.2V22.6C0,15.5,3.2,9.6,12.3,8.8L12.3,8.8z"/>
<path class="st0" d="M304,169.7h-14l-40.4-76.3v76.3H239V84.4h17.6l36.9,69.6V84.4h10.6v85.3L304,169.7z"/>
<path class="st0" d="M380.3,137.8c0,10.4-2.7,18.6-8,24.7c-5.3,6-12.5,9-21.5,9s-16.2-3-21.6-9c-5.3-6-8-14.3-8-24.7
	s2.7-18.7,8-24.7s12.5-9.1,21.6-9.1c9,0,16.1,3,21.5,9.1C377.6,119.1,380.3,127.4,380.3,137.8z M369.2,137.8
	c0-8.3-1.6-14.4-4.9-18.5c-3.2-4-7.7-6-13.5-6s-10.4,2-13.6,6s-4.8,10.2-4.8,18.5c0,8,1.6,14.1,4.9,18.2c3.2,4.1,7.8,6.2,13.6,6.2
	c5.7,0,10.2-2.1,13.5-6.2C367.6,152,369.2,145.9,369.2,137.8z"/>
<path class="st0" d="M430.2,169.2c-2,0.5-4.2,1-6.6,1.3s-4.5,0.5-6.4,0.5c-6.5,0-11.5-1.8-14.9-5.3s-5.1-9.1-5.1-16.9v-34h-7.3v-9
	h7.3V87.4H408v18.4h22.2v9H408v29.1c0,3.4,0.1,6,0.2,7.9c0.2,1.9,0.7,3.7,1.6,5.3c0.8,1.5,2,2.6,3.5,3.3s3.7,1.1,6.7,1.1
	c1.8,0,3.6-0.3,5.5-0.8s3.3-0.9,4.1-1.3h0.6L430.2,169.2z"/>
<path class="st0" d="M454.7,95.1h-12.1V83.9h12.1V95.1z M454,169.7h-10.8v-64H454V169.7z"/>
<path class="st0" d="M529.9,137.8c0,10.4-2.7,18.6-8,24.7c-5.3,6-12.5,9-21.5,9s-16.2-3-21.6-9c-5.3-6-8-14.3-8-24.7
	s2.7-18.7,8-24.7s12.5-9.1,21.6-9.1c9,0,16.1,3,21.5,9.1C527.2,119.1,529.9,127.4,529.9,137.8z M518.7,137.8
	c0-8.3-1.6-14.4-4.9-18.5c-3.2-4-7.7-6-13.5-6s-10.4,2-13.6,6s-4.8,10.2-4.8,18.5c0,8,1.6,14.1,4.9,18.2c3.2,4.1,7.8,6.2,13.6,6.2
	c5.7,0,10.2-2.1,13.5-6.2C517.1,152,518.7,145.9,518.7,137.8L518.7,137.8z"/>
<path class="st0" d="M600,169.7h-10.8v-36.4c0-2.9-0.2-5.7-0.5-8.3c-0.3-2.6-1-4.6-1.9-6c-1-1.6-2.3-2.8-4.1-3.6
	c-1.8-0.8-4.1-1.2-7-1.2s-6,0.7-9.2,2.2c-3.2,1.5-6.3,3.3-9.2,5.6v47.8h-10.8v-64h10.8v7.1c3.4-2.8,6.8-5,10.4-6.5
	c3.6-1.6,7.3-2.3,11.1-2.3c6.9,0,12.2,2.1,15.8,6.2c3.6,4.2,5.4,10.2,5.4,18V169.7z"/>
</svg>
