<?xml version="1.0" encoding="utf-8"?>
<!-- Generator: Adobe Illustrator 21.0.0, SVG Export Plug-In . SVG Version: 6.00 Build 0)  -->
<svg version="1.1" id="Layer_1" xmlns="http://www.w3.org/2000/svg" xmlns:xlink="http://www.w3.org/1999/xlink" x="0px" y="0px"
	 viewBox="0 0 100 100" style="enable-background:new 0 0 100 100;" xml:space="preserve">
<style type="text/css">
	.st0{fill-rule:evenodd;clip-rule:evenodd;fill:#D3DFE4;}
</style>
<path class="st0" d="M0,2c0-1.1,0.9-2,2.1-2c1.1,0,2.1,0.9,2.1,2c0,1.1-0.9,2.1-2.1,2.1C0.9,4.1,0,3.2,0,2z"/>
<path class="st0" d="M0,15.8c0-1.1,0.9-2.1,2.1-2.1c1.1,0,2.1,0.9,2.1,2.1c0,1.1-0.9,2-2.1,2C0.9,17.8,0,16.9,0,15.8z"/>
<path class="st0" d="M0,29.5c0-1.1,0.9-2.1,2.1-2.1c1.1,0,2.1,0.9,2.1,2.1c0,1.1-0.9,2-2.1,2C0.9,31.5,0,30.6,0,29.5z"/>
<path class="st0" d="M0,43.2c0-1.1,0.9-2.1,2.1-2.1c1.1,0,2.1,0.9,2.1,2.1c0,1.1-0.9,2-2.1,2C0.9,45.2,0,44.3,0,43.2z"/>
<path class="st0" d="M0,56.8c0-1.1,0.9-2.1,2.1-2.1c1.1,0,2.1,0.9,2.1,2.1c0,1.1-0.9,2.1-2.1,2.1C0.9,58.9,0,58,0,56.8z"/>
<path class="st0" d="M0,70.5c0-1.1,0.9-2.1,2.1-2.1c1.1,0,2.1,0.9,2.1,2.1c0,1.1-0.9,2.1-2.1,2.1C0.9,72.6,0,71.7,0,70.5z"/>
<path class="st0" d="M0,84.2c0-1.1,0.9-2,2.1-2c1.1,0,2.1,0.9,2.1,2c0,1.1-0.9,2.1-2.1,2.1C0.9,86.3,0,85.4,0,84.2z"/>
<path class="st0" d="M0,97.9c0-1.1,0.9-2.1,2.1-2.1c1.1,0,2.1,0.9,2.1,2.1c0,1.1-0.9,2.1-2.1,2.1C0.9,100,0,99.1,0,97.9z"/>
<path class="st0" d="M68.5,2c0-1.1,0.9-2,2.1-2c1.1,0,2,0.9,2,2c0,1.1-0.9,2.1-2,2.1C69.4,4.1,68.5,3.2,68.5,2z"/>
<path class="st0" d="M68.5,15.8c0-1.1,0.9-2.1,2.1-2.1c1.1,0,2,0.9,2,2.1c0,1.1-0.9,2-2,2C69.4,17.8,68.5,16.9,68.5,15.8z"/>
<path class="st0" d="M68.5,29.5c0-1.1,0.9-2.1,2.1-2.1c1.1,0,2,0.9,2,2.1c0,1.1-0.9,2-2,2C69.4,31.5,68.5,30.6,68.5,29.5z"/>
<path class="st0" d="M68.5,43.2c0-1.1,0.9-2.1,2.1-2.1c1.1,0,2,0.9,2,2.1c0,1.1-0.9,2-2,2C69.4,45.2,68.5,44.3,68.5,43.2z"/>
<path class="st0" d="M68.5,56.8c0-1.1,0.9-2.1,2.1-2.1c1.1,0,2,0.9,2,2.1c0,1.1-0.9,2.1-2,2.1C69.4,58.9,68.5,58,68.5,56.8z"/>
<path class="st0" d="M68.5,70.5c0-1.1,0.9-2.1,2.1-2.1c1.1,0,2,0.9,2,2.1c0,1.1-0.9,2.1-2,2.1C69.4,72.6,68.5,71.7,68.5,70.5z"/>
<path class="st0" d="M68.5,84.2c0-1.1,0.9-2,2.1-2c1.1,0,2,0.9,2,2c0,1.1-0.9,2.1-2,2.1C69.4,86.3,68.5,85.4,68.5,84.2z"/>
<path class="st0" d="M68.5,97.9c0-1.1,0.9-2.1,2.1-2.1c1.1,0,2,0.9,2,2.1c0,1.1-0.9,2.1-2,2.1C69.4,100,68.5,99.1,68.5,97.9z"/>
<path class="st0" d="M13.7,2c0-1.1,0.9-2,2.1-2c1.1,0,2.1,0.9,2.1,2c0,1.1-0.9,2.1-2.1,2.1C14.6,4.1,13.7,3.2,13.7,2z"/>
<path class="st0" d="M13.7,15.8c0-1.1,0.9-2.1,2.1-2.1c1.1,0,2.1,0.9,2.1,2.1c0,1.1-0.9,2-2.1,2C14.6,17.8,13.7,16.9,13.7,15.8z"/>
<path class="st0" d="M13.7,29.5c0-1.1,0.9-2.1,2.1-2.1c1.1,0,2.1,0.9,2.1,2.1c0,1.1-0.9,2-2.1,2C14.6,31.5,13.7,30.6,13.7,29.5z"/>
<path class="st0" d="M13.7,43.2c0-1.1,0.9-2.1,2.1-2.1c1.1,0,2.1,0.9,2.1,2.1c0,1.1-0.9,2-2.1,2C14.6,45.2,13.7,44.3,13.7,43.2z"/>
<path class="st0" d="M13.7,56.8c0-1.1,0.9-2.1,2.1-2.1c1.1,0,2.1,0.9,2.1,2.1c0,1.1-0.9,2.1-2.1,2.1C14.6,58.9,13.7,58,13.7,56.8z"
	/>
<path class="st0" d="M13.7,70.5c0-1.1,0.9-2.1,2.1-2.1c1.1,0,2.1,0.9,2.1,2.1c0,1.1-0.9,2.1-2.1,2.1C14.6,72.6,13.7,71.7,13.7,70.5z
	"/>
<path class="st0" d="M13.7,84.2c0-1.1,0.9-2,2.1-2c1.1,0,2.1,0.9,2.1,2c0,1.1-0.9,2.1-2.1,2.1C14.6,86.3,13.7,85.4,13.7,84.2z"/>
<path class="st0" d="M13.7,97.9c0-1.1,0.9-2.1,2.1-2.1c1.1,0,2.1,0.9,2.1,2.1c0,1.1-0.9,2.1-2.1,2.1C14.6,100,13.7,99.1,13.7,97.9z"
	/>
<path class="st0" d="M82.2,2c0-1.1,0.9-2,2.1-2c1.1,0,2.1,0.9,2.1,2c0,1.1-0.9,2.1-2.1,2.1C83.1,4.1,82.2,3.2,82.2,2z"/>
<path class="st0" d="M82.2,15.8c0-1.1,0.9-2.1,2.1-2.1c1.1,0,2.1,0.9,2.1,2.1c0,1.1-0.9,2-2.1,2C83.1,17.8,82.2,16.9,82.2,15.8z"/>
<path class="st0" d="M82.2,29.5c0-1.1,0.9-2.1,2.1-2.1c1.1,0,2.1,0.9,2.1,2.1c0,1.1-0.9,2-2.1,2C83.1,31.5,82.2,30.6,82.2,29.5z"/>
<path class="st0" d="M82.2,43.2c0-1.1,0.9-2.1,2.1-2.1c1.1,0,2.1,0.9,2.1,2.1c0,1.1-0.9,2-2.1,2C83.1,45.2,82.2,44.3,82.2,43.2z"/>
<path class="st0" d="M82.2,56.8c0-1.1,0.9-2.1,2.1-2.1c1.1,0,2.1,0.9,2.1,2.1c0,1.1-0.9,2.1-2.1,2.1C83.1,58.9,82.2,58,82.2,56.8z"
	/>
<path class="st0" d="M82.2,70.5c0-1.1,0.9-2.1,2.1-2.1c1.1,0,2.1,0.9,2.1,2.1c0,1.1-0.9,2.1-2.1,2.1C83.1,72.6,82.2,71.7,82.2,70.5z
	"/>
<path class="st0" d="M82.2,84.2c0-1.1,0.9-2,2.1-2c1.1,0,2.1,0.9,2.1,2c0,1.1-0.9,2.1-2.1,2.1C83.1,86.3,82.2,85.4,82.2,84.2z"/>
<path class="st0" d="M82.2,97.9c0-1.1,0.9-2.1,2.1-2.1c1.1,0,2.1,0.9,2.1,2.1c0,1.1-0.9,2.1-2.1,2.1C83.1,100,82.2,99.1,82.2,97.9z"
	/>
<path class="st0" d="M27.4,2c0-1.1,0.9-2,2.1-2c1.1,0,2.1,0.9,2.1,2c0,1.1-0.9,2.1-2.1,2.1C28.3,4.1,27.4,3.2,27.4,2z"/>
<path class="st0" d="M27.4,15.8c0-1.1,0.9-2.1,2.1-2.1c1.1,0,2.1,0.9,2.1,2.1c0,1.1-0.9,2-2.1,2C28.3,17.8,27.4,16.9,27.4,15.8z"/>
<path class="st0" d="M27.4,29.5c0-1.1,0.9-2.1,2.1-2.1c1.1,0,2.1,0.9,2.1,2.1c0,1.1-0.9,2-2.1,2C28.3,31.5,27.4,30.6,27.4,29.5z"/>
<path class="st0" d="M27.4,43.2c0-1.1,0.9-2.1,2.1-2.1c1.1,0,2.1,0.9,2.1,2.1c0,1.1-0.9,2-2.1,2C28.3,45.2,27.4,44.3,27.4,43.2z"/>
<path class="st0" d="M27.4,56.8c0-1.1,0.9-2.1,2.1-2.1c1.1,0,2.1,0.9,2.1,2.1c0,1.1-0.9,2.1-2.1,2.1C28.3,58.9,27.4,58,27.4,56.8z"
	/>
<path class="st0" d="M27.4,70.5c0-1.1,0.9-2.1,2.1-2.1c1.1,0,2.1,0.9,2.1,2.1c0,1.1-0.9,2.1-2.1,2.1C28.3,72.6,27.4,71.7,27.4,70.5z
	"/>
<path class="st0" d="M27.4,84.2c0-1.1,0.9-2,2.1-2c1.1,0,2.1,0.9,2.1,2c0,1.1-0.9,2.1-2.1,2.1C28.3,86.3,27.4,85.4,27.4,84.2z"/>
<path class="st0" d="M27.4,97.9c0-1.1,0.9-2.1,2.1-2.1c1.1,0,2.1,0.9,2.1,2.1c0,1.1-0.9,2.1-2.1,2.1C28.3,100,27.4,99.1,27.4,97.9z"
	/>
<path class="st0" d="M95.9,2c0-1.1,0.9-2,2.1-2c1.1,0,2.1,0.9,2.1,2c0,1.1-0.9,2.1-2.1,2.1C96.8,4.1,95.9,3.2,95.9,2z"/>
<path class="st0" d="M95.9,15.8c0-1.1,0.9-2.1,2.1-2.1c1.1,0,2.1,0.9,2.1,2.1c0,1.1-0.9,2-2.1,2C96.8,17.8,95.9,16.9,95.9,15.8z"/>
<path class="st0" d="M95.9,29.5c0-1.1,0.9-2.1,2.1-2.1c1.1,0,2.1,0.9,2.1,2.1c0,1.1-0.9,2-2.1,2C96.8,31.5,95.9,30.6,95.9,29.5z"/>
<path class="st0" d="M95.9,43.2c0-1.1,0.9-2.1,2.1-2.1c1.1,0,2.1,0.9,2.1,2.1c0,1.1-0.9,2-2.1,2C96.8,45.2,95.9,44.3,95.9,43.2z"/>
<path class="st0" d="M95.9,56.8c0-1.1,0.9-2.1,2.1-2.1c1.1,0,2.1,0.9,2.1,2.1c0,1.1-0.9,2.1-2.1,2.1C96.8,58.9,95.9,58,95.9,56.8z"
	/>
<path class="st0" d="M95.9,70.5c0-1.1,0.9-2.1,2.1-2.1c1.1,0,2.1,0.9,2.1,2.1c0,1.1-0.9,2.1-2.1,2.1C96.8,72.6,95.9,71.7,95.9,70.5z
	"/>
<path class="st0" d="M95.9,84.2c0-1.1,0.9-2,2.1-2c1.1,0,2.1,0.9,2.1,2c0,1.1-0.9,2.1-2.1,2.1C96.8,86.3,95.9,85.4,95.9,84.2z"/>
<path class="st0" d="M95.9,97.9c0-1.1,0.9-2.1,2.1-2.1c1.1,0,2.1,0.9,2.1,2.1c0,1.1-0.9,2.1-2.1,2.1C96.8,100,95.9,99.1,95.9,97.9z"
	/>
<path class="st0" d="M41.1,2c0-1.1,0.9-2,2.1-2c1.1,0,2.1,0.9,2.1,2c0,1.1-0.9,2.1-2.1,2.1C42,4.1,41.1,3.2,41.1,2z"/>
<path class="st0" d="M41.1,15.8c0-1.1,0.9-2.1,2.1-2.1c1.1,0,2.1,0.9,2.1,2.1c0,1.1-0.9,2-2.1,2C42,17.8,41.1,16.9,41.1,15.8z"/>
<path class="st0" d="M41.1,29.5c0-1.1,0.9-2.1,2.1-2.1c1.1,0,2.1,0.9,2.1,2.1c0,1.1-0.9,2-2.1,2C42,31.5,41.1,30.6,41.1,29.5z"/>
<path class="st0" d="M41.1,43.2c0-1.1,0.9-2.1,2.1-2.1c1.1,0,2.1,0.9,2.1,2.1c0,1.1-0.9,2-2.1,2C42,45.2,41.1,44.3,41.1,43.2z"/>
<path class="st0" d="M41.1,56.8c0-1.1,0.9-2.1,2.1-2.1c1.1,0,2.1,0.9,2.1,2.1c0,1.1-0.9,2.1-2.1,2.1C42,58.9,41.1,58,41.1,56.8z"/>
<path class="st0" d="M41.1,70.5c0-1.1,0.9-2.1,2.1-2.1c1.1,0,2.1,0.9,2.1,2.1c0,1.1-0.9,2.1-2.1,2.1C42,72.6,41.1,71.7,41.1,70.5z"
	/>
<path class="st0" d="M41.1,84.2c0-1.1,0.9-2,2.1-2c1.1,0,2.1,0.9,2.1,2c0,1.1-0.9,2.1-2.1,2.1C42,86.3,41.1,85.4,41.1,84.2z"/>
<path class="st0" d="M41.1,97.9c0-1.1,0.9-2.1,2.1-2.1c1.1,0,2.1,0.9,2.1,2.1c0,1.1-0.9,2.1-2.1,2.1C42,100,41.1,99.1,41.1,97.9z"/>
<path class="st0" d="M54.8,2c0-1.1,0.9-2,2-2c1.1,0,2.1,0.9,2.1,2c0,1.1-0.9,2.1-2.1,2.1C55.7,4.1,54.8,3.2,54.8,2z"/>
<path class="st0" d="M54.8,15.8c0-1.1,0.9-2.1,2-2.1c1.1,0,2.1,0.9,2.1,2.1c0,1.1-0.9,2-2.1,2C55.7,17.8,54.8,16.9,54.8,15.8z"/>
<path class="st0" d="M54.8,29.5c0-1.1,0.9-2.1,2-2.1c1.1,0,2.1,0.9,2.1,2.1c0,1.1-0.9,2-2.1,2C55.7,31.5,54.8,30.6,54.8,29.5z"/>
<path class="st0" d="M54.8,43.2c0-1.1,0.9-2.1,2-2.1c1.1,0,2.1,0.9,2.1,2.1c0,1.1-0.9,2-2.1,2C55.7,45.2,54.8,44.3,54.8,43.2z"/>
<path class="st0" d="M54.8,56.8c0-1.1,0.9-2.1,2-2.1c1.1,0,2.1,0.9,2.1,2.1c0,1.1-0.9,2.1-2.1,2.1C55.7,58.9,54.8,58,54.8,56.8z"/>
<path class="st0" d="M54.8,70.5c0-1.1,0.9-2.1,2-2.1c1.1,0,2.1,0.9,2.1,2.1c0,1.1-0.9,2.1-2.1,2.1C55.7,72.6,54.8,71.7,54.8,70.5z"
	/>
<path class="st0" d="M54.8,84.2c0-1.1,0.9-2,2-2c1.1,0,2.1,0.9,2.1,2c0,1.1-0.9,2.1-2.1,2.1C55.7,86.3,54.8,85.4,54.8,84.2z"/>
<path class="st0" d="M54.8,97.9c0-1.1,0.9-2.1,2-2.1c1.1,0,2.1,0.9,2.1,2.1c0,1.1-0.9,2.1-2.1,2.1C55.7,100,54.8,99.1,54.8,97.9z"/>
</svg>
