<?xml version="1.0" encoding="utf-8"?>
<!-- Generator: Adobe Illustrator 16.0.0, SVG Export Plug-In . SVG Version: 6.00 Build 0)  -->
<!DOCTYPE svg PUBLIC "-//W3C//DTD SVG 1.1//EN" "http://www.w3.org/Graphics/SVG/1.1/DTD/svg11.dtd">
<svg version="1.1" id="Layer_1" xmlns="http://www.w3.org/2000/svg" xmlns:xlink="http://www.w3.org/1999/xlink" x="0px" y="0px"
	 width="100px" height="24px" viewBox="0 0 100 24" enable-background="new 0 0 100 24" xml:space="preserve">
<path fill-rule="evenodd" clip-rule="evenodd" fill="#FFFFFF" d="M94.68,11.88h1.51V9.22h1.99v2.66h1.8v1.46h-1.8v4.72
	c0,0.21,0.01,0.38,0.03,0.54c0.02,0.15,0.06,0.28,0.12,0.38s0.16,0.18,0.29,0.23c0.14,0.05,0.3,0.08,0.53,0.08
	c0.14,0,0.29,0,0.43-0.01c0.14-0.01,0.28-0.02,0.42-0.06v1.51l-0.64,0.07c-0.22,0.03-0.43,0.03-0.65,0.03
	c-0.53,0-0.95-0.05-1.27-0.14c-0.32-0.1-0.57-0.24-0.75-0.43c-0.19-0.19-0.3-0.43-0.37-0.71c-0.06-0.29-0.11-0.61-0.12-0.98v-5.22
	h-1.5v-1.47H94.68z M89.52,19.43c0.44,0,0.83-0.1,1.16-0.28c0.33-0.18,0.59-0.42,0.8-0.71c0.21-0.3,0.36-0.63,0.47-1
	c0.1-0.38,0.15-0.76,0.15-1.14c0-0.38-0.05-0.75-0.15-1.13c-0.1-0.38-0.26-0.71-0.47-1c-0.21-0.3-0.47-0.53-0.8-0.71
	c-0.33-0.18-0.72-0.28-1.16-0.28s-0.83,0.1-1.15,0.28c-0.33,0.18-0.59,0.42-0.81,0.71c-0.21,0.29-0.36,0.62-0.46,1
	c-0.1,0.38-0.15,0.75-0.15,1.13c0,0.38,0.05,0.76,0.15,1.14c0.09,0.37,0.25,0.7,0.46,1c0.22,0.29,0.48,0.53,0.81,0.71
	C88.69,19.34,89.08,19.43,89.52,19.43z M89.52,20.97c-0.72,0-1.36-0.12-1.93-0.35c-0.56-0.23-1.04-0.56-1.44-0.97
	c-0.39-0.41-0.69-0.9-0.89-1.47c-0.2-0.57-0.31-1.2-0.31-1.88c0-0.68,0.11-1.3,0.31-1.87c0.2-0.57,0.5-1.06,0.89-1.47
	c0.39-0.42,0.88-0.74,1.44-0.97c0.57-0.23,1.21-0.35,1.93-0.35c0.73,0,1.37,0.12,1.94,0.35c0.56,0.23,1.04,0.56,1.44,0.97
	c0.38,0.41,0.68,0.9,0.89,1.47c0.2,0.57,0.31,1.19,0.31,1.87c0,0.68-0.11,1.31-0.31,1.88c-0.21,0.57-0.51,1.06-0.89,1.47
	c-0.39,0.42-0.88,0.74-1.44,0.97C90.89,20.85,90.25,20.97,89.52,20.97z M81.41,8.51h2v12.22h-2V8.51z M77.63,11.88h2v8.85h-2V11.88z
	 M77.63,8.51h2v1.84h-2V8.51z M74.11,16.31c0-0.39-0.05-0.78-0.16-1.16c-0.1-0.38-0.26-0.71-0.47-1c-0.21-0.3-0.48-0.53-0.79-0.7
	c-0.32-0.17-0.68-0.27-1.08-0.27c-0.84,0-1.48,0.29-1.9,0.86s-0.64,1.32-0.64,2.27c0,0.45,0.06,0.87,0.17,1.25
	c0.12,0.38,0.27,0.7,0.5,0.98c0.22,0.28,0.49,0.49,0.8,0.65s0.67,0.24,1.08,0.24c0.45,0,0.83-0.1,1.15-0.28
	c0.32-0.18,0.58-0.42,0.78-0.71c0.2-0.29,0.35-0.62,0.44-0.99C74.07,17.08,74.11,16.7,74.11,16.31z M67.14,11.88h1.89v1.2h0.03
	c0.29-0.52,0.68-0.88,1.18-1.11c0.5-0.22,1.04-0.33,1.63-0.33c0.72,0,1.33,0.12,1.86,0.37c0.53,0.24,0.97,0.58,1.33,1.01
	c0.35,0.43,0.61,0.93,0.78,1.5c0.18,0.57,0.27,1.18,0.27,1.83c0,0.59-0.08,1.17-0.24,1.72c-0.16,0.56-0.4,1.06-0.72,1.49
	c-0.31,0.43-0.72,0.77-1.21,1.02c-0.5,0.26-1.07,0.39-1.74,0.39c-0.29,0-0.58-0.02-0.88-0.08c-0.29-0.05-0.57-0.13-0.83-0.25
	c-0.27-0.11-0.53-0.25-0.75-0.44c-0.23-0.18-0.41-0.38-0.57-0.62h-0.03V24h-2V11.88z M60.42,11.88h1.51V9.22h2v2.66h1.8v1.46h-1.8
	v4.72c0,0.21,0.01,0.38,0.02,0.54c0.02,0.15,0.07,0.28,0.13,0.38s0.16,0.18,0.29,0.23c0.13,0.05,0.3,0.08,0.53,0.08
	c0.14,0,0.28,0,0.42-0.01c0.14-0.01,0.28-0.02,0.43-0.06v1.51L65.1,20.8c-0.21,0.03-0.42,0.03-0.64,0.03
	c-0.53,0-0.96-0.05-1.27-0.14c-0.32-0.1-0.58-0.24-0.75-0.43c-0.19-0.19-0.3-0.43-0.37-0.71c-0.07-0.29-0.11-0.61-0.12-0.98v-5.22
	h-1.51v-1.47H60.42z M53.84,17.89c0.06,0.57,0.28,0.97,0.66,1.2c0.39,0.23,0.85,0.35,1.39,0.35c0.18,0,0.39-0.02,0.63-0.05
	c0.24-0.02,0.47-0.08,0.67-0.16c0.22-0.08,0.38-0.2,0.52-0.35c0.14-0.16,0.2-0.36,0.19-0.61s-0.11-0.46-0.28-0.61
	c-0.18-0.16-0.4-0.29-0.67-0.39c-0.28-0.09-0.59-0.18-0.94-0.25l-1.07-0.22c-0.37-0.08-0.73-0.18-1.07-0.3
	c-0.35-0.11-0.66-0.26-0.93-0.46c-0.27-0.19-0.5-0.44-0.65-0.74c-0.17-0.31-0.25-0.68-0.25-1.13c0-0.48,0.12-0.88,0.36-1.2
	c0.24-0.33,0.55-0.59,0.91-0.79c0.37-0.2,0.78-0.34,1.23-0.42c0.45-0.08,0.88-0.12,1.29-0.12c0.46,0,0.91,0.05,1.34,0.14
	c0.42,0.1,0.81,0.25,1.15,0.48c0.35,0.21,0.63,0.5,0.86,0.84c0.23,0.35,0.37,0.77,0.43,1.26h-2.08c-0.1-0.46-0.31-0.78-0.65-0.94
	c-0.35-0.16-0.75-0.24-1.19-0.24c-0.14,0-0.31,0.01-0.5,0.04c-0.19,0.02-0.37,0.07-0.55,0.13c-0.17,0.06-0.31,0.15-0.43,0.27
	c-0.11,0.12-0.18,0.28-0.18,0.48c0,0.24,0.09,0.43,0.26,0.57c0.17,0.15,0.39,0.27,0.66,0.38c0.28,0.09,0.58,0.18,0.94,0.25
	l1.08,0.22c0.36,0.08,0.72,0.18,1.07,0.29c0.35,0.12,0.66,0.27,0.94,0.47c0.27,0.2,0.49,0.44,0.66,0.73c0.17,0.3,0.25,0.67,0.25,1.1
	c0,0.52-0.12,0.96-0.37,1.33c-0.24,0.37-0.56,0.67-0.95,0.89c-0.39,0.23-0.83,0.4-1.31,0.5c-0.47,0.11-0.95,0.16-1.42,0.16
	c-0.57,0-1.1-0.06-1.59-0.19c-0.48-0.13-0.9-0.32-1.26-0.57c-0.35-0.26-0.63-0.58-0.84-0.96c-0.2-0.38-0.31-0.83-0.32-1.36h2.01
	V17.89z M50.44,20.73h-1.96V19.5h-0.03c-0.25,0.45-0.61,0.8-1.1,1.07c-0.48,0.26-0.98,0.4-1.48,0.4c-1.19,0-2.06-0.28-2.59-0.86
	c-0.53-0.58-0.79-1.45-0.79-2.61v-5.62h1.99v5.43c0,0.77,0.15,1.32,0.46,1.64c0.3,0.32,0.74,0.49,1.28,0.49
	c0.43,0,0.77-0.06,1.05-0.19c0.29-0.13,0.51-0.3,0.68-0.51c0.18-0.21,0.3-0.47,0.38-0.76c0.08-0.29,0.12-0.61,0.12-0.96v-5.13h1.99
	V20.73z M35.97,11.88h1.87v1.71h0.03c0.06-0.24,0.18-0.48,0.35-0.7c0.16-0.23,0.37-0.44,0.61-0.62c0.23-0.19,0.5-0.34,0.79-0.46
	c0.29-0.11,0.59-0.17,0.89-0.17c0.23,0,0.4,0.01,0.49,0.01l0.27,0.04v1.88c-0.14-0.03-0.28-0.04-0.43-0.06
	c-0.15-0.02-0.29-0.03-0.43-0.03c-0.34,0-0.66,0.07-0.96,0.2c-0.3,0.13-0.55,0.33-0.77,0.58c-0.22,0.26-0.4,0.57-0.53,0.95
	c-0.14,0.38-0.2,0.81-0.2,1.3v4.21h-1.99v-8.84H35.97z M26.28,8.51H36.4v1.84h-3.98v10.38h-2.19V10.35h-3.96V8.51H26.28z"/>
<polygon fill="#00B67A" points="23.95,8.51 14.8,8.51 11.98,0 9.14,8.51 0,8.5 7.41,13.76 4.57,22.26 11.98,17 19.37,22.26 
	16.55,13.76 "/>
<polygon fill="#005128" points="17.18,15.68 16.55,13.76 11.98,17 "/>
</svg>
