<?xml version="1.0" encoding="utf-8"?>
<!-- Generator: Adobe Illustrator 25.0.0, SVG Export Plug-In . SVG Version: 6.00 Build 0)  -->
<svg version="1.1" id="Layer_1" xmlns="http://www.w3.org/2000/svg" xmlns:xlink="http://www.w3.org/1999/xlink" x="0px" y="0px"
	 width="26px" height="14px" viewBox="0 0 26 14" style="enable-background:new 0 0 26 14;" xml:space="preserve">
<style type="text/css">
	.st0{fill-rule:evenodd;clip-rule:evenodd;fill:#FFFFFF;}
	.st1{fill:#FFFFFF;}
</style>
<path class="st0" d="M13,12.4c-2.9,0-5.3-2.4-5.3-5.4s2.4-5.4,5.3-5.4S18.3,4,18.3,7S15.9,12.4,13,12.4z M25.8,6.5
	C25.6,6.2,20,0,13,0S0.4,6.2,0.2,6.5c-0.2,0.3-0.2,0.7,0,1C0.4,7.8,6,14,13,14s12.6-6.2,12.8-6.5C26.1,7.2,26.1,6.8,25.8,6.5z"/>
<path class="st1" d="M13.8,5.4c0-0.8,0.4-1.5,1-1.9c-0.5-0.3-1.1-0.4-1.7-0.4c-2.1,0-3.8,1.8-3.8,3.9s1.7,3.9,3.8,3.9
	c1.9,0,3.4-1.4,3.7-3.2C15.2,8.2,13.8,7,13.8,5.4z"/>
</svg>
