<?xml version="1.0" encoding="utf-8"?>
<!-- Generator: Adobe Illustrator 16.0.0, SVG Export Plug-In . SVG Version: 6.00 Build 0)  -->
<!DOCTYPE svg PUBLIC "-//W3C//DTD SVG 1.1//EN" "http://www.w3.org/Graphics/SVG/1.1/DTD/svg11.dtd">
<svg version="1.1" id="Layer_1" xmlns="http://www.w3.org/2000/svg" xmlns:xlink="http://www.w3.org/1999/xlink" x="0px" y="0px"
	 width="65px" height="80px" viewBox="0 0 65 80" enable-background="new 0 0 65 80" xml:space="preserve">
<path fill="#FFFFFF" d="M35.21,70.77h-6.44c-0.85,0-1.55,0.65-1.55,1.51c0,0.87,0.7,1.57,1.55,1.57h6.44c0.86,0,1.55-0.56,1.55-1.42
	C36.76,71.56,36.07,70.77,35.21,70.77z M63.11,12.31h-9.28v-3.2c1.8-0.65,3.09-2.39,3.09-4.42C56.92,2.1,54.67,0,52.11,0H11.87
	C9.31,0,7.06,2.1,7.06,4.69c0,2.03,1.29,3.77,3.1,4.42v3.2H1.38c-0.86,0-1.38,0.7-1.38,1.56v10.55c0,6.9,5.55,12.5,12.38,12.5h0.8
	c0.3,0.53,0.62,1.04,0.96,1.54c2.19,3.21,5.15,6.33,8.6,7.98c-0.02,0.18-0.03,0.37-0.03,0.55c0,2.19,1.49,4.28,3.5,4.79
	c-1.86,6.25-5.16,12.84-9.08,12.84h-3.71c-0.78,0-1.44,0.58-1.53,1.36l-1.55,12.26c-0.06,0.45,0.08,0.9,0.37,1.23
	c0.3,0.34,0.72,0.53,1.16,0.53h40.24c0.45,0,0.87-0.19,1.16-0.53c0.3-0.33,0.43-0.78,0.38-1.23L52.1,65.98
	c-0.1-0.78-0.76-1.36-1.54-1.36h-3.71c-2.37,0-4.37-2.52-5.63-4.62c-1.63-2.71-2.76-6.14-3.45-8.46c2.01-0.52,3.51-2.36,3.51-4.55
	c0-0.18-0.01-0.37-0.03-0.55c3.45-1.65,6.41-3.74,8.6-6.95c0.34-0.5,0.66-1.02,0.95-1.54h1.82c6.83,0,12.38-5.61,12.38-12.5V14.06
	c0-0.86-0.69-1.75-1.55-1.75H63.11z M3.05,24.76v-9.38h7.11v11.06c0,2.65,0.93,5.49,1.85,7.93C6.96,34.29,3.05,29.88,3.05,24.76z
	 M50.36,76.92H13.63l1.16-9.23H49.2L50.36,76.92z M40.75,64.62H23.24c0.75-0.84,1.47-2.47,2.17-3.63c1.98-3.3,3.28-7.19,3.99-9.71
	h5.19c0.71,2.52,2,6.64,3.98,9.94C39.27,62.38,39.99,63.78,40.75,64.62z M36.64,48.21h-9.29c-0.85,0-1.55-0.66-1.55-1.52
	s0.7-1.56,1.55-1.56h9.29c0.85,0,1.54,0.35,1.54,1.21C38.18,47.2,37.49,48.21,36.64,48.21z M40.09,43.39
	c-0.83-0.83-2.19-1.34-3.45-1.34h-9.29c-1.26,0-2.62,0.51-3.46,1.34c-6.53-3.1-10.69-9.4-10.69-16.71V9.23h11.61
	c0.85,0,1.77-0.8,1.77-1.66c0-0.86-0.7-1.42-1.55-1.42H11.87c-0.85,0-1.54-0.75-1.54-1.61s0.69-1.46,1.54-1.46h40.24
	c0.85,0,1.55,0.6,1.55,1.46c0,0.87-0.7,1.61-1.55,1.61H38.96c-0.86,0-1.55,0.56-1.55,1.42c0,0.86,0.69,1.66,1.55,1.66h11.82v17.31
	C50.78,33.85,46.62,40.29,40.09,43.39z M61.95,24.76c0,5.12-3.91,9.53-8.96,9.61c0.92-2.44,0.84-5.04,0.84-7.69v-11.3h8.12V24.76z
	 M39.9,20.37l-3.47-0.62l-1.73-3.2c-0.29-0.53-0.72-0.97-1.26-1.26c-0.72-0.39-1.56-0.47-2.35-0.23c-0.79,0.24-1.44,0.78-1.83,1.52
	l-1.65,3.14l-3.48,0.65c-0.63,0.1-1.2,0.39-1.65,0.83c-0.6,0.58-0.94,1.36-0.95,2.19c-0.02,0.83-0.18,1.62,0.4,2.23l2.45,2.56v3.46
	c-0.13,0.66-0.04,1.32,0.26,1.93c0.36,0.75,1,1.31,1.79,1.58c0.33,0.12,0.67,0.18,1.01,0.18c0.46,0,0.92-0.11,1.35-0.32l3.17-1.56
	l3.26,1.57c0.54,0.26,1.15,0.36,1.75,0.27c0.82-0.11,1.54-0.54,2.04-1.2c0.5-0.67,0.71-1.49,0.6-2.32v-3.52L42,25.7
	c0.48-0.46,0.3-1.05,0.41-1.71C42.7,22.29,41.58,20.67,39.9,20.37z M39.3,23.52l-2.94,3.12c-0.32,0.35-0.47,0.82-0.41,1.29l0.6,4.27
	l-3.94-1.89c-0.42-0.21-0.92-0.2-1.34,0.01l-3.84,1.88l0.02-0.11l0.56-4.25c0.06-0.47-0.1-0.94-0.42-1.29l-2.97-3.09l0.05-0.01
	l4.24-0.8c0.46-0.08,0.86-0.38,1.08-0.8l2-3.8l2.07,3.86c0.23,0.42,0.63,0.71,1.09,0.79l4.21,0.75L39.3,23.52z M31.99,9.37
	c0.86,0,1.55-0.69,1.55-1.56c0-0.86-0.69-1.56-1.55-1.56c-0.85,0-1.55,0.7-1.55,1.56C30.44,8.68,31.14,9.37,31.99,9.37z"/>
</svg>
